<svg xmlns="http://www.w3.org/2000/svg" width="150" height="150" viewBox="0 0 150 150">
  <g id="ico_portal_venta-empleados_" data-name="ico_portal_venta-empleados " transform="translate(-286 -1258)">
    <g id="Rectangle_17136" data-name="Rectangle 17136" transform="translate(286 1258)" fill="#fff" stroke="#fff" stroke-width="1">
      <rect width="150" height="150" stroke="none"/>
      <rect x="0.5" y="0.5" width="149" height="149" fill="none"/>
    </g>
    <g id="Group_9216" data-name="Group 9216" transform="translate(280.997 1249.795)">
      <g id="Group_9213" data-name="Group 9213" transform="translate(48.962 23.534)">
        <g id="Group_9211" data-name="Group 9211">
          <g id="Group_9204" data-name="Group 9204" transform="translate(13.627)">
            <g id="Group_9203" data-name="Group 9203">
              <path id="Path_6131" data-name="Path 6131" d="M83.466,79.769H70.331a9.593,9.593,0,0,1-9.584-9.582V34.118a9.594,9.594,0,0,1,9.584-9.584H83.466a9.593,9.593,0,0,1,9.582,9.584V70.187A9.593,9.593,0,0,1,83.466,79.769Zm-13.135-49.6a3.95,3.95,0,0,0-3.946,3.946V70.187a3.95,3.95,0,0,0,3.946,3.946H83.466a3.95,3.95,0,0,0,3.946-3.946V34.118a3.95,3.95,0,0,0-3.946-3.946Z" transform="translate(-59.484 -23.27)" fill="#fff"/>
              <path id="Path_6132" data-name="Path 6132" d="M83.73,81.3H70.594A10.859,10.859,0,0,1,59.747,70.45V34.381A10.859,10.859,0,0,1,70.594,23.534H83.73A10.86,10.86,0,0,1,94.577,34.381V70.45A10.86,10.86,0,0,1,83.73,81.3ZM70.594,26.061a8.33,8.33,0,0,0-8.32,8.32V70.45a8.328,8.328,0,0,0,8.32,8.319H83.73a8.329,8.329,0,0,0,8.32-8.319V34.381a8.33,8.33,0,0,0-8.32-8.32ZM83.73,75.66H70.594a5.216,5.216,0,0,1-5.211-5.209V34.381a5.215,5.215,0,0,1,5.211-5.209H83.73a5.215,5.215,0,0,1,5.209,5.209V70.45A5.216,5.216,0,0,1,83.73,75.66ZM70.594,31.7a2.686,2.686,0,0,0-2.684,2.682V70.45a2.687,2.687,0,0,0,2.684,2.682H83.73a2.686,2.686,0,0,0,2.682-2.682V34.381A2.686,2.686,0,0,0,83.73,31.7Z" transform="translate(-59.747 -23.534)" fill="#182544"/>
            </g>
          </g>
          <g id="Group_9207" data-name="Group 9207" transform="translate(12.683 104.34)">
            <g id="Group_9205" data-name="Group 9205">
              <path id="Path_6133" data-name="Path 6133" d="M70,111.615c0,3.037-1.9,5.5-4.937,5.5S59,114.653,59,111.615a5.5,5.5,0,1,1,11,0Z" transform="translate(-59 -106.114)" fill="#0092d5"/>
            </g>
            <g id="Group_9206" data-name="Group 9206" transform="translate(26.45)">
              <path id="Path_6134" data-name="Path 6134" d="M90.935,111.615c0,3.037-.96,5.5-5.5,5.5a5.5,5.5,0,1,1,5.5-5.5Z" transform="translate(-79.934 -106.114)" fill="#0092d5"/>
            </g>
          </g>
          <g id="Group_9210" data-name="Group 9210" transform="translate(0 21.184)">
            <g id="Group_9208" data-name="Group 9208" transform="translate(1.264 1.264)">
              <rect id="Rectangle_17442" data-name="Rectangle 17442" width="59.556" height="86.077" rx="7.512" fill="#fff"/>
            </g>
            <g id="Group_9209" data-name="Group 9209">
              <path id="Path_6135" data-name="Path 6135" d="M100.289,128.9H59.718a10.768,10.768,0,0,1-10.756-10.755V51.056A10.769,10.769,0,0,1,59.718,40.3h40.571a10.769,10.769,0,0,1,10.756,10.756v67.093A10.768,10.768,0,0,1,100.289,128.9ZM59.718,42.827a8.238,8.238,0,0,0-8.229,8.229v67.093a8.237,8.237,0,0,0,8.229,8.228h40.571a8.238,8.238,0,0,0,8.229-8.228V51.056a8.239,8.239,0,0,0-8.229-8.229Z" transform="translate(-48.962 -40.3)" fill="#182544"/>
            </g>
          </g>
        </g>
        <g id="Group_9212" data-name="Group 9212" transform="translate(0 97.77)">
          <path id="Path_6136" data-name="Path 6136" d="M109.782,103.441H50.226a1.263,1.263,0,1,1,0-2.527h59.556a1.263,1.263,0,1,1,0,2.527Z" transform="translate(-48.962 -100.914)" fill="#182544"/>
        </g>
      </g>
      <path id="Path_6137" data-name="Path 6137" d="M77.786,107.808A20.431,20.431,0,0,1,57.378,87.4V68.777a20.407,20.407,0,1,1,40.815,0V87.4A20.429,20.429,0,0,1,77.786,107.808Z" transform="translate(2.218 6.544)" fill="none" stroke="#0092d5" stroke-miterlimit="10" stroke-width="0.75"/>
      <path id="Path_6138" data-name="Path 6138" d="M77.328,105.152h0a18.211,18.211,0,0,1-18.211-18.21V68.319a18.21,18.21,0,1,1,36.42,0V86.943A18.21,18.21,0,0,1,77.328,105.152Z" transform="translate(2.676 7.002)" fill="none" stroke="#0092d5" stroke-miterlimit="10" stroke-width="0.75"/>
      <path id="Path_6139" data-name="Path 6139" d="M81.93,55.978H68.441a1.192,1.192,0,1,1,0-2.384H81.93a1.192,1.192,0,0,1,0,2.384Z" transform="translate(4.818 7.921)" fill="none" stroke="#0092d5" stroke-miterlimit="10" stroke-width="0.75"/>
      <line id="Line_31" data-name="Line 31" x2="36.42" transform="translate(61.793 75.321)" fill="none" stroke="#0092d5" stroke-miterlimit="10" stroke-width="0.75"/>
      <g id="Group_9214" data-name="Group 9214" transform="translate(64.988 79.948)">
        <path id="Path_6140" data-name="Path 6140" d="M61.737,76.866l3.97-3.2c.895-.711,1.334-1.257,1.334-1.953A1.21,1.21,0,0,0,65.752,70.4a1.405,1.405,0,0,0-1.409,1.56v.153h-2.7v-.3c0-2.015,1.56-3.621,4.122-3.621,2.591,0,3.971,1.409,3.971,3.425,0,1.545-.773,2.47-2.137,3.545l-1.939,1.53h4.12v2.2H61.737Z" transform="translate(-61.646 -68.183)" fill="#0092d5"/>
        <path id="Path_6141" data-name="Path 6141" d="M76.982,75.241c0,2.485-1.879,3.712-4.182,3.712-2.514,0-4.106-1.56-4.182-3.561H71.27a1.57,1.57,0,0,0,1.53,1.439,1.607,1.607,0,1,0-1.454-2.273H68.754l.273-6.3h7.319v2.2h-4.88l-.076,1.8a2.918,2.918,0,0,1,1.985-.682A3.528,3.528,0,0,1,76.982,75.241Z" transform="translate(-59.809 -68.164)" fill="#0092d5"/>
        <path id="Path_6142" data-name="Path 6142" d="M78.543,68.183a2.658,2.658,0,1,1-2.834,2.652A2.663,2.663,0,0,1,78.543,68.183Zm-1.166,10.7,7.3-10.607h2.576L79.952,78.881Zm1.166-8.865a.8.8,0,0,0-.787.819.788.788,0,1,0,1.576,0A.8.8,0,0,0,78.543,70.016Zm7.547,3.652a2.658,2.658,0,1,1-2.833,2.653A2.664,2.664,0,0,1,86.09,73.668Zm0,1.835a.8.8,0,0,0-.787.819.788.788,0,1,0,1.576,0A.8.8,0,0,0,86.09,75.5Z" transform="translate(-57.94 -68.183)" fill="#0092d5"/>
      </g>
      <g id="Group_9215" data-name="Group 9215" transform="translate(71.701 92.673)">
        <path id="Path_6143" data-name="Path 6143" d="M66.959,84.417a3.836,3.836,0,1,1,3.835,3.955A3.717,3.717,0,0,1,66.959,84.417Zm6.4,0a2.576,2.576,0,1,0-2.561,2.848A2.6,2.6,0,0,0,73.355,84.417Z" transform="translate(-66.959 -77.672)" fill="#0092d5"/>
        <path id="Path_6144" data-name="Path 6144" d="M81.067,79.39c-.622,0-.849.258-.849.849v.895H82.4v1.137H80.218v6.59H78.976v-6.59H75.945v6.59H74.7v-6.59H73.308V81.134H74.7v-.863c0-1.365.575-2.017,2.015-2.017h1.274V79.39h-1.2c-.622,0-.849.258-.849.849v.895h3.031v-.863c0-1.365.576-2.017,2.015-2.017h1.425V79.39Z" transform="translate(-65.286 -78.254)" fill="#0092d5"/>
      </g>
    </g>
  </g>
</svg>
