<svg xmlns="http://www.w3.org/2000/svg" width="150" height="150" viewBox="0 0 150 150">
  <g id="ico_portal_rh" transform="translate(-66 -1258)">
    <g id="Rectangle_17134" data-name="Rectangle 17134" transform="translate(66 1258)" fill="#fff" stroke="#fff" stroke-width="1">
      <rect width="150" height="150" stroke="none"/>
      <rect x="0.5" y="0.5" width="149" height="149" fill="none"/>
    </g>
    <g id="ico" transform="translate(-121.63 1136.184)">
      <path id="Path_2155" data-name="Path 2155" d="M448.1,358.92a11.369,11.369,0,1,0,11.371,11.368A11.383,11.383,0,0,0,448.1,358.92Zm0,19.287a7.917,7.917,0,1,1,7.919-7.919A7.929,7.929,0,0,1,448.1,378.207Z" transform="translate(-139.92 -130.464)" fill="#33b5e5" stroke="#fff" stroke-width="1.5"/>
      <path id="Path_2156" data-name="Path 2156" d="M332.491,358.92a11.369,11.369,0,1,0,11.374,11.368A11.383,11.383,0,0,0,332.491,358.92Zm0,19.287a7.917,7.917,0,1,1,7.922-7.919A7.929,7.929,0,0,1,332.491,378.207Z" transform="translate(-69.924 -130.464)" fill="#33b5e5" stroke="#fff" stroke-width="1.5"/>
      <path id="Path_2157" data-name="Path 2157" d="M217,358.92a11.369,11.369,0,1,0,11.371,11.368A11.383,11.383,0,0,0,217,358.92Zm0,19.287a7.917,7.917,0,1,1,7.919-7.919A7.929,7.929,0,0,1,217,378.207Z" transform="translate(0 -130.464)" fill="#33b5e5" stroke="#fff" stroke-width="1.5"/>
      <path id="_1" data-name="1" d="M336.5,168.694a25.26,25.26,0,1,0-25.259,25.259A25.285,25.285,0,0,0,336.5,168.694Zm-25.259-21.8a21.757,21.757,0,0,1,18.623,33.09,22.232,22.232,0,0,0-37.246,0,21.756,21.756,0,0,1,18.624-33.088Zm-16.443,36.079a18.856,18.856,0,0,1,32.886,0,21.719,21.719,0,0,1-32.886,0Z" transform="translate(-48.646)" fill="#33b5e5" stroke="#fff" stroke-width="1.5"/>
      <path id="Path_2159" data-name="Path 2159" d="M322.975,304.523A1.725,1.725,0,0,0,324.7,302.8V291.853a1.725,1.725,0,0,0-1.726-1.726H279.109V279.918a1.726,1.726,0,0,0-3.452,0v10.209H231.791a1.725,1.725,0,0,0-1.726,1.726V302.8a1.726,1.726,0,1,0,3.452,0v-9.218h42.138v9.565a1.726,1.726,0,0,0,3.452,0v-9.565h42.138V302.8a1.724,1.724,0,0,0,1.726,1.726Z" transform="translate(-14.794 -81.587)" fill="#152049"/>
      <path id="_2" data-name="2" d="M333.894,176.29A10.5,10.5,0,1,0,323.4,165.8,10.506,10.506,0,0,0,333.894,176.29Zm0-17.537a7.043,7.043,0,1,1-7.044,7.042A7.051,7.051,0,0,1,333.894,158.753Z" transform="translate(-71.303 -7.182)" fill="#33b5e5" stroke="#fff" stroke-width="1.5"/>
      <g id="Ellipse_339" data-name="Ellipse 339" transform="translate(240.23 146.913)" fill="none" stroke="#152049" stroke-width="3">
        <circle cx="22.079" cy="22.079" r="22.079" stroke="none"/>
        <circle cx="22.079" cy="22.079" r="23.579" fill="none"/>
      </g>
    </g>
  </g>
</svg>
