<svg xmlns="http://www.w3.org/2000/svg" width="150" height="150" viewBox="0 0 150 150">
  <g id="ico_portal_vacaciones" transform="translate(-66 -1258)">
    <g id="Rectangle_17134" data-name="Rectangle 17134" transform="translate(66 1258)" fill="#fff" stroke="#fff" stroke-width="1">
      <rect width="150" height="150" stroke="none"/>
      <rect x="0.5" y="0.5" width="149" height="149" fill="none"/>
    </g>
    <g id="noun-assurance-4021085" transform="translate(18.989 1247.916)">
      <path id="Path_2119" data-name="Path 2119" d="M254.62,145.517a15.933,15.933,0,0,0,15.907-15.907.993.993,0,0,0-1.985,0,13.919,13.919,0,1,1-7.887-12.554.993.993,0,1,0,.86-1.79,15.907,15.907,0,1,0-6.9,30.259Z" transform="translate(-137.104 -59.258)" fill="#152049"/>
      <path id="Path_2120" data-name="Path 2120" d="M290.35,150.51a1,1,0,0,0-1.409,1.409l4.156,4.143a.989.989,0,0,0,1.363.039l18.405-16.466h0a.993.993,0,0,0-1.325-1.48l-17.7,15.838Z" transform="translate(-177.817 -78.995)" fill="#00a1ed"/>
      <path id="Path_2121" data-name="Path 2121" d="M181.27,122.622l-8.215-12.709a11.55,11.55,0,0,0,1.051-11.759.959.959,0,0,0,.056-.324V42.076a.992.992,0,0,0-.992-.992H84.192a.992.992,0,0,0-.992.992v71.217a.993.993,0,0,0,.992.993h67.232l-5.388,8.336a.992.992,0,0,0,1.019,1.514l5.193-.982,1.234,5.134a1,1,0,0,0,.805.747.935.935,0,0,0,.168.014.993.993,0,0,0,.833-.453l8.376-12.957,8.376,12.957a.993.993,0,0,0,.833.453.935.935,0,0,0,.168-.014,1,1,0,0,0,.805-.747l1.234-5.134,5.173.974a.992.992,0,0,0,1.017-1.514Zm-17.616-9.866a9.613,9.613,0,1,1,6.785-2.816A9.6,9.6,0,0,1,163.654,112.756ZM85.182,112.3V43.07h87V95.32a11.577,11.577,0,0,0-17.92,14.593l-1.542,2.388Zm69.682,13.273-.914-3.8a.987.987,0,0,0-1.15-.743l-3.841.727,6.645-10.269a11.56,11.56,0,0,0,6.346,3.139Zm19.635-4.546a.989.989,0,0,0-1.15.743l-.914,3.8-7.082-10.957a11.562,11.562,0,0,0,6.347-3.139l6.645,10.269Z" transform="translate(-10.189)" fill="#152049"/>
      <path id="Path_2122" data-name="Path 2122" d="M240.181,316.679a.993.993,0,0,0-.992-.993H188.681a.993.993,0,0,0,0,1.985h50.507a.992.992,0,0,0,.992-.992Z" transform="translate(-95.443 -224.05)" fill="#00a1ed"/>
      <path id="Path_2123" data-name="Path 2123" d="M232.955,360.8H202.212a.992.992,0,0,0,0,1.985h30.743a.992.992,0,1,0,0-1.985Z" transform="translate(-106.483 -260.86)" fill="#00a1ed"/>
    </g>
  </g>
</svg>
