<svg xmlns="http://www.w3.org/2000/svg" width="150" height="150" viewBox="0 0 150 150">
  <g id="ico_portal_vacaciones" transform="translate(-66 -1258)">
    <g id="Rectangle_17134" data-name="Rectangle 17134" transform="translate(66 1258)" fill="#fff" stroke="#fff" stroke-width="1">
      <rect width="150" height="150" stroke="none"/>
      <rect x="0.5" y="0.5" width="149" height="149" fill="none"/>
    </g>
    <g id="noun-vacation-2527532" transform="translate(-2.215 1226.794)">
      <g id="Group_8745" data-name="Group 8745" transform="translate(94.779 52.773)">
        <g id="Path_2068" data-name="Path 2068" transform="translate(-317.489 -204.804)" fill="#00a1ed">
          <path d="M 378.4260559082031 300.6270141601562 C 377.6475524902344 300.6270141601562 377.0284423828125 300.1614685058594 376.8487854003906 299.4409790039062 L 376.8479614257812 299.4375915527344 L 376.8470153808594 299.4342346191406 L 364.0257568359375 253.51220703125 C 363.9132080078125 253.0593719482422 363.9635925292969 252.6015014648438 364.1676940917969 252.22265625 C 364.3735656738281 251.8405609130859 364.7236022949219 251.5711364746094 365.1532897949219 251.4640197753906 C 365.3106994628906 251.4246215820312 365.4702453613281 251.4046936035156 365.6277160644531 251.4046936035156 C 366.4061889648438 251.4046936035156 367.0252685546875 251.8702239990234 367.2049255371094 252.5907135009766 L 367.2057800292969 252.5940856933594 L 367.2067260742188 252.5974426269531 L 380.0270080566406 298.5192565917969 C 380.1396484375 298.9718322753906 380.0894165039062 299.4295349121094 379.885498046875 299.8084106445312 C 379.6798095703125 300.1905822753906 379.3298950195312 300.4602355957031 378.9002380371094 300.5677490234375 C 378.7430725097656 300.6070556640625 378.5835266113281 300.6270141601562 378.4260559082031 300.6270141601562 Z" stroke="none"/>
          <path d="M 378.4260559082031 300.3770141601562 C 378.5631103515625 300.3770141601562 378.7022094726562 300.3595886230469 378.8395385742188 300.3252258300781 C 379.3017272949219 300.2095642089844 379.5437316894531 299.9159240722656 379.6653442382812 299.68994140625 C 379.8392333984375 299.3668518066406 379.8817443847656 298.9739990234375 379.7852478027344 298.5829772949219 L 366.9623718261719 252.6511993408203 C 366.8114013671875 252.0458374023438 366.2875366210938 251.6546936035156 365.6277160644531 251.6546936035156 C 365.4906921386719 251.6546936035156 365.3515319824219 251.672119140625 365.2137451171875 251.7065887451172 C 364.7516174316406 251.8217926025391 364.509521484375 252.1152954101562 364.3877868652344 252.3412322998047 C 364.2137451171875 252.6642913818359 364.1711120605469 253.0572814941406 364.2675170898438 253.4485168457031 L 377.0913696289062 299.3804931640625 C 377.2423095703125 299.9858703613281 377.7662048339844 300.3770141601562 378.4260559082031 300.3770141601562 M 378.4260559082031 300.8770141601562 C 377.5779724121094 300.8770141601562 376.8224792480469 300.3686828613281 376.6062316894531 299.50146484375 L 363.7840270996094 253.5761108398438 C 363.5220642089844 252.5292663574219 364.0459594726562 251.482421875 365.0928039550781 251.221435546875 C 366.1397705078125 250.9595336914062 367.1864318847656 251.4833831787109 367.447509765625 252.5302124023438 L 380.2687683105469 298.4555053710938 C 380.5307312011719 299.50146484375 380.0077514648438 300.54833984375 378.9609069824219 300.8102722167969 L 378.9609375 300.8102722167969 C 378.7813415527344 300.8551940917969 378.6017150878906 300.8770141601562 378.4260559082031 300.8770141601562 Z" stroke="none" fill="#fff"/>
        </g>
        <g id="Path_2061" data-name="Path 2061" transform="translate(-165.86 -52.773)" fill="#00a1ed">
          <path d="M 169.4886016845703 114.9689865112305 C 168.7101287841797 114.9690017700195 168.0910491943359 114.5034637451172 167.9114074707031 113.782958984375 L 167.9104766845703 113.7792587280273 L 167.9094390869141 113.7755889892578 C 166.1621246337891 107.5807266235352 165.6824798583984 101.2273712158203 166.4838714599609 94.89202117919922 C 167.2581481933594 88.77102661132812 169.1894683837891 82.92393493652344 172.2242279052734 77.51317596435547 C 175.2699279785156 72.08284759521484 179.272705078125 67.36671447753906 184.1213226318359 63.49576187133789 C 189.142822265625 59.48679733276367 194.8555908203125 56.56549835205078 201.1009368896484 54.81298446655273 C 205.3126525878906 53.62502288818359 209.6512756347656 53.02272415161133 213.9965667724609 53.02272415161133 C 219.1603393554688 53.02272415161133 224.2751922607422 53.86416244506836 229.1990661621094 55.52364730834961 C 234.0471496582031 57.15758514404297 238.5848846435547 59.54087448120117 242.6862030029297 62.6073112487793 C 246.8306121826172 65.70596313476562 250.4166564941406 69.41913604736328 253.3447570800781 73.64371490478516 C 256.3738403320312 78.01395416259766 258.6338195800781 82.84335327148438 260.0618591308594 87.99726104736328 C 260.2835998535156 89.00740814208984 259.7443237304688 89.94535064697266 258.805419921875 90.18058776855469 L 258.7639770507812 90.19096374511719 L 258.7636413574219 90.19118499755859 C 258.6195678710938 90.22412109375 258.4738464355469 90.24078369140625 258.329833984375 90.24078369140625 C 257.5513610839844 90.24078369140625 256.9322814941406 89.77524566650391 256.7526550292969 89.05477142333984 L 256.7518005371094 89.05137634277344 L 256.7508544921875 89.04799652099609 C 255.4152526855469 84.26658630371094 253.3117523193359 79.78520965576172 250.498779296875 75.72838592529297 C 247.7791290283203 71.80615997314453 244.4532775878906 68.35843658447266 240.6136474609375 65.48099517822266 C 236.8113708496094 62.63154983520508 232.6073303222656 60.41679763793945 228.1183166503906 58.89828491210938 C 223.5554962158203 57.35479736328125 218.8167419433594 56.57218551635742 214.0337219238281 56.57218551635742 C 209.9823913574219 56.57218551635742 205.9375305175781 57.13936233520508 202.0115203857422 58.2579345703125 C 196.2500915527344 59.89941024780273 190.9705200195312 62.60799789428711 186.3194885253906 66.30848693847656 C 181.8195953369141 69.88873291015625 178.0962219238281 74.24085235595703 175.2527923583984 79.24394989013672 C 172.4042663574219 84.25605773925781 170.5815582275391 89.67103576660156 169.8353118896484 95.33844757080078 C 169.0617828369141 101.2131118774414 169.4840850830078 107.1086120605469 171.0906066894531 112.8615188598633 C 171.203125 113.3143539428711 171.1527404785156 113.7721557617188 170.9486236572266 114.1510009765625 C 170.7427520751953 114.533088684082 170.3927307128906 114.8025207519531 169.9630279541016 114.9096603393555 C 169.8056488037109 114.9490356445312 169.6461029052734 114.9689865112305 169.4886016845703 114.9689865112305 Z" stroke="none"/>
          <path d="M 169.4886169433594 114.7189865112305 C 169.6256408691406 114.7189865112305 169.7647857666016 114.7015609741211 169.9025421142578 114.6670913696289 C 170.3646850585938 114.5518646240234 170.6068115234375 114.2583465576172 170.7285308837891 114.0324249267578 C 170.902587890625 113.7093505859375 170.9452209472656 113.3163223266602 170.8487854003906 112.925048828125 C 169.2341156005859 107.1408233642578 168.8096771240234 101.212646484375 169.5874481201172 95.30580139160156 C 170.3379364013672 89.60626983642578 172.1708984375 84.16072082519531 175.0354461669922 79.12042999267578 C 177.8947143554688 74.08943939208984 181.6388549804688 69.71306610107422 186.1638336181641 66.11285400390625 C 190.8408050537109 62.3917350769043 196.1496887207031 59.66806793212891 201.9430236816406 58.01750564575195 C 205.8913269042969 56.89257431030273 209.959228515625 56.32218551635742 214.0337219238281 56.32218551635742 C 218.8440551757812 56.32218551635742 223.6097564697266 57.1092414855957 228.1984405517578 58.66146850585938 C 232.7125549316406 60.18848037719727 236.9400787353516 62.41558837890625 240.7635650634766 65.28093719482422 C 244.6247253417969 68.17450714111328 247.96923828125 71.64161682128906 250.7042083740234 75.5859375 C 253.5331268310547 79.66573333740234 255.6485137939453 84.17240142822266 256.9916381835938 88.98074340820312 L 256.9952087402344 88.99430847167969 C 257.1461486816406 89.59965515136719 257.6700134277344 89.99079895019531 258.329833984375 89.99079895019531 C 258.4523010253906 89.99079895019531 258.5764465332031 89.97688293457031 258.6995544433594 89.94937133789062 L 258.7446899414062 89.93806457519531 C 259.5472412109375 89.73699188232422 260.0075073242188 88.92975616455078 259.8190612792969 88.05723571777344 C 258.3984375 82.93289184570312 256.1510620117188 78.13140106201172 253.1392974853516 73.78611755371094 C 250.2265777587891 69.58374786376953 246.6592864990234 65.8900146484375 242.5365142822266 62.80754852294922 C 238.4564208984375 59.75697326660156 233.9421997070312 57.38602828979492 229.1192321777344 55.76055908203125 C 224.2211456298828 54.10976028442383 219.1331481933594 53.27273559570312 213.99658203125 53.27273559570312 C 209.6742248535156 53.27273559570312 205.3584442138672 53.87187957763672 201.1684875488281 55.05369186401367 C 194.9555206298828 56.797119140625 189.2725067138672 59.70317459106445 184.2772979736328 63.69114685058594 C 179.4540100097656 67.5418701171875 175.4721221923828 72.23341369628906 172.4422607421875 77.63548278808594 C 169.42333984375 83.01801300048828 167.5021057128906 88.83451080322266 166.7318878173828 94.92340087890625 C 165.9347229003906 101.2253189086914 166.4118804931641 107.5452651977539 168.1500549316406 113.7077102661133 L 168.1539764404297 113.7224807739258 C 168.3049163818359 114.3278427124023 168.8287963867188 114.7190017700195 169.4886016845703 114.7189865112305 L 169.4886169433594 114.7189865112305 M 169.4886169433594 115.2189865112305 C 168.6405334472656 115.2190017700195 167.8850555419922 114.7106704711914 167.6688385009766 113.8434371948242 C 160.4723052978516 88.32936096191406 175.3882598876953 61.76856231689453 201.0334014892578 54.57229232788086 C 205.3532257080078 53.35383987426758 209.710205078125 52.77273178100586 213.99658203125 52.77273178100586 C 235.0266723632812 52.77273178100586 254.4354095458984 66.74299621582031 260.3045349121094 87.93684387207031 C 260.5664978027344 89.11419677734375 259.912109375 90.16104125976562 258.8661804199219 90.42308044433594 L 258.86474609375 90.42404174804688 C 257.8179016113281 90.68595886230469 256.7711181640625 90.16210174560547 256.5100708007812 89.11526489257812 C 251.0816192626953 69.68146514892578 233.3070526123047 56.82218551635742 214.0337219238281 56.82218551635742 C 210.0798187255859 56.82218551635742 206.0668487548828 57.36246109008789 202.0800170898438 58.49837493896484 C 178.6594085693359 65.17104339599609 164.7902221679688 89.37693023681641 171.3323059082031 112.7975616455078 C 171.5942535400391 113.8443984985352 171.0703735351562 114.8912124633789 170.0235137939453 115.1522369384766 C 169.8439025878906 115.1971817016602 169.6642608642578 115.2189865112305 169.4886169433594 115.2189865112305 Z" stroke="none" fill="#fff"/>
        </g>
        <g id="Path_2062" data-name="Path 2062" transform="translate(-233.592 -62.541)" fill="#00a1ed">
          <path d="M 259.0376586914062 116.6890258789062 C 258.3464965820312 116.6890716552734 257.7526550292969 116.2518615722656 257.4868774414062 115.5477752685547 L 257.4848327636719 115.5416564941406 C 257.175048828125 114.6166076660156 254.4592895507812 106.2148895263672 254.4924926757812 96.20046997070312 C 254.5122375488281 90.24726867675781 255.506103515625 84.91990661621094 257.4464721679688 80.36640167236328 C 259.8590393066406 74.70471954345703 263.7547302246094 70.22158813476562 269.0252685546875 67.04152679443359 L 270.9671020507812 65.89889526367188 L 283.4361877441406 110.4481506347656 C 283.5316772460938 111.1824417114258 283.01708984375 112.1159591674805 282.0883178710938 112.3698959350586 L 282.0501708984375 112.3793792724609 C 281.8930053710938 112.4187088012695 281.7334594726562 112.4386520385742 281.5759582519531 112.4386596679688 C 280.7975158691406 112.4386825561523 280.1784057617188 111.9731369018555 279.9987487792969 111.2526397705078 L 279.9978942871094 111.2490997314453 L 279.9969177246094 111.2455902099609 L 268.8749084472656 71.60061645507812 L 268.7759094238281 71.24774932861328 L 268.4834899902344 71.46868133544922 C 264.4267272949219 74.53377532958984 261.4851684570312 78.67244720458984 259.7405700683594 83.76969909667969 C 258.3438720703125 87.85050201416016 257.7071533203125 92.55339813232422 257.8480834960938 97.74775695800781 C 258.0843811035156 106.4560699462891 260.4111633300781 113.6088104248047 260.6757202148438 114.3957290649414 L 260.6777954101562 114.4019088745117 L 260.6791687011719 114.4060897827148 L 260.6807250976562 114.4102172851562 C 261.0193176269531 115.3133697509766 260.585693359375 116.2236328125 259.649658203125 116.5746154785156 C 259.4471740722656 116.650520324707 259.2412719726562 116.6890106201172 259.0376586914062 116.6890258789062 Z" stroke="none"/>
          <path d="M 259.0376281738281 116.4390258789062 L 259.0376281738281 116.4390258789062 C 259.211181640625 116.4390106201172 259.3875732421875 116.4058685302734 259.5618591308594 116.3405303955078 C 260.3622741699219 116.040397644043 260.734375 115.265495300293 260.4466552734375 114.4979782104492 L 260.4387512207031 114.4753875732422 C 260.1729736328125 113.6848373413086 257.83544921875 106.4992065429688 257.5982055664062 97.75453948974609 C 257.4564514160156 92.53026580810547 258.0976867675781 87.79785919189453 259.5040588378906 83.68875122070312 C 261.2651062011719 78.54345703125 264.2355041503906 74.36492156982422 268.3327941894531 71.26921844482422 L 268.9176330566406 70.82733917236328 L 280.2413330078125 111.1921463012695 C 280.3922729492188 111.7975158691406 280.9161682128906 112.1886825561523 281.575927734375 112.1886596679688 C 281.7130126953125 112.1886520385742 281.8521423339844 112.1712188720703 281.989501953125 112.136848449707 L 282.0262145996094 112.1276931762695 C 282.8191833496094 111.9089736938477 283.2622375488281 111.1222839355469 283.1903686523438 110.4974517822266 L 270.8139343261719 66.27911376953125 L 269.1524353027344 67.25680541992188 C 263.9287414550781 70.40910339355469 260.0677490234375 74.85272216796875 257.6764526367188 80.46440124511719 C 255.7492523193359 84.98702239990234 254.7621307373047 90.28167724609375 254.7424926757812 96.20130157470703 C 254.7094116210938 106.1756973266602 257.4134521484375 114.5412216186523 257.7218933105469 115.462272644043 L 257.7223815917969 115.4636993408203 C 257.9512023925781 116.0655975341797 258.4544677734375 116.4390563964844 259.0376281738281 116.4390258789062 M 259.0376586914062 116.9390258789062 C 258.2522277832031 116.9390716552734 257.5553894042969 116.4424667358398 257.251220703125 115.6313400268555 C 257.1207580566406 115.2388763427734 245.4759826660156 80.95833587646484 268.8961181640625 66.82747650146484 L 271.1203002929688 65.51869201660156 L 283.6815490722656 110.3972854614258 C 283.8120727539062 111.3136367797852 283.1576538085938 112.3604583740234 282.1108093261719 112.6224060058594 L 282.1108703613281 112.6219024658203 C 281.0640869140625 112.8838424682617 280.0172424316406 112.3599548339844 279.7561950683594 111.313117980957 L 268.6342163085938 71.66815185546875 C 250.9701538085938 85.01422882080078 260.7832641601562 113.9299468994141 260.9148254394531 114.3224563598633 C 261.3072814941406 115.3693313598633 260.7843017578125 116.416145324707 259.7374267578125 116.8087005615234 C 259.501708984375 116.8970565795898 259.2658996582031 116.9390106201172 259.0376586914062 116.9390258789062 Z" stroke="none" fill="#fff"/>
        </g>
        <g id="Path_2063" data-name="Path 2063" transform="translate(-169.782 -196.999)" fill="#00a1ed">
          <path d="M 171.6393127441406 257.7626647949219 C 170.7917938232422 254.4144897460938 171.2558441162109 250.9297637939453 172.9553375244141 247.9228973388672 C 174.6994476318359 244.8370971679688 177.5380401611328 242.6253356933594 180.9482269287109 241.6950531005859 C 182.1025543212891 241.3802337646484 183.2890625 241.2205963134766 184.4747924804688 241.2205963134766 C 187.3282928466797 241.2205963134766 190.1602172851562 242.1628570556641 192.4489288330078 243.8737640380859 C 194.7491760253906 245.5933227539062 196.3840789794922 247.9496307373047 197.1887817382812 250.7006072998047 L 193.8739929199219 251.615234375 C 193.2540588378906 249.6030426025391 192.0495147705078 247.8786926269531 190.3790283203125 246.6163330078125 C 188.6916198730469 245.3411865234375 186.6084594726562 244.6389312744141 184.5132751464844 244.6389312744141 C 183.6219024658203 244.6389312744141 182.7294158935547 244.76318359375 181.8606262207031 245.0082550048828 C 179.3233489990234 245.7239074707031 177.2141876220703 247.3684997558594 175.9216918945312 249.6390533447266 C 174.6658477783203 251.8452606201172 174.3240051269531 254.3960571289062 174.9499816894531 256.8491821289062 L 171.6393127441406 257.7626647949219 Z" stroke="none"/>
          <path d="M 171.8213500976562 257.4530944824219 L 174.6499481201172 256.6726379394531 C 174.0886993408203 254.2301177978516 174.4568939208984 251.7069702148438 175.7044372558594 249.5153961181641 C 177.0296325683594 247.1873779296875 179.1918487548828 245.5012512207031 181.7927551269531 244.7676391601562 C 182.6836547851562 244.516357421875 183.5989685058594 244.3889312744141 184.5132751464844 244.3889312744141 C 186.6625061035156 244.3889312744141 188.7992095947266 245.109130859375 190.5297393798828 246.4168701171875 C 192.1781463623047 247.6625213623047 193.3839874267578 249.3468627929688 194.0387573242188 251.3104248046875 L 196.8752136230469 250.5277862548828 C 196.0620880126953 247.9335174560547 194.487548828125 245.7098693847656 192.2992401123047 244.0740051269531 C 190.053466796875 242.3951721191406 187.2746887207031 241.4705963134766 184.4747924804688 241.4705963134766 C 183.3112945556641 241.4705963134766 182.1469116210938 241.6272735595703 181.0140380859375 241.9362335205078 C 177.6686859130859 242.8488311767578 174.8840179443359 245.0186157226562 173.1729736328125 248.0459136962891 C 171.5472564697266 250.9222412109375 171.0735931396484 254.243896484375 171.8213500976562 257.4530944824219 M 171.4618835449219 258.0709533691406 C 169.4996490478516 250.8744354248047 173.6860809326172 243.4169769287109 180.8824462890625 241.4538726806641 C 188.0771789550781 239.4916381835938 195.5346221923828 243.6780395507812 197.4976959228516 250.8744354248047 L 197.4976959228516 250.8747100830078 L 193.7037353515625 251.9215545654297 C 192.2644500732422 246.8187103271484 187.0309600830078 243.8095550537109 181.9284973144531 245.2488555908203 C 176.8258972167969 246.6880950927734 173.8165588378906 251.9215545654297 175.2558135986328 257.0241394042969 L 171.4618835449219 258.0709533691406 Z" stroke="none" fill="#fff"/>
        </g>
        <g id="Path_2064" data-name="Path 2064" transform="translate(-243.168 -176.824)" fill="#00a1ed">
          <path d="M 269.0400390625 232.8703155517578 C 268.2615661621094 232.8703308105469 267.6424560546875 232.40478515625 267.4627990722656 231.6842803955078 L 267.4621276855469 231.681640625 L 267.4613952636719 231.6790161132812 C 266.5283508300781 228.2569427490234 266.9730834960938 224.6763153076172 268.7136840820312 221.5967102050781 C 270.4577941894531 218.5108947753906 273.2964172363281 216.2991485595703 276.7066040039062 215.3688812255859 C 277.8612060546875 215.0540618896484 279.0480041503906 214.8944244384766 280.2339477539062 214.8944244384766 C 283.0879211425781 214.8944244384766 285.9201965332031 215.8366851806641 288.2090454101562 217.5475921630859 C 290.5709228515625 219.3130950927734 292.2314147949219 221.7501831054688 293.011962890625 224.5962982177734 C 293.1192626953125 225.5349273681641 292.51318359375 226.440185546875 291.6256408691406 226.6622924804688 L 291.5946655273438 226.6700592041016 C 291.447509765625 226.7044219970703 291.2985534667969 226.7218322753906 291.1514282226562 226.7218322753906 C 290.3729248046875 226.7218322753906 289.7538452148438 226.2563018798828 289.5741882324219 225.5358123779297 L 289.5732421875 225.5321044921875 L 289.5722045898438 225.5284271240234 C 288.975830078125 223.4140472412109 287.7429809570312 221.6030120849609 286.0069274902344 220.2911071777344 C 284.3195495605469 219.0159606933594 282.2363891601562 218.3137054443359 280.1412353515625 218.3137054443359 C 279.2498474121094 218.3137054443359 278.3573303222656 218.4379730224609 277.488525390625 218.6830444335938 C 274.951171875 219.3987121582031 272.8420104980469 221.0433044433594 271.549560546875 223.3138427734375 C 270.2528991699219 225.5917816162109 269.9306640625 228.2371063232422 270.6420593261719 230.7630310058594 C 270.7545166015625 231.2157897949219 270.7041320800781 231.6735382080078 270.5000305175781 232.0523376464844 C 270.2941589355469 232.4344329833984 269.9441528320312 232.703857421875 269.5144653320312 232.8110046386719 C 269.3570861816406 232.8503723144531 269.1975402832031 232.8703155517578 269.0400390625 232.8703155517578 Z" stroke="none"/>
          <path d="M 269.0400390625 232.6203155517578 C 269.1770935058594 232.6203155517578 269.3162231445312 232.6028900146484 269.4539794921875 232.5684204101562 C 269.9161071777344 232.4532012939453 270.1582336425781 232.1596832275391 270.2799682617188 231.9337615966797 C 270.4539489746094 231.6108093261719 270.4966125488281 231.2179870605469 270.4003295898438 230.8268890380859 C 269.6720275878906 228.2372283935547 270.0029296875 225.5255279541016 271.332275390625 223.190185546875 C 272.6574401855469 220.8621673583984 274.8196716308594 219.1760406494141 277.420654296875 218.4424285888672 C 278.3115539550781 218.1911315917969 279.2268981933594 218.0637054443359 280.1412353515625 218.0637054443359 C 282.2904663085938 218.0637054443359 284.4271240234375 218.7839050292969 286.1576538085938 220.0916442871094 C 287.9375915527344 221.4367065429688 289.2015380859375 223.2932586669922 289.8128356933594 225.4605712890625 L 289.8167419433594 225.4753265380859 C 289.9677124023438 226.0806732177734 290.4915771484375 226.4718322753906 291.1514282226562 226.4718322753906 C 291.2789001464844 226.4718322753906 291.408203125 226.4567565917969 291.5362243652344 226.4269714355469 L 291.5649719238281 226.4197845458984 C 292.3270874023438 226.2290649414062 292.8489074707031 225.4528961181641 292.7655944824219 224.6432495117188 C 291.9977416992188 221.8593902587891 290.3710327148438 219.4758148193359 288.0593872070312 217.7478332519531 C 285.8134460449219 216.0690155029297 283.0343322753906 215.1444244384766 280.2339477539062 215.1444244384766 C 279.0702209472656 215.1444244384766 277.9055480957031 215.3011016845703 276.7723999023438 215.6100616455078 C 273.4270324707031 216.5226440429688 270.6423645019531 218.6924285888672 268.9313354492188 221.7197113037109 C 267.2233581542969 224.7415924072266 266.7869873046875 228.2551727294922 267.7026062011719 231.6132507324219 L 267.7053527832031 231.6237945556641 C 267.8563232421875 232.2291717529297 268.3802185058594 232.6203308105469 269.0400390625 232.6203155517578 L 269.0400390625 232.6203155517578 M 269.0400695800781 233.1203155517578 C 268.1919555664062 233.1203308105469 267.4364624023438 232.6120300292969 267.22021484375 231.7447814941406 C 265.2579956054688 224.5482482910156 269.4444580078125 217.0907745361328 276.6408081054688 215.1277008056641 C 283.8374328613281 213.1653900146484 291.2948913574219 217.3518829345703 293.2579956054688 224.5482482910156 C 293.3875122070312 225.5960083007812 292.7332153320312 226.6428527832031 291.6863403320312 226.9048156738281 L 291.6863403320312 226.9050750732422 C 290.6395263671875 227.1669769287109 289.5926513671875 226.6431732177734 289.3316040039062 225.5962982177734 C 287.892333984375 220.4934844970703 282.6587829589844 217.4844055175781 277.556396484375 218.9236450195312 C 272.45361328125 220.3629302978516 269.4445190429688 225.5962982177734 270.8837280273438 230.6988830566406 C 271.1456909179688 231.7457275390625 270.6217651367188 232.7925567626953 269.574951171875 233.0535736083984 C 269.3953552246094 233.0985107421875 269.2156982421875 233.1203155517578 269.0400695800781 233.1203155517578 Z" stroke="none" fill="#fff"/>
        </g>
        <g id="Path_2065" data-name="Path 2065" transform="translate(-276.077 -65.545)" fill="#00a1ed">
          <path d="M 324.0609741210938 115.4425430297852 C 323.2825317382812 115.4425659179688 322.6634826660156 114.9770355224609 322.4838562011719 114.2565307617188 L 322.4830017089844 114.2530746459961 L 322.4820251464844 114.2496337890625 L 310.0095825195312 69.68840026855469 L 312.2965087890625 69.68840026855469 C 318.4464416503906 69.71775054931641 324.1002502441406 71.56467437744141 329.0997009277344 75.17784118652344 C 333.1201782226562 78.08349609375 336.7318420410156 82.13242340087891 339.8343811035156 87.21218109130859 C 341.3745422363281 89.73385620117188 343.6140441894531 93.89130401611328 345.5366516113281 99.37713623046875 C 346.6798400878906 102.6389770507812 347.2043151855469 104.9467086791992 347.242919921875 105.1743545532227 L 347.242919921875 105.1888961791992 L 347.2503967285156 105.2187728881836 C 347.3567810058594 105.6439361572266 347.2654418945312 106.0946350097656 346.9932556152344 106.4878311157227 C 346.7271423339844 106.8722457885742 346.3150329589844 107.1574096679688 345.8626098632812 107.2702102661133 C 345.7301330566406 107.303352355957 345.5954284667969 107.3201446533203 345.4620666503906 107.3201446533203 C 344.6651916503906 107.3201751708984 344.0022888183594 106.7449798583984 343.8125 105.8888549804688 L 343.8058471679688 105.8589248657227 L 343.7995910644531 105.8463516235352 C 343.7896118164062 105.8119277954102 343.7646484375 105.7149047851562 343.7383728027344 105.6127853393555 C 342.2363891601562 99.77363586425781 339.8187255859375 93.91036987304688 336.9307250976562 89.10309600830078 C 334.3642578125 84.83103179931641 331.4157104492188 81.34361267089844 328.1669311523438 78.73769378662109 C 324.1603393554688 75.52391052246094 319.6663818359375 73.63211059570312 314.809814453125 73.11486053466797 L 314.4429626464844 73.07579040527344 L 314.5426025390625 73.43098449707031 L 325.6645812988281 113.0759201049805 C 325.8356628417969 113.6479339599609 325.7945251464844 114.1973037719727 325.5499877929688 114.6269302368164 C 325.3349609375 115.0046997070312 324.9745788574219 115.273307800293 324.5352172851562 115.3833312988281 L 324.5351867675781 115.3832626342773 C 324.3780212402344 115.4225921630859 324.2184753417969 115.4425354003906 324.0609741210938 115.4425430297852 Z" stroke="none"/>
          <path d="M 324.0609741210938 115.1925430297852 L 324.0609436035156 115.1925430297852 C 324.1980285644531 115.1925354003906 324.337158203125 115.1751022338867 324.4745178222656 115.1407318115234 L 324.4745483398438 115.1408004760742 C 324.8470153808594 115.0475158691406 325.1517944335938 114.8211135864258 325.3327026367188 114.5032653808594 C 325.5462036132812 114.1281814575195 325.5785522460938 113.6608200073242 325.42626953125 113.1517028808594 L 325.4238586425781 113.1434555053711 L 314.1026306152344 72.78812408447266 L 314.8362731933594 72.86626434326172 C 319.7411499023438 73.388671875 324.2788696289062 75.29849243164062 328.3233642578125 78.54267120361328 C 331.5952453613281 81.16715240478516 334.5632934570312 84.67687225341797 337.14501953125 88.97434997558594 C 340.0451049804688 93.80175018310547 342.47265625 99.68861389160156 343.9804992675781 105.5505065917969 C 344.0021057128906 105.6344451904297 344.0227355957031 105.7146911621094 344.0340270996094 105.7562561035156 L 344.0433044433594 105.7748947143555 L 344.0565795898438 105.8347549438477 C 344.2203674316406 106.5736999511719 344.7851867675781 107.0701599121094 345.4620666503906 107.0701446533203 C 345.5750122070312 107.0701446533203 345.6892700195312 107.0558700561523 345.8021240234375 107.0276336669922 C 346.1964721679688 106.9293212890625 346.5556640625 106.6807098388672 346.7876892089844 106.3455429077148 C 347.018310546875 106.0123825073242 347.0965270996094 105.6337661743164 347.0078735351562 105.2794418334961 L 346.992919921875 105.2196960449219 L 346.992919921875 105.2000503540039 C 346.888671875 104.7049255371094 344.9424438476562 96.02504730224609 339.5775756835938 87.27146148681641 C 336.49267578125 82.23799133300781 332.9058532714844 78.22841644287109 328.916748046875 75.35410308837891 C 323.9696350097656 71.78953552246094 318.3769836425781 69.96743011474609 312.2965087890625 69.93840026855469 L 310.3391723632812 69.93840026855469 L 322.7264404296875 114.1960601806641 C 322.8773498535156 114.8014144897461 323.4011840820312 115.1925659179688 324.0609741210938 115.1925430297852 M 324.0609741210938 115.6925354003906 C 323.2129516601562 115.6925659179688 322.4574890136719 115.1842422485352 322.2412719726562 114.3170166015625 L 309.6799926757812 69.43840026855469 L 312.2965087890625 69.43840026855469 C 339.6424560546875 69.56891632080078 347.492919921875 104.8964157104492 347.492919921875 105.1580963134766 C 347.7548217773438 106.2049407958984 346.969970703125 107.2517700195312 345.923095703125 107.5127792358398 C 344.8761901855469 107.7747268676758 343.8294372558594 107.1203155517578 343.5684204101562 105.9429626464844 C 343.4379272460938 105.6810302734375 336.8958129882812 75.71858978271484 314.7833251953125 73.36345672607422 L 325.9052734375 113.0083923339844 C 326.2968139648438 114.3171768188477 325.6424560546875 115.364013671875 324.5955810546875 115.6259307861328 L 324.5958862304688 115.6257858276367 C 324.4162902832031 115.6707229614258 324.2366333007812 115.6925354003906 324.0609741210938 115.6925354003906 Z" stroke="none" fill="#fff"/>
        </g>
        <g id="Path_2066" data-name="Path 2066" transform="translate(-389.081 -136.054)" fill="#00a1ed">
          <path d="M 459.4400024414062 179.6703491210938 C 458.6615600585938 179.6703643798828 458.04248046875 179.2048187255859 457.8628540039062 178.4842987060547 L 457.8621826171875 178.4816436767578 L 457.8614501953125 178.47900390625 C 456.9283752441406 175.0569458007812 457.3731079101562 171.4763336181641 459.1137084960938 168.396728515625 C 460.8578186035156 165.3108978271484 463.6964416503906 163.0991363525391 467.1066589355469 162.1688842773438 C 468.2612609863281 161.8540649414062 469.4480285644531 161.6944274902344 470.6339721679688 161.6944274902344 C 473.4879150390625 161.6944274902344 476.3201904296875 162.6366882324219 478.6090393066406 164.3476104736328 C 480.9708862304688 166.1131134033203 482.63134765625 168.5500793457031 483.4118347167969 171.3961944580078 C 483.518310546875 172.3348846435547 482.9123229980469 173.240234375 482.0256042480469 173.4622955322266 L 481.9920043945312 173.470703125 C 481.8457336425781 173.5046539306641 481.6976928710938 173.5218658447266 481.5514526367188 173.5218658447266 C 480.7729797363281 173.5218658447266 480.1539306640625 173.0563354492188 479.9743041992188 172.3358459472656 L 479.9733581542969 172.3321380615234 L 479.9723205566406 172.3284606933594 C 479.3759155273438 170.2140655517578 478.1430053710938 168.4030303955078 476.4069213867188 167.0911102294922 C 474.719482421875 165.8159637451172 472.6362915039062 165.1137084960938 470.5411376953125 165.1137084960938 C 469.6497802734375 165.1137084960938 468.7572937011719 165.2379608154297 467.8885192871094 165.4830169677734 C 465.3511657714844 166.1987152099609 463.2420043945312 167.8433227539062 461.9495544433594 170.1138763427734 C 460.6528625488281 172.3918151855469 460.3305969238281 175.0370788574219 461.0420532226562 177.56298828125 C 461.154541015625 178.0157623291016 461.1041564941406 178.4735565185547 460.9000549316406 178.8523559570312 C 460.6942138671875 179.2344512939453 460.3441772460938 179.5038757324219 459.9144592285156 179.6110076904297 C 459.757080078125 179.650390625 459.5975036621094 179.6703338623047 459.4400024414062 179.6703491210938 Z" stroke="none"/>
          <path d="M 459.4400024414062 179.4203491210938 L 459.4399719238281 179.4203491210938 C 459.5770568847656 179.4203338623047 459.7162170410156 179.4029083251953 459.85400390625 179.3684387207031 C 460.3161315917969 179.2532043457031 460.5582580566406 178.959716796875 460.6799621582031 178.7337799072266 C 460.8539733886719 178.4108428955078 460.8966369628906 178.0180206298828 460.8003234863281 177.6269226074219 C 460.072021484375 175.0372924804688 460.4028930664062 172.3255767822266 461.7322692871094 169.9902038574219 C 463.0574645996094 167.6621856689453 465.2196655273438 165.9760589599609 467.8206481933594 165.2424011230469 C 468.7114868164062 164.9911193847656 469.6268005371094 164.8637084960938 470.5411376953125 164.8637084960938 C 472.6903686523438 164.8637084960938 474.8270568847656 165.5839080810547 476.5576171875 166.8916473388672 C 478.3375854492188 168.2367248535156 479.6015930175781 170.0932769775391 480.2129516601562 172.2605895996094 L 480.2168579101562 172.2753753662109 C 480.3677978515625 172.8807220458984 480.8916320800781 173.2718658447266 481.5514526367188 173.2718658447266 C 481.6781311035156 173.2718658447266 481.8065795898438 173.2569580078125 481.9337768554688 173.2275695800781 L 481.9648742675781 173.2197875976562 C 482.7262878417969 173.0290985107422 483.2481079101562 172.2528686523438 483.1654663085938 171.4430541992188 C 482.3975830078125 168.659423828125 480.7708740234375 166.2757263183594 478.4593505859375 164.5478363037109 C 476.2134399414062 162.8690032958984 473.434326171875 161.9444274902344 470.6339721679688 161.9444274902344 C 469.4702453613281 161.9444274902344 468.3056030273438 162.1010894775391 467.1724548339844 162.4100646972656 C 463.8270874023438 163.3226470947266 461.0423889160156 165.492431640625 459.3313598632812 168.5197296142578 C 457.6233825683594 171.5415954589844 457.1870422363281 175.05517578125 458.1026611328125 178.4132385253906 L 458.1054077148438 178.4238128662109 C 458.25634765625 179.0292053222656 458.7802124023438 179.4203643798828 459.4400024414062 179.4203491210938 M 459.4400024414062 179.9203338623047 C 458.5919189453125 179.9203643798828 457.8365173339844 179.4120483398438 457.6202697753906 178.5447692871094 C 455.6580200195312 171.3482818603516 459.8444519042969 163.8907775878906 467.0408630371094 161.9276885986328 C 474.2373962402344 159.9654235839844 481.6948852539062 164.1518859863281 483.6579284667969 171.3482818603516 C 483.7865905761719 172.3960266113281 483.1322326660156 173.44287109375 482.0863342285156 173.7048034667969 L 482.0863342285156 173.7051086425781 C 481.0394592285156 173.9669952392578 479.9927062988281 173.4431457519531 479.7317199707031 172.3963317871094 C 478.2923583984375 167.2935028076172 473.05908203125 164.284423828125 467.9563903808594 165.7236175537109 C 462.8536682128906 167.1629486083984 459.8444519042969 172.3963317871094 461.2837219238281 177.4989013671875 C 461.5457153320312 178.5457611083984 461.0217895507812 179.5925903320312 459.9749450683594 179.8535766601562 C 459.7953491210938 179.8985290527344 459.6156616210938 179.9203338623047 459.4400024414062 179.9203338623047 Z" stroke="none" fill="#fff"/>
        </g>
        <g id="Path_2067" data-name="Path 2067" transform="translate(-316.125 -156.653)" fill="#00a1ed">
          <path d="M 364.2400207519531 206.5503387451172 C 363.4615478515625 206.5503540039062 362.8424682617188 206.0848083496094 362.6628723144531 205.3642883300781 L 362.6622009277344 205.3616485595703 L 362.6614685058594 205.3589935302734 C 361.7283935546875 201.9369659423828 362.1731262207031 198.3563385009766 363.9137268066406 195.2767333984375 C 365.6578369140625 192.19091796875 368.4964294433594 189.9791564941406 371.9066162109375 189.0488739013672 C 373.0612182617188 188.7340545654297 374.2479858398438 188.5744171142578 375.4339294433594 188.5744171142578 C 378.2879028320312 188.5744171142578 381.1202087402344 189.5166778564453 383.4090576171875 191.2276000976562 C 385.771484375 192.9935455322266 387.4322204589844 195.4313354492188 388.2124938964844 198.2783508300781 C 388.3197021484375 199.1006164550781 387.7071533203125 200.0043487548828 386.8099975585938 200.346435546875 C 386.6578674316406 200.3832092285156 386.5036926269531 200.40185546875 386.3514404296875 200.40185546875 C 385.5729675292969 200.40185546875 384.9539184570312 199.9363098144531 384.7742919921875 199.2158050537109 L 384.7733459472656 199.2120971679688 L 384.7723083496094 199.2084197998047 C 384.1759338378906 197.0940551757812 382.9430236816406 195.2830200195312 381.2069702148438 193.9711151123047 C 379.51953125 192.6959686279297 377.4363708496094 191.9937286376953 375.3411865234375 191.9937286376953 C 374.4498291015625 191.9937286376953 373.5573425292969 192.1179656982422 372.6885375976562 192.363037109375 C 370.1511535644531 193.0787200927734 368.0419921875 194.7233276367188 366.7495422363281 196.9938659667969 C 365.452880859375 199.2717742919922 365.1306457519531 201.9171142578125 365.842041015625 204.4430694580078 C 365.9544982910156 204.8958282470703 365.9041442871094 205.3535919189453 365.7000427246094 205.7323455810547 C 365.4942016601562 206.1144409179688 365.1441650390625 206.3838653564453 364.7144470214844 206.4910125732422 C 364.5570678710938 206.5303802490234 364.3975219726562 206.5503387451172 364.2400207519531 206.5503387451172 Z" stroke="none"/>
          <path d="M 364.2400512695312 206.3003387451172 C 364.3770751953125 206.3003387451172 364.5162048339844 206.2828979492188 364.6539916992188 206.2484283447266 C 365.1161499023438 206.1331939697266 365.3582458496094 205.8397064208984 365.47998046875 205.61376953125 C 365.6539306640625 205.2908477783203 365.6965942382812 204.8980255126953 365.6003112792969 204.5069274902344 C 364.8720092773438 201.9172515869141 365.2029113769531 199.2055511474609 366.5322570800781 196.8701934814453 C 367.857421875 194.5421752929688 370.0196533203125 192.8560638427734 372.6206665039062 192.1224212646484 C 373.5115661621094 191.8711242675781 374.4268798828125 191.7437286376953 375.3411865234375 191.7437286376953 C 377.4904174804688 191.7437286376953 379.6271362304688 192.4639282226562 381.357666015625 193.7716522216797 C 383.1376342773438 195.1167144775391 384.401611328125 196.9732513427734 385.012939453125 199.1405487060547 L 385.016845703125 199.1553344726562 C 385.1677856445312 199.7606964111328 385.691650390625 200.15185546875 386.3514404296875 200.15185546875 C 386.4787902832031 200.15185546875 386.6079406738281 200.1367950439453 386.7358093261719 200.1070861816406 C 387.502197265625 199.8073120117188 388.0465698242188 199.0191345214844 387.9665832519531 198.3269805908203 C 387.1991577148438 195.5415649414062 385.572021484375 193.1565551757812 383.2593688964844 191.4278411865234 C 381.0134582519531 189.7490081787109 378.2343139648438 188.8244171142578 375.4339294433594 188.8244171142578 C 374.2701721191406 188.8244171142578 373.1055603027344 188.9810943603516 371.972412109375 189.2900543212891 C 368.6270751953125 190.20263671875 365.8424072265625 192.3724365234375 364.1313781738281 195.3997344970703 C 362.4234008789062 198.4216156005859 361.987060546875 201.9351959228516 362.9026794433594 205.2932281494141 L 362.9054260253906 205.3038177490234 C 363.0563354492188 205.9091949462891 363.5802001953125 206.3003540039062 364.2400207519531 206.3003387451172 L 364.2400512695312 206.3003387451172 M 364.2400207519531 206.8003387451172 C 363.3919677734375 206.8003540039062 362.636474609375 206.2920227050781 362.4202880859375 205.4247589111328 C 360.4580383300781 198.2282867431641 364.6445007324219 190.7707977294922 371.8408203125 188.8076782226562 C 379.0374755859375 186.8454437255859 386.4949035644531 191.0318908691406 388.4579772949219 198.2282867431641 C 388.5875549316406 199.1455230712891 387.9331359863281 200.1923370361328 386.8863525390625 200.5848388671875 L 386.8863525390625 200.5850982666016 C 385.8395690917969 200.8470458984375 384.7926940917969 200.3231353759766 384.5317077636719 199.2762908935547 C 383.0923461914062 194.1735229492188 377.8589172363281 191.1643524169922 372.7564086914062 192.6036376953125 C 367.6535949707031 194.0429534912109 364.6445007324219 199.2762908935547 366.0837097167969 204.3789215087891 C 366.3456726074219 205.4257507324219 365.8218383789062 206.4725646972656 364.7749328613281 206.7335815429688 C 364.5953369140625 206.7785186767578 364.4156799316406 206.8003234863281 364.2400207519531 206.8003387451172 Z" stroke="none" fill="#fff"/>
        </g>
      </g>
      <path id="Path_2058" data-name="Path 2058" d="M189.69,399.177a1.968,1.968,0,0,1-1.439-.523,1.9,1.9,0,0,1,0-2.748c3.925-3.925,5.757-7.458,5.365-9.813a4.222,4.222,0,0,0-1.832-2.617l-26.3.916a1.9,1.9,0,1,1-.131-3.794l26.823-.916a2.234,2.234,0,0,1,.916.131,8.073,8.073,0,0,1,4.318,5.626c.654,3.794-1.439,8.374-6.411,13.346a3.113,3.113,0,0,1-1.31.392Z" transform="translate(-69.29 -250.529)" fill="#152049" stroke="#fff" stroke-width="1.4"/>
      <path id="Path_2059" data-name="Path 2059" d="M223.376,455.012a1.519,1.519,0,0,1-1.309-.523,1.9,1.9,0,0,1,0-2.748l12.43-12.953a1.943,1.943,0,0,1,2.748,2.748l-12.43,12.953a1.97,1.97,0,0,1-1.439.523Z" transform="translate(-113.705 -295.373)" fill="#152049" stroke="#fff" stroke-width="1.4"/>
      <path id="Path_2060" data-name="Path 2060" d="M455.459,454.581a2.1,2.1,0,0,1-1.439-.654l-12.43-12.953a1.943,1.943,0,0,1,2.748-2.748l12.43,12.953a1.9,1.9,0,0,1,0,2.748,1.592,1.592,0,0,1-1.309.654Z" transform="translate(-281.937 -294.942)" fill="#152049" stroke="#fff" stroke-width="1.4"/>
      <path id="Path_2057" data-name="Path 2057" d="M218.211,360.876H143.369a3.9,3.9,0,0,1-3.4-1.962L124.92,333.007a3.928,3.928,0,0,1,6.8-3.925l13.869,23.813H218.21a3.856,3.856,0,0,1,3.925,3.925,3.966,3.966,0,0,1-3.925,4.056Z" transform="translate(-39.324 -210.264)" fill="#152049" stroke="#fff" stroke-width="3"/>
    </g>
  </g>
</svg>
