<svg xmlns="http://www.w3.org/2000/svg" width="150" height="150" viewBox="0 0 150 150">
  <g id="ico_portal_convenios" transform="translate(-726 -1258)">
    <g id="Rectangle_17140" data-name="Rectangle 17140" transform="translate(726 1258)" fill="#fff" stroke="#fff" stroke-width="1">
      <rect width="150" height="150" stroke="none"/>
      <rect x="0.5" y="0.5" width="149" height="149" fill="none"/>
    </g>
    <g id="Group_9194" data-name="Group 9194" transform="translate(711.422 1242.779)">
      <path id="Path_6122" data-name="Path 6122" d="M106.632,50.845H86.813V63.387h19.818Zm-5.5,1.675-4.414,3.523L92.309,52.52Zm3.82,9.191H88.488V52.52h1.137l7.1,5.667,7.1-5.667h1.136Z" transform="translate(19.531 4.44)" fill="#0a91d4"/>
      <path id="Path_6123" data-name="Path 6123" d="M66.719,106.922a13.787,13.787,0,0,0,3.989,8.383,1.452,1.452,0,0,0,1.021.421,1.42,1.42,0,0,0,.435-.068,1.444,1.444,0,0,0,.988-1.128,4.4,4.4,0,0,1,4.333-3.647h7.22a4.376,4.376,0,0,1,4.1,2.819,1.447,1.447,0,0,0,2.481.379,13.8,13.8,0,0,0-9.4-22.319,13.782,13.782,0,0,0-11.66,4.473A13.715,13.715,0,0,0,66.719,106.922Zm13.75,1.87a5.234,5.234,0,1,1,5.235-5.235A5.241,5.241,0,0,1,80.469,108.793Zm-8.1-10.615a10.945,10.945,0,0,1,8.1-3.6c.353,0,.733.02,1.13.059a10.907,10.907,0,0,1,8.592,15.835,7.214,7.214,0,0,0-4.495-2.412,6.909,6.909,0,1,0-10.25.226,7.275,7.275,0,0,0-4.162,3.158,10.939,10.939,0,0,1,1.084-13.268Z" transform="translate(12.428 18.827)" fill="#0a91d4"/>
      <path id="Path_6124" data-name="Path 6124" d="M41.959,93.733a1.447,1.447,0,0,0,2.464-1.03V91.432A8.756,8.756,0,0,1,52.2,82.723l.051-.005a8.691,8.691,0,0,1,.94-.054H65.775a8.78,8.78,0,0,1,8.769,8.768V92.7a1.448,1.448,0,0,0,.887,1.336,1.474,1.474,0,0,0,.558.111,1.449,1.449,0,0,0,1.018-.416,24.952,24.952,0,1,0-35.049,0ZM60.813,79.77H58.147a9.612,9.612,0,1,1,2.667,0ZM59.481,53.939A22.082,22.082,0,0,1,81.539,76,21.848,21.848,0,0,1,77.2,89.11,11.682,11.682,0,0,0,66.9,79.828a12.123,12.123,0,1,0-14.829,0c-.038,0-.073.005-.112.011a1.1,1.1,0,0,0-.176.02,11.647,11.647,0,0,0-10.021,9.251A21.855,21.855,0,0,1,37.423,76,22.082,22.082,0,0,1,59.481,53.939Z" transform="translate(1.115 4.511)" fill="#0a91d4"/>
      <path id="Path_6125" data-name="Path 6125" d="M99.009,78.626a18.7,18.7,0,1,0-18.693-18.7A18.717,18.717,0,0,0,99.009,78.626Zm0-34.5a15.8,15.8,0,1,1-15.8,15.8A15.819,15.819,0,0,1,99.009,44.129Z" transform="translate(17.243 1.055)" fill="#0a91d4"/>
      <path id="Path_6126" data-name="Path 6126" d="M31.365,80.507a29.2,29.2,0,0,0,41.809,26.371l5.715,6.361a17.868,17.868,0,0,0,12.2,28.875,18.119,18.119,0,0,0,1.813.088,17.868,17.868,0,1,0-8.7-33.446L79.1,103.088A29.34,29.34,0,0,0,89.835,80.507,29,29,0,0,0,89,73.631l6.932-2.453a22.729,22.729,0,1,0-2.422-10.193A22.418,22.418,0,0,0,93.8,64.57l-7.244,2.558A29.212,29.212,0,0,0,31.365,80.507ZM60.6,54.167A26.449,26.449,0,0,1,84.511,69.528a1.444,1.444,0,0,0,1.794.757l9.631-3.4a1.448,1.448,0,0,0,.93-1.673A19.849,19.849,0,1,1,98.016,68.8a1.449,1.449,0,0,0-1.812-.791l-9.431,3.335a1.449,1.449,0,0,0-.907,1.771,26.172,26.172,0,0,1-9.735,28.614,1.443,1.443,0,0,0-.222,2.132l6.932,7.711a1.447,1.447,0,0,0,1.865.246,15.173,15.173,0,0,1,9.716-2.389A14.977,14.977,0,0,1,92.9,139.31a15.27,15.27,0,0,1-1.527-.074A14.977,14.977,0,0,1,81.74,114.34c.042-.037.13-.127.168-.169a1.446,1.446,0,0,0-.014-1.917l-7.308-8.131a1.45,1.45,0,0,0-1.751-.312A25.958,25.958,0,0,1,60.6,106.852a26.342,26.342,0,0,1,0-52.685Z" transform="translate(0 0)" fill="#192544"/>
    </g>
  </g>
</svg>
