<svg xmlns="http://www.w3.org/2000/svg" width="150" height="150" viewBox="0 0 150 150">
  <g id="ico_portal_hbd" transform="translate(-66 -1258)">
    <g id="Rectangle_17134" data-name="Rectangle 17134" transform="translate(66 1258)" fill="#fff" stroke="#fff" stroke-width="1">
      <rect width="150" height="150" stroke="none"/>
      <rect x="0.5" y="0.5" width="149" height="149" fill="none"/>
    </g>
    <g id="noun-celebrate-5305862" transform="translate(14.188 1266.344)">
      <path id="Path_2099" data-name="Path 2099" d="M274.04,47.578a1.246,1.246,0,0,0,.413.064,1.392,1.392,0,0,0,1.319-.969,4.269,4.269,0,0,1,1.35-.366c1.192-.206,3-.508,3.528-2.272.541-1.748-.794-3.019-1.669-3.846a6.918,6.918,0,0,1-.938-1,4.269,4.269,0,0,1,1.35-.366c1.192-.206,3-.508,3.528-2.256.541-1.748-.794-3.019-1.669-3.846a7.158,7.158,0,0,1-.937-.969,3.92,3.92,0,0,1,1.35-.35c1.192-.206,3-.508,3.528-2.256a1.392,1.392,0,0,0-2.654-.842,3.92,3.92,0,0,1-1.35.35c-1.192.206-3,.508-3.528,2.256-.541,1.748.794,3.019,1.669,3.846a6.986,6.986,0,0,1,.938.985,4.269,4.269,0,0,1-1.35.366c-1.192.206-3,.508-3.528,2.256s.794,3.019,1.669,3.846a6.915,6.915,0,0,1,.938,1,4.269,4.269,0,0,1-1.35.366c-1.192.206-3,.508-3.528,2.256a1.405,1.405,0,0,0,.921,1.747Z" transform="translate(-157.318 -11.046)" fill="#00a1ed"/>
      <path id="Path_2100" data-name="Path 2100" d="M509.146,184.355a1.368,1.368,0,0,0-1.557-1.176,4.447,4.447,0,0,1-.906-1.081c-.683-1-1.716-2.511-3.56-2.256-1.827.255-2.4,2-2.781,3.146a6.457,6.457,0,0,1-.508,1.287,4.447,4.447,0,0,1-.906-1.081c-.683-1-1.748-2.511-3.56-2.256a1.4,1.4,0,0,0-1.192,1.573,1.368,1.368,0,0,0,1.557,1.176,4.449,4.449,0,0,1,.906,1.08c.636.922,1.573,2.288,3.146,2.288a4.064,4.064,0,0,0,.413-.031c1.827-.255,2.4-2,2.781-3.146a6.457,6.457,0,0,1,.508-1.287,4.448,4.448,0,0,1,.906,1.08c.683,1,1.748,2.511,3.56,2.256a1.4,1.4,0,0,0,1.192-1.574Z" transform="translate(-337.014 -134.968)" fill="#00a1ed"/>
      <path id="Path_2101" data-name="Path 2101" d="M512,283.5l-1.525,1.525a1.4,1.4,0,0,0,.985,2.383,1.348,1.348,0,0,0,.985-.413l1.525-1.525A1.393,1.393,0,1,0,512,283.5Z" transform="translate(-349.943 -218.906)" fill="#00a1ed"/>
      <path id="Path_2102" data-name="Path 2102" d="M482.131,313.392l-1.525,1.51a1.4,1.4,0,0,0,.985,2.384,1.347,1.347,0,0,0,.985-.413l1.525-1.525a1.388,1.388,0,1,0-1.971-1.955Z" transform="translate(-325.667 -243.189)" fill="#00a1ed"/>
      <path id="Path_2103" data-name="Path 2103" d="M512.441,313.45a1.393,1.393,0,1,0-1.97,1.97L512,316.946a1.412,1.412,0,0,0,.985.413,1.348,1.348,0,0,0,.985-.413,1.4,1.4,0,0,0,0-1.97Z" transform="translate(-349.939 -243.248)" fill="#00a1ed"/>
      <path id="Path_2104" data-name="Path 2104" d="M482.581,283.5a1.393,1.393,0,1,0-1.97,1.97L482.136,287a1.412,1.412,0,0,0,.985.413,1.348,1.348,0,0,0,.985-.413,1.4,1.4,0,0,0,0-1.97Z" transform="translate(-325.671 -218.906)" fill="#00a1ed"/>
      <path id="Path_2105" data-name="Path 2105" d="M454.1,78.09a1.411,1.411,0,0,0,.985-.413l1.525-1.525a1.393,1.393,0,0,0-1.97-1.97l-1.525,1.525a1.4,1.4,0,0,0,0,1.97,1.384,1.384,0,0,0,.985.413Z" transform="translate(-303.322 -48.788)" fill="#00a1ed"/>
      <path id="Path_2106" data-name="Path 2106" d="M425.221,107.541l1.525-1.525a1.393,1.393,0,1,0-1.97-1.97l-1.525,1.525a1.4,1.4,0,0,0,.985,2.383,1.441,1.441,0,0,0,.985-.413Z" transform="translate(-279.053 -73.06)" fill="#00a1ed"/>
      <path id="Path_2107" data-name="Path 2107" d="M454.554,107.541a1.412,1.412,0,0,0,.985.413,1.348,1.348,0,0,0,.985-.413,1.4,1.4,0,0,0,0-1.97L455,104.046a1.393,1.393,0,0,0-1.97,1.97Z" transform="translate(-303.255 -73.06)" fill="#00a1ed"/>
      <path id="Path_2108" data-name="Path 2108" d="M423.25,76.238l1.525,1.525a1.412,1.412,0,0,0,.985.413,1.347,1.347,0,0,0,.985-.413,1.4,1.4,0,0,0,0-1.97l-1.525-1.525a1.393,1.393,0,0,0-1.971,1.97Z" transform="translate(-279.053 -48.858)" fill="#00a1ed"/>
      <path id="Path_2109" data-name="Path 2109" d="M408.281,149.716a1.367,1.367,0,0,0-.334-1.43,1.433,1.433,0,0,0-1.43-.334l-3.75,1.271-3.163-2.367a1.391,1.391,0,0,0-2.225,1.128l.048,3.957L394.2,154.23a1.391,1.391,0,0,0,.381,2.462l3.782,1.176,1.176,3.782a1.374,1.374,0,0,0,1.112.953,1.035,1.035,0,0,0,.222.016,1.385,1.385,0,0,0,1.128-.588l2.288-3.225,3.958.048a1.327,1.327,0,0,0,1.255-.763,1.389,1.389,0,0,0-.127-1.462l-2.367-3.163Zm-4.687,6.293a1.566,1.566,0,0,0-1.16.588l-1.08,1.525-.556-1.78a1.407,1.407,0,0,0-.922-.922l-1.78-.556,1.525-1.081a1.437,1.437,0,0,0,.588-1.144l-.016-1.875,1.494,1.112a1.4,1.4,0,0,0,1.271.206l1.764-.6-.6,1.764a1.4,1.4,0,0,0,.206,1.271l1.112,1.494Z" transform="translate(-255.297 -107.957)" fill="#00a1ed"/>
      <path id="Path_2110" data-name="Path 2110" d="M165.966,109.152a26.091,26.091,0,0,0-23.455,6.468c-1.859-2.13-3.861-4.274-5.991-6.4-1.573-1.573-3.146-3.067-4.719-4.5-.636.683-1.3,1.319-2,1.939q2.383,2.145,4.767,4.529c2.145,2.145,4.163,4.306,6.022,6.435a25.891,25.891,0,0,0-5.164,9.438c-2.686-2.225-5.61-4.863-8.74-7.993s-5.768-6.054-7.993-8.74A26.11,26.11,0,0,0,136.6,79.754a1.39,1.39,0,0,0-2.717.588A23.286,23.286,0,0,1,128.02,101.4a79.729,79.729,0,0,0-8.6-6.372c-5.9-3.718-9.693-4.608-11.6-2.7a3.3,3.3,0,0,0-.906,2L79.587,164.339a1.406,1.406,0,0,0,1.3,1.907,1.437,1.437,0,0,0,.508-.1l70-27.316a3.3,3.3,0,0,0,2-.906c1.907-1.907,1.017-5.689-2.7-11.6a75.451,75.451,0,0,0-4.926-6.817,26.442,26.442,0,0,0-1.907,2.066,72.668,72.668,0,0,1,4.481,6.245c3.544,5.625,3.416,7.818,3.1,8.152a.666.666,0,0,1-.3.143,1.63,1.63,0,0,0-.477.048c-1.859-.016-6.5-2.241-12.887-7.2a23.319,23.319,0,0,1,27.6-17.1,1.39,1.39,0,0,0,.59-2.717Zm-19.5,28.6L137.3,141.33a54.068,54.068,0,0,1-32.893-32.893l3.575-9.185c2.972,6.833,11.234,16.3,16.7,21.786,5.482,5.482,14.953,13.745,21.786,16.717Zm-29.032,11.33A66.376,66.376,0,0,1,96.653,128.3l6.245-16a56.95,56.95,0,0,0,30.556,30.541Zm-17.5,6.833A74.3,74.3,0,0,1,89.82,145.8l5.593-14.317a69.13,69.13,0,0,0,18.861,18.846ZM110.43,94.168c1.033,0,3.321.6,7.5,3.242a79.547,79.547,0,0,1,8.008,5.927,23.205,23.205,0,0,1-9.169,4.64c-4.958-6.388-7.166-11.028-7.2-12.9a1.22,1.22,0,0,0,.048-.477.9.9,0,0,1,.143-.3,1.393,1.393,0,0,1,.669-.127ZM88.675,148.735A77.675,77.675,0,0,0,97,157.062L83.337,162.4Z" transform="translate(0 -52.757)" fill="#152049"/>
      <path id="Path_2111" data-name="Path 2111" d="M380.11,23.216a4.735,4.735,0,1,0-3.353-1.383,4.74,4.74,0,0,0,3.353,1.383Zm-1.383-6.134a1.963,1.963,0,0,1,1.383-.572,1.938,1.938,0,0,1,1.383.572,1.966,1.966,0,1,1-2.765,0Z" transform="translate(-240.473 0)" fill="#00a1ed"/>
      <path id="Path_2112" data-name="Path 2112" d="M577.864,267.457a4.848,4.848,0,0,0-6.705,0,4.736,4.736,0,1,0,8.073,3.353,4.574,4.574,0,0,0-1.367-3.353Zm-1.971,4.735a1.956,1.956,0,1,1,.573-1.383,1.825,1.825,0,0,1-.573,1.383Z" transform="translate(-398.454 -205.103)" fill="#00a1ed"/>
    </g>
  </g>
</svg>
