<svg xmlns="http://www.w3.org/2000/svg" width="150" height="150" viewBox="0 0 150 150">
  <g id="ico_portal_cursos" transform="translate(-946 -1258)">
    <g id="Rectangle_17144" data-name="Rectangle 17144" transform="translate(946 1258)" fill="#fff" stroke="#fff" stroke-width="1">
      <rect width="150" height="150" stroke="none"/>
      <rect x="0.5" y="0.5" width="149" height="149" fill="none"/>
    </g>
    <g id="Group_9193" data-name="Group 9193" transform="translate(934.801 1248.744)">
      <g id="Group_9190" data-name="Group 9190" transform="translate(38.474 33.256)">
        <path id="Path_6119" data-name="Path 6119" d="M47.365,77.374a17.894,17.894,0,0,0,12.657,30.55h0a17.915,17.915,0,0,0,16.705-11.5l16.705,0a17.922,17.922,0,0,0,16.7,11.509h.007A17.9,17.9,0,1,0,101.979,74.1a23.466,23.466,0,0,0-3.774-4.476,2.419,2.419,0,0,0-3.115-.137c-.1.078-9.958,7.416-19.359.7l-4.963-7.674a17.888,17.888,0,0,0,13.855,6.574h.005a17.978,17.978,0,1,0-15.988-9.864l-5.974-9.239a6.1,6.1,0,0,0-10.243,6.623l10.165,15.72a17.544,17.544,0,0,0-2.569-.206A17.783,17.783,0,0,0,47.365,77.374ZM75.387,41.94a13.06,13.06,0,1,1-3.83,9.239A12.984,12.984,0,0,1,75.387,41.94Zm25.5,38.841a13.074,13.074,0,1,1,9.255,22.324h-.007a13.073,13.073,0,0,1-9.248-22.324ZM55.734,54.469a2.159,2.159,0,0,1,.639-2.987,2.215,2.215,0,0,1,2.987.642l11.68,18.06h0l3,4.648.191.187a20.774,20.774,0,0,0,2.531,1.317,19.693,19.693,0,0,0,2.191.791c7.463,2.182,14.284-.909,17.258-2.616A19.217,19.217,0,0,1,98,76.9c-.171.159-.351.307-.517.473A17.786,17.786,0,0,0,92.235,90.03c0,.52.035,1.028.078,1.537H77.85c.043-.512.076-1.028.076-1.551a17.936,17.936,0,0,0-9.376-15.729l-.256-.393Zm17.372,35.55A13.1,13.1,0,0,1,60.026,103.1h0A13.081,13.081,0,1,1,73.105,90.019Z" transform="translate(-37.356 -33.256)" fill="#1a2544"/>
        <path id="Path_6120" data-name="Path 6120" d="M39.167,117.039a2.419,2.419,0,0,0,1.716.717l40.51-.007a2.411,2.411,0,0,0,2.409-2.331c.021-.639.405-15.733-9.091-24.435a2.423,2.423,0,0,0-3.09-.137c-.43.325-10.631,7.887-20.287.026a2.408,2.408,0,0,0-3.1.046c-.389.34-9.532,8.468-9.759,24.4A2.408,2.408,0,0,0,39.167,117.039ZM50.087,95.93c8.513,5.632,17.638,2.965,22.678-.051,4.753,5.4,5.882,13.2,6.146,17.05l-35.5.007A29.8,29.8,0,0,1,50.087,95.93Z" transform="translate(-38.474 -15.756)" fill="#0a91d4"/>
        <path id="Path_6121" data-name="Path 6121" d="M109.977,90.846c-.43.325-10.629,7.887-20.287.026a2.412,2.412,0,0,0-3.1.046c-.388.34-9.532,8.468-9.758,24.4a2.409,2.409,0,0,0,2.411,2.442l40.512-.007a2.407,2.407,0,0,0,2.405-2.331c.022-.639.406-15.733-9.091-24.435A2.422,2.422,0,0,0,109.977,90.846Zm7.288,22.083-35.5.007A29.8,29.8,0,0,1,88.445,95.93c8.511,5.632,17.635,2.965,22.679-.051C115.875,101.284,117,109.08,117.265,112.929Z" transform="translate(-26.713 -15.756)" fill="#0a91d4"/>
      </g>
      <circle id="Ellipse_357" data-name="Ellipse 357" cx="17.639" cy="17.639" r="17.639" transform="translate(43.52 72.384)" fill="#0a91d4" stroke="#0a91d4" stroke-miterlimit="10" stroke-width="1"/>
      <circle id="Ellipse_358" data-name="Ellipse 358" cx="13.606" cy="13.606" r="13.606" transform="translate(47.554 76.417)" fill="#fff"/>
      <circle id="Ellipse_359" data-name="Ellipse 359" cx="17.639" cy="17.639" r="17.639" transform="translate(93.617 72.384)" fill="#0a91d4" stroke="#0a91d4" stroke-miterlimit="10" stroke-width="1"/>
      <circle id="Ellipse_360" data-name="Ellipse 360" cx="13.606" cy="13.606" r="13.606" transform="translate(97.65 76.417)" fill="#fff"/>
    </g>
  </g>
</svg>
