<svg xmlns="http://www.w3.org/2000/svg" width="150" height="150" viewBox="0 0 150 150">
  <g id="ico_portal_nuevos" transform="translate(-66 -1258)">
    <g id="Rectangle_17134" data-name="Rectangle 17134" transform="translate(66 1258)" fill="#fff" stroke="#fff" stroke-width="1">
      <rect width="150" height="150" stroke="none"/>
      <rect x="0.5" y="0.5" width="149" height="149" fill="none"/>
    </g>
    <g id="noun-community-2325118" transform="translate(10.126 1250.142)">
      <path id="Path_2117" data-name="Path 2117" d="M160.158,140.386a54.34,54.34,0,1,1,38.348-15.916,54.262,54.262,0,0,1-38.348,15.916Zm0-106.4a52.2,52.2,0,1,0,36.847,15.29,52.135,52.135,0,0,0-36.847-15.29Z" transform="translate(-29.02 -3)" fill="#152049" stroke="#152049" stroke-width="1"/>
      <path id="Path_2118" data-name="Path 2118" d="M275.553,217.294a18.655,18.655,0,0,0-2.683-1.357L272,215.59l.754-.543h0a9.209,9.209,0,0,0,3.875-7.539,9.74,9.74,0,0,0-19.48,0,9.15,9.15,0,0,0,3.89,7.539l.784.557-.89.347h0a16.464,16.464,0,0,0-7.539,5.911l-.257.376-.407-.211h0a14.831,14.831,0,0,0-2.036-.965l-.874-.347.754-.543a9.288,9.288,0,0,0,3.844-7.539,9.74,9.74,0,0,0-19.48,0,9.288,9.288,0,0,0,3.921,7.539l.769.543-.874.347h0a15.583,15.583,0,0,0-2.05.935l-.407.211-.257-.376h0a16.482,16.482,0,0,0-7.645-5.909l-.9-.347.784-.557h0a9.044,9.044,0,0,0,3.92-7.539,9.74,9.74,0,0,0-19.48,0,9.046,9.046,0,0,0,3.95,7.539l.784.557-.9.331h0a16.588,16.588,0,0,0-10.689,15.545,1.222,1.222,0,0,0,2.443-.045,14.112,14.112,0,0,1,14.052-14.248h.09a14.25,14.25,0,0,1,11.624,6.031l.271.392-.362.3h0a16.419,16.419,0,0,0-5.9,12.71A1.281,1.281,0,0,0,229.3,237.8a1.235,1.235,0,0,0,.859-.392,1.279,1.279,0,0,0,.362-.843,14.082,14.082,0,0,1,14.052-14.248h.09a14.2,14.2,0,0,1,14.158,14.158,1.506,1.506,0,0,0,1.221,1.281,1.342,1.342,0,0,0,1.236-1.326,16.583,16.583,0,0,0-5.864-12.469l-.362-.3.271-.376a14.142,14.142,0,0,1,25.721,8.111,1.221,1.221,0,1,0,2.442,0,16.585,16.585,0,0,0-7.931-14.1Zm-1.327-9.8h0a7.357,7.357,0,1,1-2.155-5.188,7.358,7.358,0,0,1,2.155,5.188ZM252,212.606a7.343,7.343,0,0,1-7.343,7.282h-.121a7.131,7.131,0,0,1-7.222-7.327,7.343,7.343,0,1,1,14.686,0ZM229.8,207.494a7.357,7.357,0,1,1-2.16-5.193,7.36,7.36,0,0,1,2.16,5.193Z" transform="translate(-113.744 -134.373)" fill="#00a1ed"/>
    </g>
  </g>
</svg>
