<svg xmlns="http://www.w3.org/2000/svg" width="150" height="150" viewBox="0 0 150 150">
  <g id="ico_portal_hbd" transform="translate(-66 -1258)">
    <g id="Rectangle_17134" data-name="Rectangle 17134" transform="translate(66 1258)" fill="#fff" stroke="#fff" stroke-width="1">
      <rect width="150" height="150" stroke="none"/>
      <rect x="0.5" y="0.5" width="149" height="149" fill="none"/>
    </g>
    <g id="noun-candidate-4503445" transform="translate(10.852 1273.15)">
      <path id="Path_2124" data-name="Path 2124" d="M211,29.1a12.772,12.772,0,0,0,12.759-12.759V12.925a12.759,12.759,0,1,0-25.518,0v3.417A12.772,12.772,0,0,0,211,29.1Zm-9.485-16.175a9.486,9.486,0,1,1,18.971,0v3.417a9.486,9.486,0,0,1-18.971,0Z" transform="translate(-100.466)" fill="#152049"/>
      <path id="Path_2125" data-name="Path 2125" d="M173.951,143.53H151.658a14.693,14.693,0,0,0-14.682,14.682v24.812a7.673,7.673,0,0,0,7.657,7.657h3.727v33.343a8.3,8.3,0,0,0,8.291,8.291h6.021c.048,0,.083-.012.132-.012s.083.012.132.012h6.021a8.3,8.3,0,0,0,8.291-8.291V190.7h3.727a7.673,7.673,0,0,0,7.657-7.657V158.227a14.7,14.7,0,0,0-14.682-14.7Zm11.409,25.661v13.845a4.387,4.387,0,0,1-4.384,4.384h-3.727V160.458a1.637,1.637,0,1,0-3.273,0v63.578a5.037,5.037,0,0,1-5.029,5.029h-4.384V187.551a1.637,1.637,0,0,0-3.273,0v41.526H156.64a5.037,5.037,0,0,1-5.029-5.029V160.458a1.637,1.637,0,1,0-3.273,0v26.962H144.61a4.387,4.387,0,0,1-4.384-4.384V158.224a11.415,11.415,0,0,1,11.409-11.409h22.293a11.415,11.415,0,0,1,11.409,11.409v10.966Z" transform="translate(-52.27 -112.781)" fill="#152049"/>
      <path id="Path_2126" data-name="Path 2126" d="M460.308,63.372a1.668,1.668,0,0,0,1.207.537h.047a1.6,1.6,0,0,0,1.218-.6l13.213-16.223a1.639,1.639,0,1,0-2.545-2.067L461.443,59.764l-5.722-6.271a1.632,1.632,0,1,0-2.413,2.2Z" transform="translate(-300.784 -34.809)" fill="#00a1ed"/>
      <path id="Path_2127" data-name="Path 2127" d="M475.771,247.341a1.635,1.635,0,0,0-2.306.239l-12.018,14.754-5.722-6.271a1.632,1.632,0,0,0-2.413,2.2l7,7.681a1.668,1.668,0,0,0,1.207.537h.048a1.6,1.6,0,0,0,1.218-.6L476,249.659a1.636,1.636,0,0,0-.227-2.318Z" transform="translate(-300.787 -194.156)" fill="#00a1ed"/>
      <path id="Path_2128" data-name="Path 2128" d="M475.771,247.341a1.635,1.635,0,0,0-2.306.239l-12.018,14.754-5.722-6.271a1.632,1.632,0,0,0-2.413,2.2l7,7.681a1.668,1.668,0,0,0,1.207.537h.048a1.6,1.6,0,0,0,1.218-.6L476,249.659a1.636,1.636,0,0,0-.227-2.318Z" transform="translate(-300.787 -156.156)" fill="#152049" opacity="0.482"/>
    </g>
  </g>
</svg>
