<svg xmlns="http://www.w3.org/2000/svg" width="125" height="25" viewBox="0 0 125 25">
  <g id="ico_portal_hbd" transform="translate(-66 -1258)">
    <g id="Rectangle_17134" data-name="Rectangle 17134" transform="translate(66 1258)" fill="#33b5e5" stroke="#33b5e5" stroke-width="1">
      <rect width="125" height="25" rx="2" stroke="none"/>
      <rect x="0.5" y="0.5" width="124" height="24" rx="1.5" fill="none"/>
    </g>
    <g id="noun-celebrate-5305862" transform="translate(80.613 1261.682)">
      <path id="Path_2099" data-name="Path 2099" d="M273.222,30.71a.208.208,0,0,0,.069.011.232.232,0,0,0,.22-.162.711.711,0,0,1,.225-.061c.2-.034.5-.085.588-.379s-.132-.5-.278-.641a1.152,1.152,0,0,1-.156-.167.711.711,0,0,1,.225-.061c.2-.034.5-.085.588-.376s-.132-.5-.278-.641a1.192,1.192,0,0,1-.156-.161.653.653,0,0,1,.225-.058c.2-.034.5-.085.588-.376a.232.232,0,0,0-.442-.14.653.653,0,0,1-.225.058c-.2.034-.5.085-.588.376s.132.5.278.641a1.163,1.163,0,0,1,.156.164.711.711,0,0,1-.225.061c-.2.034-.5.085-.588.376a.642.642,0,0,0,.278.641,1.153,1.153,0,0,1,.156.167.711.711,0,0,1-.225.061c-.2.034-.5.085-.588.376a.234.234,0,0,0,.154.291Z" transform="translate(-267.017 -26.913)" fill="#fff"/>
      <path id="Path_2100" data-name="Path 2100" d="M496.659,180.571a.228.228,0,0,0-.26-.2.742.742,0,0,1-.151-.18c-.114-.167-.286-.418-.593-.376s-.4.334-.463.524a1.077,1.077,0,0,1-.085.214.742.742,0,0,1-.151-.18c-.114-.167-.291-.418-.593-.376a.233.233,0,0,0-.2.262.228.228,0,0,0,.26.2.742.742,0,0,1,.151.18c.106.154.262.381.524.381a.68.68,0,0,0,.069-.005c.3-.042.4-.334.463-.524a1.076,1.076,0,0,1,.085-.214.742.742,0,0,1,.151.18c.114.167.291.418.593.376A.233.233,0,0,0,496.659,180.571Z" transform="translate(-481.219 -174.631)" fill="#fff"/>
      <path id="Path_2101" data-name="Path 2101" d="M510.392,283.163l-.254.254a.233.233,0,0,0,.164.4.225.225,0,0,0,.164-.069l.254-.254a.232.232,0,1,0-.328-.328Z" transform="translate(-496.631 -274.688)" fill="#fff"/>
      <path id="Path_2102" data-name="Path 2102" d="M480.522,313.043l-.254.252a.233.233,0,0,0,.164.4.225.225,0,0,0,.164-.069l.254-.254a.231.231,0,1,0-.328-.326Z" transform="translate(-467.693 -303.633)" fill="#fff"/>
      <path id="Path_2103" data-name="Path 2103" d="M510.461,313.113a.232.232,0,0,0-.328.328l.254.254a.235.235,0,0,0,.164.069.225.225,0,0,0,.164-.069.233.233,0,0,0,0-.328Z" transform="translate(-496.625 -303.703)" fill="#fff"/>
      <path id="Path_2104" data-name="Path 2104" d="M480.6,283.163a.232.232,0,0,0-.328.328l.254.254a.235.235,0,0,0,.164.069.225.225,0,0,0,.164-.069.233.233,0,0,0,0-.328Z" transform="translate(-467.697 -274.688)" fill="#fff"/>
      <path id="Path_2105" data-name="Path 2105" d="M452.938,74.494a.235.235,0,0,0,.164-.069l.254-.254a.232.232,0,0,0-.328-.328l-.254.254a.233.233,0,0,0,0,.328A.231.231,0,0,0,452.938,74.494Z" transform="translate(-441.057 -71.902)" fill="#fff"/>
      <path id="Path_2106" data-name="Path 2106" d="M423.241,104.291l.254-.254a.232.232,0,0,0-.328-.328l-.254.254a.233.233,0,0,0,.164.4A.24.24,0,0,0,423.241,104.291Z" transform="translate(-412.128 -100.835)" fill="#fff"/>
      <path id="Path_2107" data-name="Path 2107" d="M452.945,104.291a.235.235,0,0,0,.164.069.225.225,0,0,0,.164-.069.233.233,0,0,0,0-.328l-.254-.254a.232.232,0,0,0-.328.328Z" transform="translate(-440.977 -100.835)" fill="#fff"/>
      <path id="Path_2108" data-name="Path 2108" d="M422.913,74.258l.254.254a.235.235,0,0,0,.164.069.225.225,0,0,0,.164-.069.233.233,0,0,0,0-.328l-.254-.254a.232.232,0,0,0-.328.328Z" transform="translate(-412.128 -71.986)" fill="#fff"/>
      <path id="Path_2109" data-name="Path 2109" d="M396.059,147.1a.228.228,0,0,0-.056-.238.239.239,0,0,0-.238-.056l-.625.212-.527-.395a.232.232,0,0,0-.371.188l.008.659-.538.381a.232.232,0,0,0,.064.41l.63.2.2.63a.229.229,0,0,0,.185.159.173.173,0,0,0,.037,0,.231.231,0,0,0,.188-.1l.381-.538.66.008a.221.221,0,0,0,.209-.127.231.231,0,0,0-.021-.244l-.395-.527Zm-.781,1.049a.261.261,0,0,0-.193.1l-.18.254-.093-.3a.235.235,0,0,0-.154-.154l-.3-.093.254-.18a.24.24,0,0,0,.1-.191l0-.312.249.185a.233.233,0,0,0,.212.034l.294-.1-.1.294a.234.234,0,0,0,.034.212l.185.249Z" transform="translate(-383.809 -142.433)" fill="#fff"/>
      <path id="Path_2110" data-name="Path 2110" d="M93.9,83.741a4.349,4.349,0,0,0-3.909,1.078c-.31-.355-.644-.712-1-1.067-.262-.262-.524-.511-.787-.749-.106.114-.217.22-.334.323q.4.358.794.755c.357.357.694.718,1,1.073a4.315,4.315,0,0,0-.861,1.573c-.448-.371-.935-.81-1.457-1.332s-.961-1.009-1.332-1.457a4.352,4.352,0,0,0,2.985-5.1.232.232,0,0,0-.453.1,3.881,3.881,0,0,1-.977,3.509,13.289,13.289,0,0,0-1.433-1.062c-.983-.62-1.616-.768-1.933-.45a.549.549,0,0,0-.151.334L79.505,92.939a.234.234,0,0,0,.217.318.239.239,0,0,0,.085-.016l11.666-4.553a.549.549,0,0,0,.334-.151c.318-.318.169-.948-.45-1.933a12.574,12.574,0,0,0-.821-1.136,4.406,4.406,0,0,0-.318.344,12.11,12.11,0,0,1,.747,1.041c.591.937.569,1.3.516,1.359a.111.111,0,0,1-.05.024.272.272,0,0,0-.079.008,5.229,5.229,0,0,1-2.148-1.2,3.887,3.887,0,0,1,4.6-2.85.232.232,0,0,0,.1-.453Zm-3.25,4.767-1.528.6a9.011,9.011,0,0,1-5.482-5.482l.6-1.531a17.5,17.5,0,0,0,6.414,6.417ZM85.814,90.4a11.063,11.063,0,0,1-3.464-3.464l1.041-2.667a9.492,9.492,0,0,0,5.093,5.09ZM82.9,91.536a12.383,12.383,0,0,1-1.687-1.687l.932-2.386A11.522,11.522,0,0,0,85.286,90.6Zm1.748-10.292a2.8,2.8,0,0,1,1.25.54,13.26,13.26,0,0,1,1.335.988,3.867,3.867,0,0,1-1.528.773A5.251,5.251,0,0,1,84.5,81.4a.2.2,0,0,0,.008-.079.149.149,0,0,1,.024-.05A.232.232,0,0,1,84.646,81.244ZM81.02,90.339a12.946,12.946,0,0,0,1.388,1.388l-2.278.89Z" transform="translate(-79.489 -76.633)" fill="#fff"/>
      <path id="Path_2111" data-name="Path 2111" d="M376.163,15.324a.789.789,0,1,0-.559-.23.79.79,0,0,0,.559.23Zm-.23-1.022a.327.327,0,0,1,.23-.1.323.323,0,0,1,.23.1.328.328,0,1,1-.461,0Z" transform="translate(-366.139 -13.745)" fill="#fff"/>
      <path id="Path_2112" data-name="Path 2112" d="M571.111,266.335a.808.808,0,0,0-1.118,0,.789.789,0,1,0,1.345.559.763.763,0,0,0-.228-.559Zm-.328.789a.326.326,0,1,1,.1-.23A.3.3,0,0,1,570.782,267.124Z" transform="translate(-554.457 -258.233)" fill="#fff"/>
    </g>
    <text id="Felicitar" transform="translate(135 1275)" fill="#fff" font-size="14" font-family="AeonikPro-Regular, Aeonik Pro"><tspan x="-23" y="0">Felicitar</tspan></text>
  </g>
</svg>
