<svg xmlns="http://www.w3.org/2000/svg" width="150" height="150" viewBox="0 0 150 150">
  <g id="ico_portal_breakfast" transform="translate(-66 -1258)">
    <g id="Rectangle_17134" data-name="Rectangle 17134" transform="translate(66 1258)" fill="#fff" stroke="#fff" stroke-width="1">
      <rect width="150" height="150" stroke="none"/>
      <rect x="0.5" y="0.5" width="149" height="149" fill="none"/>
    </g>
    <g id="ico_portal_breakfast-2" data-name="ico_portal_breakfast" transform="translate(-38.531 1220.953)">
      <path id="Path_2094" data-name="Path 2094" d="M336.961,159.086l-3.75-6.43a5.212,5.212,0,0,0,.872-1.414,7.9,7.9,0,0,0,.012-6.045.163.163,0,0,1-.009-.018,8.271,8.271,0,0,0-.457-.963c-.032-.057-.072-.112-.106-.167a7.987,7.987,0,0,0-.505-.771c-.109-.144-.238-.276-.357-.414s-.234-.294-.369-.428l-5.606-5.606c-.137-.137-.291-.25-.436-.376s-.263-.244-.4-.349a8.658,8.658,0,0,0-.778-.511c-.054-.031-.1-.069-.159-.1a8.655,8.655,0,0,0-.971-.462l-.007,0a7.91,7.91,0,0,0-6.047.01,5.24,5.24,0,0,0-1.416.872l-6.43-3.748a7.4,7.4,0,0,0-6.8-.433,4.939,4.939,0,0,0-2.616,2.51l-.651,1.515-4-1.225a6.217,6.217,0,0,0-2.5-.279c-2.962.318-5.512,2.733-7.18,6.8a1.359,1.359,0,0,0,.718,1.765L295.8,146.6a5.415,5.415,0,0,0,2.554,4.638L303.5,154.4a4.006,4.006,0,0,0,1.065,3.775l.019.019.007.009,3.171,3.17,3.17,3.171s.006,0,.007.006l.019.019a4.015,4.015,0,0,0,2.846,1.184,3.956,3.956,0,0,0,.927-.121l3.163,5.148a5.424,5.424,0,0,0,4.619,2.569c.009,0,.015,0,.023,0l3.775,8.772a1.358,1.358,0,0,0,1.248.821,1.325,1.325,0,0,0,.517-.1c4.067-1.668,6.483-4.218,6.8-7.181a6.244,6.244,0,0,0-.279-2.494l-1.225-4.005,1.515-.651a4.945,4.945,0,0,0,2.51-2.617,7.386,7.386,0,0,0-.43-6.8Zm-6.625-14.766a5.5,5.5,0,0,1,.44.5l.063.072a5.339,5.339,0,0,1,.834,4.892,2.244,2.244,0,0,1-.764,1.28l-.129.092a1.028,1.028,0,0,0-.128.057l-9.906,7.107-6.2,4.43a1.306,1.306,0,0,1-1.683-.136l-6.345-6.345h0a1.3,1.3,0,0,1-.141-1.683l4.256-5.962,7.282-10.15a1.313,1.313,0,0,0,.059-.135l.087-.122a2.262,2.262,0,0,1,1.282-.765,5.32,5.32,0,0,1,4.606.634l.037.023a5.588,5.588,0,0,1,.826.68Zm-36.572-7.368a3.6,3.6,0,0,1,1.407.175l3.723,1.138-2.429,5.656-7.1-3.055c.878-1.705,2.329-3.693,4.4-3.915Zm6.007,11.965a2.692,2.692,0,0,1-1.059-3.34l4.409-10.266a2.2,2.2,0,0,1,1.253-1.112,4.28,4.28,0,0,1,1.788-.383,4.992,4.992,0,0,1,2.506.7l6.107,3.561-9.953,13.944-5.052-3.1h0ZM332,173.951a3.606,3.606,0,0,1,.175,1.407c-.223,2.071-2.21,3.523-3.917,4.4l-3.055-7.1,5.656-2.431Zm2.928-9.2A2.2,2.2,0,0,1,333.813,166l-10.264,4.409a2.693,2.693,0,0,1-3.34-1.059h0l-3.1-5.049,13.944-9.953,3.561,6.107a4.672,4.672,0,0,1,.314,4.292Z" transform="translate(-121.245 -56.451)" fill="#00a1ed"/>
      <path id="Path_2095" data-name="Path 2095" d="M218.9,72.466a54.35,54.35,0,1,0,0,76.9,54.436,54.436,0,0,0,0-76.9Zm-1.921,74.978a51.658,51.658,0,1,1,0-73.056,51.318,51.318,0,0,1,0,73.056Z" transform="translate(0 0)" fill="#152049"/>
      <path id="Path_2096" data-name="Path 2096" d="M202.1,85.137a47.418,47.418,0,1,0,47.418,47.418A47.471,47.471,0,0,0,202.1,85.137Zm0,92.118a44.7,44.7,0,1,1,44.7-44.7,44.75,44.75,0,0,1-44.7,44.7Z" transform="translate(-21.643 -21.639)" fill="#152049"/>
      <path id="Path_2097" data-name="Path 2097" d="M242.144,239.8a1.355,1.355,0,0,0-1.366-.3l-4.132,1.382-6.589-6.239c-4.491-4.247-12.094-3.529-16.956,1.606a13.25,13.25,0,0,0-3.575,11.786l-3.554,3.754a1.353,1.353,0,0,0-.371.953l.1,7.029a1.361,1.361,0,0,0,.424.968l22.5,21.311a1.359,1.359,0,0,0,.935.371h.037a1.365,1.365,0,0,0,.95-.424l15.741-16.623a1.361,1.361,0,0,0-.053-1.921l-22.5-21.31a1.258,1.258,0,0,0-.989-.37l-7.025.279a1.357,1.357,0,0,0-.934.424l-2.827,2.987a10.993,10.993,0,0,1,3.114-7.345c3.83-4.046,9.711-4.72,13.112-1.5l6.7,6.345-1.066,3.882a1.356,1.356,0,0,0,.375,1.347l6.631,6.279a1.362,1.362,0,0,0,1.921-.053L248.827,248a1.358,1.358,0,0,0-.051-1.92Zm-12.628,39.335-10.526-9.968,13.87-14.646,10.526,9.966ZM216.383,244.74l5.9-.235,8.6,8.145L217.016,267.3l-8.6-8.145-.087-5.9Zm25.328,6.816-5.054-4.784.875-3.182h0a1.26,1.26,0,0,0,.114-.184l3.218-1.076,5.051,4.784Z" transform="translate(-60.209 -132.768)" fill="#00a1ed"/>
      <path id="Path_2098" data-name="Path 2098" d="M233.711,304.931a1.358,1.358,0,0,0,.988-.424l1.9-2.009a1.359,1.359,0,0,0-1.974-1.868l-1.9,2.009a1.358,1.358,0,0,0,.987,2.292Z" transform="translate(-80.471 -184.525)" fill="#00a1ed"/>
    </g>
  </g>
</svg>
