<svg xmlns="http://www.w3.org/2000/svg" width="150" height="150" viewBox="0 0 150 150">
  <g id="ico_portal_ti" transform="translate(-66 -1258)">
    <g id="Rectangle_17134" data-name="Rectangle 17134" transform="translate(66 1258)" fill="#fff" stroke="#fff" stroke-width="1">
      <rect width="150" height="150" stroke="none"/>
      <rect x="0.5" y="0.5" width="149" height="149" fill="none"/>
    </g>
    <g id="ico" transform="translate(24.002 1263.59)">
      <path id="Path_2151" data-name="Path 2151" d="M125.236,410.293h6.523a.725.725,0,0,0,0-1.45h-6.523a.725.725,0,0,0,0,1.45Z" transform="translate(-45.341 -317.254)" fill="#33b5e5"/>
      <path id="Path_2152" data-name="Path 2152" d="M160.649,27.41H73.572A3.578,3.578,0,0,0,70,30.984v64.7a3.578,3.578,0,0,0,3.574,3.574h35.469v5.576a6.216,6.216,0,0,0-6.1,6.207,1.373,1.373,0,0,0,1.372,1.372h25.6a1.373,1.373,0,0,0,1.372-1.372,6.216,6.216,0,0,0-6.1-6.207V99.255h35.467a3.578,3.578,0,0,0,3.574-3.574v-64.7a3.578,3.578,0,0,0-3.574-3.574Zm-30.815,83.552H104.388a4.768,4.768,0,0,1,4.761-4.685h15.922a4.768,4.768,0,0,1,4.763,4.685Zm-19.343-6.135v-5.57h13.241v5.57Zm52.283-9.145a2.128,2.128,0,0,1-2.125,2.125H73.574a2.127,2.127,0,0,1-2.124-2.125V86.824h91.325Zm0-10.307H71.449V30.985a2.127,2.127,0,0,1,2.124-2.125h87.075a2.127,2.127,0,0,1,2.125,2.125Z" fill="#152049" stroke="#152049" stroke-width="1"/>
      <path id="Path_2153" data-name="Path 2153" d="M237.33,98.155a15.454,15.454,0,0,0-20.583-19.921.724.724,0,0,0-.219,1.175l7,7a4.578,4.578,0,1,1-6.475,6.475l-7.005-7a.735.735,0,0,0-.645-.2.725.725,0,0,0-.53.42A15.454,15.454,0,0,0,228.8,106.684l12.636,12.636a6.03,6.03,0,0,0,8.529-8.528Zm11.61,20.14a4.587,4.587,0,0,1-6.479,0L229.6,105.429a.209.209,0,0,0-.013-.02.722.722,0,0,0-.891-.252,14,14,0,0,1-18.883-17.47l6.226,6.226a6.027,6.027,0,1,0,8.524-8.524l-6.226-6.226A14,14,0,0,1,235.8,98.046a.718.718,0,0,0,.241.873l12.9,12.9a4.58,4.58,0,0,1,0,6.478Z" transform="translate(-114.426 -41.185)" fill="#33b5e5" stroke="#33b5e5" stroke-width="1"/>
      <path id="Path_2154" data-name="Path 2154" d="M414.681,284.157a2.892,2.892,0,1,0,4.089,0,2.959,2.959,0,0,0-4.089,0Zm3.065,3.065a1.442,1.442,0,1,1,.423-1.02A1.445,1.445,0,0,1,417.746,287.222Z" transform="translate(-285.984 -212.866)" fill="#33b5e5"/>
    </g>
  </g>
</svg>
