<svg xmlns="http://www.w3.org/2000/svg" width="150" height="150" viewBox="0 0 150 150">
  <g id="ico_portal_sugerencias" transform="translate(-66 -1258)">
    <g id="Rectangle_17134" data-name="Rectangle 17134" transform="translate(66 1258)" fill="#fff" stroke="#fff" stroke-width="1">
      <rect width="150" height="150" stroke="none"/>
      <rect x="0.5" y="0.5" width="149" height="149" fill="none"/>
    </g>
    <g id="noun-accept-2922529" transform="translate(26.487 1288.478)">
      <path id="Path_2113" data-name="Path 2113" d="M158.22,32.088c-.007-.03-.017-.06-.026-.09h0a1.408,1.408,0,0,0-.1-.239c-.012-.022-.021-.044-.033-.064a1.345,1.345,0,0,0-.207-.257c-.017-.017-.036-.03-.054-.046a1.453,1.453,0,0,0-.142-.119l-11.8-8V4.142A4.143,4.143,0,0,0,141.714,0H86.546a4.143,4.143,0,0,0-4.138,4.138V22.776l-11.792,7.8a1.405,1.405,0,0,0-.156.127.565.565,0,0,0-.046.038,1.326,1.326,0,0,0-.207.258c-.015.023-.025.047-.037.069h0a1.362,1.362,0,0,0-.105.237c-.01.029-.019.057-.027.087a1.37,1.37,0,0,0-.042.328V84.136a4.143,4.143,0,0,0,4.138,4.138h79.995c2,0,4.138-1.448,4.138-5.517V32.412a1.373,1.373,0,0,0-.045-.324ZM82.409,26.083V34.06l2.758,1.824V4.141a1.379,1.379,0,0,1,1.379-1.379h55.169a1.379,1.379,0,0,1,1.379,1.379v32.25l2.758-1.78v-8l8.533,5.78L119.475,54.917a9.806,9.806,0,0,0-10.67-.1L98.323,47.892a5.53,5.53,0,0,1-1.916-1.27l-22.533-14.9Zm-9.655,8.208,33.705,22.283L72.754,82.537Zm1.379,51.225a1.328,1.328,0,0,1-.552-.132L109.76,57.518a7.049,7.049,0,0,1,8.669.044l35.538,27.953Zm81.374-2.758c0,.127,0,.282-.015.449L121.8,56.7l33.71-21.752Z" transform="translate(0)" fill="#152049"/>
      <path id="Path_2114" data-name="Path 2114" d="M185.129,42.133h9.655a1.379,1.379,0,1,0,0-2.758h-9.655a1.379,1.379,0,1,0,0,2.758Z" transform="translate(-95.824 -33.165)" fill="#00a1ed"/>
      <path id="Path_2115" data-name="Path 2115" d="M201.68,75.754a1.379,1.379,0,0,0-1.379-1.379H185.129a1.379,1.379,0,1,0,0,2.758H200.3a1.379,1.379,0,0,0,1.379-1.379Z" transform="translate(-95.824 -62.648)" fill="#00a1ed"/>
      <path id="Path_2116" data-name="Path 2116" d="M250.517,75.2h-2.758A2.722,2.722,0,0,0,245,77.879V97.351a2.722,2.722,0,0,0,2.758,2.677h2.758a2.782,2.782,0,0,0,2.287-1.182,49.507,49.507,0,0,0,15.963,2.561h5.2a4.157,4.157,0,0,0,3.069-6.94,4.15,4.15,0,0,0,0-5.561,4.151,4.151,0,0,0,0-5.561,4.158,4.158,0,0,0-3.069-6.941h-7.019a25.993,25.993,0,0,0,1.212-6.132l.063-.563a3.724,3.724,0,0,0-7.21-1.684c-1.159,3.183-3.433,7.172-7.62,8.076-.029,0-.052.009-.678.172a2.775,2.775,0,0,0-2.194-1.071Zm0,22.068-2.758-.006v-19.3l2.758.006Zm2.758-18.294.632-.166c4.338-.937,7.69-4.34,9.694-9.842a.966.966,0,0,1,1.878.433l-.063.568h0a24.283,24.283,0,0,1-1.709,7.334A1.379,1.379,0,0,0,265,79.162h8.965a1.4,1.4,0,0,1,0,2.8H271.2a1.379,1.379,0,1,0,0,2.758h2.758a1.4,1.4,0,0,1,0,2.8H271.2a1.379,1.379,0,1,0,0,2.758h2.758a1.4,1.4,0,1,1,0,2.8H271.2a1.379,1.379,0,1,0,0,2.758h2.758a1.4,1.4,0,0,1,0,2.8h-5.2A47,47,0,0,1,253.275,96.1Z" transform="translate(-147.42 -55.199)" fill="#00a1ed"/>
    </g>
  </g>
</svg>
