<svg xmlns="http://www.w3.org/2000/svg" width="150" height="150" viewBox="0 0 150 150">
  <g id="ico_portal_newsletter" transform="translate(-66 -1258)">
    <g id="Rectangle_17134" data-name="Rectangle 17134" transform="translate(66 1258)" fill="#fff" stroke="#fff" stroke-width="1">
      <rect width="150" height="150" stroke="none"/>
      <rect x="0.5" y="0.5" width="149" height="149" fill="none"/>
    </g>
    <g id="noun-paper-2886115" transform="translate(22.606 1257.219)">
      <path id="Path_2071" data-name="Path 2071" d="M149.972,110.219a1.322,1.322,0,0,1-.948-.4L128.9,89.063a1.32,1.32,0,1,1,1.9-1.838l18.612,19.195L176.813,24.2,94.508,51.632l26.859,28.053a1.321,1.321,0,1,1-1.908,1.827l-28.3-29.56a1.32,1.32,0,0,1,.536-2.166l86.791-28.931a1.32,1.32,0,0,1,1.67,1.67l-28.931,86.791a1.32,1.32,0,0,1-.96.87,1.363,1.363,0,0,1-.294.032Z" transform="translate(-17.114 -0.005)" fill="#00a1ed"/>
      <path id="Path_2072" data-name="Path 2072" d="M256.847,110.114a1.309,1.309,0,0,1-.485-.093l-.034-.014-.022-.01h0a1.316,1.316,0,0,1-.644-.626h0v0a1.328,1.328,0,0,1-.084-.222h0a1.3,1.3,0,0,1-.048-.35l-.679-28.172a1.32,1.32,0,0,1,.386-.966l58.49-58.49a1.321,1.321,0,0,1,1.995,1.721L266.756,88.8l-6.344,14.966,9.961-9.057a1.321,1.321,0,0,1,1.777,1.955l-14.393,13.087a1.322,1.322,0,0,1-.261.193,1.336,1.336,0,0,1-.65.17Zm.656-28.989.518,21.517,6.366-15.018a1.311,1.311,0,0,1,.156-.272l38.322-51.588Z" transform="translate(-152.872)" fill="#00a1ed"/>
    </g>
  </g>
</svg>
