<svg xmlns="http://www.w3.org/2000/svg" width="13.801" height="13.801" viewBox="0 0 13.801 13.801">
  <g id="ico_newpage_white" transform="translate(-6 -6)">
    <path id="Path_2009" data-name="Path 2009" d="M30.517,6.038,26.76,6h0a.384.384,0,0,0-.383.383.362.362,0,0,0,.383.383l2.837.038-5.482,5.444a.371.371,0,0,0,0,.537.414.414,0,0,0,.268.115.348.348,0,0,0,.268-.115l5.482-5.444L30.1,10.179a.362.362,0,0,0,.383.383h0a.384.384,0,0,0,.383-.383L30.9,6.422A.362.362,0,0,0,30.517,6.038Z" transform="translate(-11.1)" fill="#fff"/>
    <path id="Path_2010" data-name="Path 2010" d="M18.267,13.409a.362.362,0,0,0-.383.383v7.092H6.767V9.767h6.249a.383.383,0,0,0,0-.767H6.383A.362.362,0,0,0,6,9.383V21.267a.362.362,0,0,0,.383.383H18.267a.362.362,0,0,0,.383-.383V13.792A.362.362,0,0,0,18.267,13.409Z" transform="translate(0 -1.85)" fill="#fff"/>
  </g>
</svg>
