<svg xmlns="http://www.w3.org/2000/svg" width="139.455" height="139.455" viewBox="0 0 139.455 139.455">
  <g id="ico_pasaes-anuales" transform="translate(-41.971 -157.026) rotate(45)">
    <path id="Path_2090" data-name="Path 2090" d="M267.53,18.672h-14.44a1.344,1.344,0,0,0-1.344,1.344,12.425,12.425,0,1,1-24.851,0,1.344,1.344,0,0,0-1.344-1.344h-14.44a6.725,6.725,0,0,0-6.716,6.716V137.324a6.724,6.724,0,0,0,6.716,6.716H267.53a6.722,6.722,0,0,0,6.716-6.716V25.388a6.724,6.724,0,0,0-6.716-6.716Zm0,122.682H211.114a4.035,4.035,0,0,1-4.03-4.03V64.565h9.4a1.344,1.344,0,0,0,0-2.687h-9.4V25.39a4.035,4.035,0,0,1,4.03-4.03h13.156a15.113,15.113,0,0,0,30.105,0h13.155a4.035,4.035,0,0,1,4.03,4.03V61.881h-9.4a1.344,1.344,0,1,0,0,2.687h9.4v72.759a4.034,4.034,0,0,1-4.029,4.029Z" fill="#00a1ed" stroke="#00a1ed" stroke-width="1"/>
    <path id="Path_2091" data-name="Path 2091" d="M329.227,198.8H314a1.344,1.344,0,0,0,0,2.687h15.224a1.344,1.344,0,0,0,0-2.687Z" transform="translate(-82.294 -136.921)" fill="#00a1ed" stroke="#00a1ed" stroke-width="1"/>
    <path id="Path_2092" data-name="Path 2092" d="M302.342,243.6A1.344,1.344,0,0,0,301,244.944v57.424a1.344,1.344,0,0,0,2.687,0V244.944a1.343,1.343,0,0,0-1.343-1.343Z" transform="translate(-73.43 -170.975)" fill="#00a1ed" stroke="#00a1ed" stroke-width="1"/>
    <path id="Path_2093" data-name="Path 2093" d="M389.142,243.6a1.344,1.344,0,0,0-1.344,1.344v42.312a1.344,1.344,0,1,0,2.687,0V244.944a1.343,1.343,0,0,0-1.344-1.343Z" transform="translate(-139.41 -170.975)" fill="#00a1ed" stroke="#00a1ed" stroke-width="1"/>
  </g>
</svg>
