<svg xmlns="http://www.w3.org/2000/svg" width="17.462" height="18" viewBox="0 0 17.462 18">
  <g id="lupa" transform="translate(-129.167 -52.5)">
    <path id="Path_2032" data-name="Path 2032" d="M135.688,52.5a6.694,6.694,0,0,1,.944.075,6.462,6.462,0,0,1,3.456,1.689,6.52,6.52,0,0,1,1.31,1.732,6.447,6.447,0,0,1,.612,1.759,6.481,6.481,0,0,1-12.186,4.069,6.448,6.448,0,0,1-.588-1.9,6.52,6.52,0,0,1,.025-2.051,6.481,6.481,0,0,1,5.319-5.286,6.658,6.658,0,0,1,.941-.086h.167Zm-.073,1.679a4.973,4.973,0,0,0-.7.055,4.781,4.781,0,0,0-2.559,1.251,4.835,4.835,0,0,0-.959,1.259,4.775,4.775,0,0,0-.454,1.268,4.842,4.842,0,0,0-.055,1.61,4.782,4.782,0,0,0,.406,1.385,4.8,4.8,0,0,0,8.68.053,4.767,4.767,0,0,0,.422-1.378,4.84,4.84,0,0,0-.035-1.611,4.773,4.773,0,0,0-.453-1.3,4.83,4.83,0,0,0-2.235-2.143,4.774,4.774,0,0,0-1.236-.383,4.981,4.981,0,0,0-.7-.064h-.124Z" transform="translate(0)" fill="#a9b6c6"/>
    <path id="Path_2033" data-name="Path 2033" d="M362.456,298.234a1,1,0,0,1,.137.021.839.839,0,0,1,.365.191l.034.032,6.422,6.422a.986.986,0,0,1,.089.106.839.839,0,0,1-1.207,1.143.794.794,0,0,1-.069-.062l-6.422-6.422a.984.984,0,0,1-.09-.106.839.839,0,0,1-.115-.749.838.838,0,0,1,.717-.574.83.83,0,0,1,.092,0l.046,0Z" transform="translate(-223.03 -235.833)" fill="#a9b6c6"/>
  </g>
</svg>
