<svg xmlns="http://www.w3.org/2000/svg" width="125.66" height="32.617" viewBox="0 0 125.66 32.617">
  <g id="ico_checkin-especiales" transform="translate(-438 -178.546)">
    <path id="ico_checkin-silla-de-ruedas" d="M167.91,28a2.86,2.86,0,1,0,2.854,2.854A2.86,2.86,0,0,0,167.91,28Zm.2,6.417a1.739,1.739,0,0,0-1.985,1.932V46.564a1.578,1.578,0,0,0,1.588,1.578l7.233-.032,3.756,5.666a1.974,1.974,0,0,0,1.588,1.073,1.673,1.673,0,0,0,1.728-1.728,2.283,2.283,0,0,0-.354-1.062c-1.115-1.662-3.326-5.25-4.539-6.6a1.659,1.659,0,0,0-1.234-.59l-5.988.022V38.538l4.271,2.951a1.35,1.35,0,0,0,1.534-2.221l-6.675-4.6a1.9,1.9,0,0,0-.923-.247Zm-2.747,5.655a9.6,9.6,0,1,0,11.6,12.748l-1.427-2.157a7.562,7.562,0,1,1-10.173-8.348V40.073Z" transform="translate(279.447 150.546)" fill="#152049"/>
    <path id="ico_checkin-bike" d="M131.4,145.529a.956.956,0,0,0-.172.013l-3.5.014a.953.953,0,1,0,.008,1.907l3-.012,1.322,3.445H120.309v-.8h1.568a.954.954,0,1,0,0-1.907h-2.366a.944.944,0,0,0-.309,0h-2.369a.954.954,0,1,0,0,1.907H118.4v1.377l-2.963,2.693a7.555,7.555,0,0,0-4.17-1.252,7.757,7.757,0,1,0,7.611,8.707h4.8a.954.954,0,0,0,1-.513l8.483-7.711.433.852a7.647,7.647,0,1,0,4.294-1.335,7.543,7.543,0,0,0-2.6.46l-.97-1.911-1.98-5.162a.952.952,0,0,0-.386-.584l-.039-.027-.013-.008a.951.951,0,0,0-.5-.152ZM120.946,152.8h10.029l-6.893,6.265Zm-1.833.6,3.16,6.312h-3.394a7.772,7.772,0,0,0-1.98-4.3l2.213-2.012Zm-7.845,1.419a5.691,5.691,0,0,1,2.7.678l-4.911,4.464h0a.953.953,0,0,0,.641,1.659h7.254a5.771,5.771,0,1,1-5.687-6.8Zm26.615,0a5.85,5.85,0,1,1-5.762,5.847,5.858,5.858,0,0,1,2.337-4.707l2.6,5.133h0a.953.953,0,1,0,1.7-.862l-2.61-5.144a5.705,5.705,0,0,1,1.731-.267ZM115.5,156.687a5.851,5.851,0,0,1,1.457,3.026h-4.787Z" transform="translate(374.401 40.905)" fill="#152049" fill-rule="evenodd"/>
    <path id="ico_checkin-guitarra" d="M283.115,67.01a2.909,2.909,0,0,1,.113-2.659,5.83,5.83,0,0,0,.6-2.016,1.4,1.4,0,0,0-.116-.657.8.8,0,0,0-.257-.306,1.079,1.079,0,0,0-.1-.061c-.2-.105-.616-.251-.573.426,0,0,.014,1.9-.983,1.91,0,0-1.321.337-1.643-2.121l-.062-3.553-.177-10.222a3.159,3.159,0,0,1,.674-1.48s-.005-.045-.013-.127a32.245,32.245,0,0,1-.184-4.649l-.534.393-.506.141-.117.421-.1-.023a.246.246,0,0,0-.19-.208l-.3-.068a.246.246,0,0,0-.108.48l.3.068a.247.247,0,0,0,.261-.106l.089.02-.168.605-.137-.031a.246.246,0,0,0-.19-.209l-.3-.068a.246.246,0,0,0-.109.48l.3.068a.247.247,0,0,0,.261-.106l.129.029-.152.546-.165-.037a.246.246,0,0,0-.189-.208l-.3-.068a.246.246,0,0,0-.108.48l.3.068a.246.246,0,0,0,.261-.106l.156.035-.151.545-.123-.028a.247.247,0,0,0-.19-.208l-.3-.068a.246.246,0,1,0-.108.48l.3.068a.246.246,0,0,0,.261-.106l.116.026-.168.605-.162-.037a.246.246,0,0,0-.19-.209l-.3-.068a.246.246,0,0,0-.108.48l.3.068a.246.246,0,0,0,.261-.106l.155.035-.152.546-.19-.043a.245.245,0,0,0-.19-.208l-.3-.068a.246.246,0,0,0-.108.48l.3.068a.246.246,0,0,0,.261-.106l.182.041-.2.7a1.287,1.287,0,0,1,.459.562.787.787,0,0,1,.047.224V61.553a2,2,0,0,1-.294.2c-.548.318-1.722.685-2.3-1.511,0,0-.028-.965-.637-.768,0,0-1.143,1.03,0,3.652a7.169,7.169,0,0,1,.655,1.948,2.666,2.666,0,0,1-.067,1.286L274.295,69.4a3.4,3.4,0,0,0-.125,1.765,2.8,2.8,0,0,0,.825,1.474,4.629,4.629,0,0,0,1.912,1.032s7.173,1.291,7.494-2.458c0-.041.006-.084.008-.127a6.727,6.727,0,0,0-1.294-4.074Zm-4.885-1.6h2.057a.412.412,0,1,1,0,.824H278.23a.412.412,0,1,1,0-.824Z" transform="translate(351.072 -9.134) rotate(34)" fill="#152049"/>
  </g>
</svg>
