<svg xmlns="http://www.w3.org/2000/svg" width="42.367" height="33" viewBox="0 0 42.367 33">
  <g id="ico_vacations_traslados" transform="translate(-97.998 -83.713)">
    <path id="Path_1981" data-name="Path 1981" d="M277.66,88.656l1.548-4.063a1.469,1.469,0,0,1,1.277-.88H287a1.47,1.47,0,0,1,1.277.88l1.548,4.063Z" transform="translate(-164.559 0)" fill="#00a1ed"/>
    <path id="Path_1982" data-name="Path 1982" d="M139.565,141.4l-4.705.325-3.2-6.3a4.474,4.474,0,0,0-3.745-2.3H110.449a4.474,4.474,0,0,0-3.745,2.3l-3.2,6.3-4.7-.324a.744.744,0,0,0-.8.747v.9a1.755,1.755,0,0,0,.581,1.221l1.853,1.5v15.3a.9.9,0,0,0,.9.9h5.408a.9.9,0,0,0,.9-.9V159h23.077v2.073a.9.9,0,0,0,.9.9h5.408a.9.9,0,0,0,.9-.9v-15.3l1.853-1.5a1.763,1.763,0,0,0,.58-1.221v-.9a.743.743,0,0,0-.8-.748Zm-30.61-4.832a1.988,1.988,0,0,1,1.494-.917h17.465a1.987,1.987,0,0,1,1.494.917l4.435,8.73H104.52Zm-3.06,18.6a2.589,2.589,0,1,1,2.589-2.589A2.589,2.589,0,0,1,105.9,155.169Zm26.572,0a2.589,2.589,0,1,1,2.589-2.589,2.589,2.589,0,0,1-2.589,2.589Z" transform="translate(0 -45.262)" fill="#00a1ed"/>
  </g>
</svg>
