<svg xmlns="http://www.w3.org/2000/svg" width="19.982" height="19.982" viewBox="0 0 19.982 19.982">
  <path id="ico_checkin-info" d="M79.989,0a9.991,9.991,0,1,0,5,1.339,9.991,9.991,0,0,0-5-1.339Zm1.77,14.185-.122.408a.36.36,0,0,1-.12.18,3.025,3.025,0,0,1-2.419.569l.007-.01c-.022,0-.044-.007-.066-.013a1.366,1.366,0,0,1-1-1.654l.949-3.826c.228-.917-.778-.7-1.2-.573a.1.1,0,0,1-.121-.121l.122-.408a.36.36,0,0,1,.12-.18,3.026,3.026,0,0,1,2.42-.569s.053.009.079.016h0a1.366,1.366,0,0,1,1,1.654l-1,4.023c-.045.692.84.5,1.224.382h0a.1.1,0,0,1,.12.121Zm-.88-6.744a1.428,1.428,0,1,1,1.01-.418A1.429,1.429,0,0,1,80.879,7.441Z" transform="translate(-69.998)" fill="#00a1ed"/>
</svg>
