<svg xmlns="http://www.w3.org/2000/svg" width="51.342" height="31.723" viewBox="0 0 51.342 31.723">
  <g id="ico_vacations_desayunos" transform="translate(-103.786 -127.874)">
    <path id="Path_1983" data-name="Path 1983" d="M188.8,145.045a2.353,2.353,0,0,1,.629.569c.63,1.048-1.424,1.943-.347,2.858,1.254,1.061,2.809-2.1,1.819-3.743-.457-.761-1.261-1.111-1.625-1.513a1.337,1.337,0,0,1,.168-1.826,3.571,3.571,0,0,1,1.19-.608.859.859,0,0,0-.575-1.619c-3.546,1.263-3.449,4.284-1.259,5.882Z" transform="translate(-74.764 -10.061)" fill="#00a1ed"/>
    <path id="Path_1984" data-name="Path 1984" d="M241.817,147.257a.859.859,0,0,0,1.31,1.11,3.212,3.212,0,0,0,.608-3.643c-.457-.761-1.261-1.111-1.625-1.513a1.337,1.337,0,0,1,.168-1.826,3.572,3.572,0,0,1,1.19-.608.859.859,0,0,0-.575-1.619c-1.521.542-2.624,1.341-2.771,2.948-.307,3.317,3.734,2.744,1.695,5.15Z" transform="translate(-122.106 -10.057)" fill="#00a1ed"/>
    <path id="Path_1985" data-name="Path 1985" d="M317.557,149.41v.6a.855.855,0,0,1,.471.39c2.006,3.619,2.173,8.962.506,13.654h20.318V149.015c0-1.254.7-1.558.9-2.531.875-4.01-5.145-6.547-9.22-6.743-9.511-1-13.125,3.464-13.16,3.508a.863.863,0,0,1-.062.071c-1.819,1.863-1.24,3.345-.434,4.26a2.725,2.725,0,0,1,.678,1.83Zm17.5,10.555a.859.859,0,1,1-1.717,0v-6.7a.859.859,0,1,1,1.717,0Zm.054-14.275h.816a.859.859,0,1,1,0,1.717h-.816a.859.859,0,0,1,0-1.718Zm-2.557-3.288h.816a.859.859,0,1,1,0,1.717h-.816a.859.859,0,1,1,0-1.717Zm-3.155,3.319h.816a.859.859,0,1,1,0,1.717H329.4a.859.859,0,1,1,0-1.717Zm-2.288,7.549a.859.859,0,1,1,1.717,0v6.7a.859.859,0,1,1-1.717,0Zm-6.229,0a.859.859,0,1,1,1.717,0v6.7a.859.859,0,1,1-1.717,0Z" transform="translate(-190.188 -10.499)" fill="#00a1ed"/>
    <path id="Path_1986" data-name="Path 1986" d="M108.888,264.6a19.385,19.385,0,0,0,.894,3.238h16.736c1.664-4.19,1.683-9.029.051-12.378h-.046l-.013,0-.013,0H122.95v2.137l1.75,1.284a.859.859,0,0,1,.351.693v4.446a.859.859,0,0,1-.859.859h-4.205a.859.859,0,0,1-.859-.859v-4.446a.858.858,0,0,1,.351-.693l1.753-1.283v-2.138H110.284a.841.841,0,0,0-.789.517c-.146.37-.271.758-.384,1.155l-2.289-.28a.456.456,0,0,0-.112-.009,2.926,2.926,0,0,0-1.546,5.41l3.521,2.267a.814.814,0,0,0,.2.079Zm-2.8-3.8a1.211,1.211,0,0,1,.584-2.241l2.085.261a16.739,16.739,0,0,0-.129,3.618Z" transform="translate(0 -114.282)" fill="#00a1ed"/>
    <path id="Path_1987" data-name="Path 1987" d="M487.618,136.347c-.277,1.3-.865,1.532-.865,2.169v15.038h1.494V137.692a3.093,3.093,0,0,1,.589-1.767,2.632,2.632,0,0,0,.359-.894c.925-4.238-5.406-6.946-9.735-7.146-.051-.005-.1-.007-.149-.012,4.523.964,9.291,3.967,8.307,8.474Z" transform="translate(-336.372)" fill="#00a1ed"/>
    <path id="Path_1988" data-name="Path 1988" d="M171.262,390.651l-46.792-.006,1.92,4.325h45.346l1.92-4.325-2.394.006Z" transform="translate(-18.528 -235.374)" fill="#00a1ed"/>
    <path id="Path_1989" data-name="Path 1989" d="M267.42,294.411h2.488v-3.152l-1.242-.912-1.246.912Z" transform="translate(-146.573 -145.534)" fill="#00a1ed"/>
  </g>
</svg>
