<svg xmlns="http://www.w3.org/2000/svg" width="36.085" height="47.028" viewBox="0 0 36.085 47.028">
  <g id="ico_vacations_tours" transform="translate(-135.15 -0.001)">
    <path id="Path_1990" data-name="Path 1990" d="M197.04,20.352a4.469,4.469,0,1,1-5.366,3.339,4.469,4.469,0,0,1,5.366-3.339" transform="translate(-51.67 -18.534)" fill="#00a1ed"/>
    <path id="Path_1991" data-name="Path 1991" d="M138.933,158.1H139a8.432,8.432,0,0,0,3.157-.732c.479-.2.981-.44,1.511-.722.3-.161.61-.333.929-.522a1.589,1.589,0,0,0-1.622-2.733l-.116.068A8.642,8.642,0,0,1,139,154.923h-.014l-.027,0-.053,0h0c-.371-.024-.392-.1-.43-.124a1.013,1.013,0,0,1-.145-.633,4.483,4.483,0,0,1,.655-2.109v2.475h.052a8.777,8.777,0,0,0,3.733-1.475,1.955,1.955,0,0,1,.177-.09l.329-1.834a1.649,1.649,0,0,1-.208-1.273,1.462,1.462,0,1,1,2.835.667,1.652,1.652,0,0,1-.754,1.047l-.422,1.446a1.984,1.984,0,0,1,.072,3.453q-.674.4-1.287.711l-.469,1.606-1.1-.258.124-.693A8.529,8.529,0,0,1,139,158.5h-.018v20.954a2.456,2.456,0,0,0,4.913,0V163.9h.921v15.55a2.456,2.456,0,0,0,4.913,0V152.423c.184.111.377.216.58.315a5.964,5.964,0,0,0,2.59.61h.017a5.809,5.809,0,0,0,1.889-.328L156.333,148a7.464,7.464,0,0,1-1.891,1.7,2.988,2.988,0,0,1-1.543.468,2.774,2.774,0,0,1-1.213-.3,5.3,5.3,0,0,1-1.524-1.176,6.6,6.6,0,0,1-.436-.522c-.048-.064-.083-.114-.1-.143l-.02-.03h0a1.581,1.581,0,0,0-.911-.672,1.528,1.528,0,0,0-.5-.084h-7.675a1.529,1.529,0,0,0-.3.03,1.555,1.555,0,0,0-.322.062,6.529,6.529,0,0,0-3.463,2.791,7.662,7.662,0,0,0-1.284,4.031,4.089,4.089,0,0,0,.915,2.707,3.748,3.748,0,0,0,2.868,1.235Z" transform="translate(0 -134.878)" fill="#00a1ed"/>
    <path id="Path_1992" data-name="Path 1992" d="M399.89,148.715a1.588,1.588,0,0,0-.572-2.4l-1.352,4.444a13.01,13.01,0,0,0,1.924-2.04Z" transform="translate(-240.744 -134.022)" fill="#00a1ed"/>
    <path id="Path_1993" data-name="Path 1993" d="M351.414,25.031l2.4-7.88,1.517-4.986,1.041-3.424c1.41-.068,8.02-.275,12,1.54-2.556-6.348-8.611-8.824-9.665-9.214l.226-.743L357.87,0l-3.781,12.433-1.681,5.527-2.053,6.749Z" transform="translate(-197.133)" fill="#00a1ed"/>
  </g>
</svg>
