<svg xmlns="http://www.w3.org/2000/svg" width="40.577" height="25.266" viewBox="0 0 40.577 25.266">
  <g id="ico_vacations_impuestos" transform="translate(-84 -173.42)">
    <path id="Path_1994" data-name="Path 1994" d="M231.1,340.829l-16.97,8.028a6.208,6.208,0,0,1-4.168.41l-9.811-2.452v-9.456a11.785,11.785,0,0,1,10.336,1.087,3.333,3.333,0,0,0,1.2.464l6.669,1.176c.624.1.99.6.835,1.491a1.59,1.59,0,0,1-1.748,1.309h-8.44a.819.819,0,0,0-.813.66.807.807,0,0,0,.793.953h8.441a3.392,3.392,0,0,0,3.245-4.528l9.622-1.682a1.324,1.324,0,0,1,.233-.021,1.345,1.345,0,0,1,.574,2.56Z" transform="translate(-107.293 -150.768)" fill="#00a1ed"/>
    <path id="Path_1995" data-name="Path 1995" d="M85.037,325.89h5.438a1.114,1.114,0,0,1,1.037,1.037v10.2a1.037,1.037,0,0,1-1.037,1.037H85.037A1.114,1.114,0,0,1,84,337.127v-10.2A1.037,1.037,0,0,1,85.037,325.89Z" transform="translate(0 -140.841)" fill="#00a1ed"/>
    <path id="Path_1996" data-name="Path 1996" d="M315.056,141.42a6.924,6.924,0,1,0,4.9,2.028A6.924,6.924,0,0,0,315.056,141.42Zm.617,10.957v.7a.617.617,0,1,1-1.233,0v-.574a5.032,5.032,0,0,1-1.332-.211v-1.361a3.631,3.631,0,0,0,1.5.369c.9,0,1.445-.407,1.445-1.089,0-.627-.368-.985-1.407-1.369-1.388-.495-2.122-1.286-2.122-2.29h0a2.32,2.32,0,0,1,1.913-2.275v-.671a.617.617,0,1,1,1.233,0v.588a4.255,4.255,0,0,1,1.09.24V145.8a2.957,2.957,0,0,0-1.488-.4c-.739,0-1.235.4-1.235.992s.444.876,1.44,1.256c1.476.562,2.105,1.29,2.105,2.435a2.315,2.315,0,0,1-1.912,2.293Z" transform="translate(-206.808 32)" fill="#00a1ed"/>
  </g>
</svg>
