<svg xmlns="http://www.w3.org/2000/svg" width="49.092" height="35.243" viewBox="0 0 49.092 35.243">
  <g id="ico_vacations_plane" transform="translate(-84.003 -89.039)">
    <path id="Path_1997" data-name="Path 1997" d="M132.372,100.77a2.8,2.8,0,0,0,.723-1.86v-3.1a1.5,1.5,0,0,0-1.5-1.5h-4.134V90.486a1.444,1.444,0,0,0-1.447-1.447,1.479,1.479,0,0,0-1.447,1.447V94.31h-4.134a1.5,1.5,0,0,0-1.5,1.5v3.1a2.8,2.8,0,0,0,.723,1.86l2.842,3.2v16.433H84.882a.906.906,0,0,0-.878.878V123.4a.906.906,0,0,0,.878.878h47.335a.906.906,0,0,0,.878-.878v-2.119a.906.906,0,0,0-.878-.878H129.53V103.974Zm-2.946-1.4a.574.574,0,0,1-.568.568H123.07a.574.574,0,0,1-.568-.568V97.307a.574.574,0,0,1,.568-.568h5.788a.574.574,0,0,1,.568.568Z" fill="#00a1ed"/>
    <path id="Path_1998" data-name="Path 1998" d="M86.827,216.409a2.448,2.448,0,0,0,1.447.93l2.584.62a2.324,2.324,0,0,0,1.447-.1l22.221-8.63a2.116,2.116,0,0,0,.93-3.256,5.059,5.059,0,0,0-5.943-1.6l-5.168,2.17-10.077-4.858a1.735,1.735,0,0,0-1.343-.052l-2.739,1.085a.609.609,0,0,0-.155,1.033l6.924,5.943-7.6,3.2a.613.613,0,0,1-.517-.052l-1.964-1.4a.652.652,0,0,0-.62-.052l-1.809.672a.555.555,0,0,0-.258.827Z" transform="translate(-0.085 -102.1)" fill="#00a1ed"/>
  </g>
</svg>
