<svg xmlns="http://www.w3.org/2000/svg" width="39.645" height="35.914" viewBox="0 0 39.645 35.914">
  <path id="ico_vacations_hotel" d="M153.795,101.222h-4.714v-29.3a.925.925,0,0,0-.945-.945H141.6v30.243h-1.89V68.144a.945.945,0,0,0-.945-.945H121.749a.925.925,0,0,0-.945.945v33.078h-4.763a.945.945,0,1,0,0,1.89h37.754a.945.945,0,1,0,0-1.89ZM144.431,76.65h1.89a.945.945,0,0,1,0,1.89h-1.89a.945.945,0,0,1,0-1.89Zm0,5.67h1.89a.945.945,0,0,1,0,1.89h-1.89a.945.945,0,0,1,0-1.89Zm0,5.67h1.89a.945.945,0,1,1,0,1.89h-1.89a.945.945,0,0,1,0-1.89Zm0,5.67h1.89a.945.945,0,1,1,0,1.89h-1.89a.945.945,0,1,1,0-1.89ZM132.145,72.869h1.89a.945.945,0,0,1,0,1.89h-1.89a.945.945,0,1,1,0-1.89Zm0,5.67h1.89a.945.945,0,0,1,0,1.89h-1.89a.945.945,0,1,1,0-1.89Zm0,5.67h1.89a.945.945,0,1,1,0,1.89h-1.89a.945.945,0,1,1,0-1.89Zm0,5.67h1.89a.945.945,0,0,1,0,1.89h-1.89a.945.945,0,1,1,0-1.89Zm-5.67-17.012h1.89a.945.945,0,0,1,0,1.89h-1.89a.945.945,0,0,1,0-1.89Zm0,5.67h1.89a.945.945,0,0,1,0,1.89h-1.89a.945.945,0,1,1,0-1.89Zm0,5.67h1.89a.945.945,0,0,1,0,1.89h-1.89a.945.945,0,0,1,0-1.89Zm0,5.67h1.89a.945.945,0,0,1,0,1.89h-1.89a.945.945,0,0,1,0-1.89Zm4.725,11.341V97.442h-1.89v3.78h-1.89V96.5a.924.924,0,0,1,.945-.945h3.78a.945.945,0,0,1,.945.945v4.725Z" transform="translate(-115.096 -67.199)" fill="#00a1ed"/>
</svg>
