<svg id="ico_modal-error" xmlns="http://www.w3.org/2000/svg" width="40" height="40" viewBox="0 0 40 40">
  <path id="Path_1986" data-name="Path 1986" d="M27,7A20,20,0,1,0,47,27,20.027,20.027,0,0,0,27,7Zm0,39.024A19.024,19.024,0,1,1,46.024,27,19.049,19.049,0,0,1,27,46.024Z" transform="translate(-7 -7)" fill="#c90019"/>
  <path id="ico-wrong-modal" d="M159.822,72.829l-9.62,9.62,9.342,9.342a.4.4,0,0,1,0,.582.417.417,0,0,1-.3.111.583.583,0,0,1-.3-.111l-9.315-9.342-9.342,9.342a.417.417,0,0,1-.3.111.583.583,0,0,1-.3-.111.4.4,0,0,1,0-.582l9.37-9.342-9.62-9.62a.412.412,0,0,1,.582-.582l9.62,9.62,9.62-9.62a.412.412,0,0,1,.582.582Z" transform="translate(-129.858 -62.599)" fill="#c90019"/>
</svg>
