<svg xmlns="http://www.w3.org/2000/svg" width="46.116" height="36.834" viewBox="0 0 46.116 36.834">
  <g id="ico_extras_asistencia" transform="translate(-2.84 -8.71)">
    <path id="Path_1975" data-name="Path 1975" d="M49.466,39.353a2.142,2.142,0,0,0-.791-.055,5.883,5.883,0,0,0-1.091.261c-3.162,1-6.325,2.142-9.621,2.909a24.84,24.84,0,0,1-9.969.546,3.289,3.289,0,0,1-1.708-.664A1.3,1.3,0,0,1,26,40.689c.387-.522,1.162-.506,1.81-.459a66.061,66.061,0,0,0,7.431,0h.427a6.008,6.008,0,0,0,2.475-.451,2.063,2.063,0,0,0,1.233-2.024c-.19-1.2-1.652-1.684-2.854-1.866q-.7-.1-1.391-.174c-2.475-.285-4.981-.411-7.424-.9-2.72-.545-5.336-1.526-8.056-2.079a16.262,16.262,0,0,0-5.147-.316,11.36,11.36,0,0,0-2.53.617,1.431,1.431,0,0,0-.482.277c-.364.332-.332.791-.34,1.494q-.04,5.447-.079,10.886a3.162,3.162,0,0,0,.332,1.763l.087.119a3.281,3.281,0,0,0,1.81.941A40.747,40.747,0,0,0,31.892,49a78.078,78.078,0,0,0,12.863-4.364l4.3-1.739a3.376,3.376,0,0,0,1.178-.672,1.787,1.787,0,0,0-.767-2.87ZM35.734,37.131a.474.474,0,0,1,.514-.435h.727a1.265,1.265,0,0,1,1.273,1.281,1.162,1.162,0,0,1-.411.791,1.336,1.336,0,0,1-.917.308h-.791a.49.49,0,0,1-.419-.253.435.435,0,0,1-.047-.221l.071-1.455Z" transform="translate(-1.721 -4.949)" fill="#021d49"/>
    <path id="Path_1976" data-name="Path 1976" d="M8.034,34.116a4.744,4.744,0,0,1,.126-1.273,2.372,2.372,0,0,1,.213-.522,2.221,2.221,0,0,1,.451-.561,2.8,2.8,0,0,1,.925-.546v-.237A1.051,1.051,0,0,0,8.667,29.95H3.923A1.051,1.051,0,0,0,2.84,30.978V48.963a1.059,1.059,0,0,0,1.083,1.028H8.667A1.059,1.059,0,0,0,9.75,48.963v-.182A3.312,3.312,0,0,1,8.675,47.9h0L8.5,47.659a4.4,4.4,0,0,1-.546-2.514Zm-2.609-.435a.787.787,0,1,0,0-.008Z" transform="translate(0 -4.448)" fill="#021d49"/>
    <path id="Path_1977" data-name="Path 1977" d="M49.116,10.813a21.638,21.638,0,0,1-6.072-1.637,3.51,3.51,0,0,0-1.138-.466,3.486,3.486,0,0,0-1.692.64,10.554,10.554,0,0,1-1.9.7,24.4,24.4,0,0,1-3.668.791A.743.743,0,0,0,34,11.58v5.431a13.441,13.441,0,0,0,.134,1.858,13.914,13.914,0,0,0,1.921,5.226,13.345,13.345,0,0,0,1.4,1.882h0a13.558,13.558,0,0,0,3.257,2.7c.419.245.909.648,1.431.474a6.863,6.863,0,0,0,1.486-.791,13.44,13.44,0,0,0,2.664-2.372,13.938,13.938,0,0,0,3.162-6.325,12.065,12.065,0,0,0,.293-2.427V11.548a.743.743,0,0,0-.632-.735Zm-8,6.135H35.921V12.536a25.56,25.56,0,0,0,2.957-.672,21.013,21.013,0,0,0,2.277-.791ZM42.6,26.672V18.426h5.123a11.938,11.938,0,0,1-5.083,8.254Z" transform="translate(-6.525)" fill="#0082be"/>
  </g>
</svg>
