<svg xmlns="http://www.w3.org/2000/svg" width="62.251" height="51.502" viewBox="0 0 62.251 51.502">
  <g id="ico_check-in-menores" transform="translate(-405.749 -164.249)">
    <g id="ico_checkin-baby" transform="translate(-9 0.249)">
      <path id="Path_2014" data-name="Path 2014" d="M332.489,113.83a4.5,4.5,0,1,1-4.5-4.5,4.5,4.5,0,0,1,4.5,4.5" transform="translate(139.044 54.675)" fill="#152049"/>
      <path id="Path_2015" data-name="Path 2015" d="M301.42,186.762l-2.711-6.2-.025,0a5.506,5.506,0,0,0-5.09-4.018h-5.07a5.477,5.477,0,0,0-5.023,3.805l-2.8,6.414a1.3,1.3,0,0,0,.493,1.643l3.015,1.682-2.114,12.573-.061.358c0,.094.008.208.019.335a13.146,13.146,0,0,0,4,.776V215.9a2.005,2.005,0,0,0,4.011,0V204.326c.328.005.658.008,1,.008s.668,0,1-.008V215.9a2.005,2.005,0,0,0,4.011,0v-11.77a13.137,13.137,0,0,0,4-.776c.012-.127.019-.241.019-.335l-.06-.358-2.115-12.573,3.015-1.682a1.3,1.3,0,0,0,.494-1.642Zm-12.393,2.662a1.6,1.6,0,0,0-.676-1.986l-3.855-2.255a.388.388,0,0,0-.048-.021,2.608,2.608,0,0,1,5.207-.048,5.77,5.77,0,0,1,2.052-.546c2.281-.183,4.228.906,4.35,2.431s-1.629,2.905-3.909,3.087a5.226,5.226,0,0,1-3.121-.661Z" transform="translate(175.469 -2.402)" fill="#152049"/>
    </g>
    <g id="ico_checkin-kid" transform="translate(-166.003 164.638)">
      <path id="Path_2016" data-name="Path 2016" d="M440.928,74a2.9,2.9,0,1,1-2.9-2.9,2.9,2.9,0,0,1,2.9,2.9" transform="translate(141.353 -47.093)" fill="#152049"/>
      <path id="Path_2017" data-name="Path 2017" d="M375.472,112.024a1.056,1.056,0,1,0-1.989-.71,10.446,10.446,0,0,1-2.972,3.71,6.3,6.3,0,0,0-5.206,0,10.43,10.43,0,0,1-2.971-3.71,1.056,1.056,0,0,0-1.99.71,11.567,11.567,0,0,0,4.528,5.651v3.35l-2.215,5.536a.278.278,0,0,0,.278.41h1.978l.361,7.062a.479.479,0,0,0,.472.449h1.039a.479.479,0,0,0,.473-.449l.36-7.062h.582l.361,7.062a.476.476,0,0,0,.471.449h1.039a.476.476,0,0,0,.471-.449l.361-7.062h1.979a.278.278,0,0,0,.277-.41l-2.215-5.536v-3.35a11.571,11.571,0,0,0,4.528-5.651Z" transform="translate(211.469 -84.119)" fill="#152049"/>
      <rect id="Rectangle_17170" data-name="Rectangle 17170" width="5" height="9" rx="2" transform="translate(587.003 41.362)" fill="#152049"/>
      <rect id="Rectangle_17171" data-name="Rectangle 17171" width="1" height="2" transform="translate(589.003 40.362)" fill="#152049"/>
    </g>
  </g>
</svg>
