<svg xmlns="http://www.w3.org/2000/svg" width="58.772" height="47.037" viewBox="0 0 58.772 47.037">
  <path id="ico_modal-plane" d="M163.734,84.522a.824.824,0,0,0-.135-.242c-.008-.009-.009-.021-.017-.03s-.028-.02-.04-.033a.713.713,0,0,0-.065-.071.762.762,0,0,0-.1-.061c-.023-.014-.044-.03-.067-.042a.82.82,0,0,0-.261-.084h-.022a.839.839,0,0,0-.251.014c-.028.006-.054.015-.082.023a.861.861,0,0,0-.1.027l-57.1,25.344a.84.84,0,0,0,.177,1.591l16.078,3.2,5.78,16.274,0,0c0,.008.01.015.013.024a.827.827,0,0,0,.144.235c.007.009.01.021.018.029s.032.019.046.032a.834.834,0,0,0,.193.135c.027.014.051.029.079.039a.823.823,0,0,0,.3.06h.031a.832.832,0,0,0,.267-.054c.013-.005.024-.015.037-.021a.83.83,0,0,0,.214-.134c.008-.007.018-.009.025-.016l13.546-12.646,11.84,2.57a.842.842,0,0,0,.994-.624l8.475-35.077a.812.812,0,0,0,.01-.106.709.709,0,0,0,.008-.083.832.832,0,0,0-.038-.272l0,0Zm-55.131,25.3L155.52,89,122.2,112.535Zm19.621,17.527-4.832-13.607,31.869-22.506L131.872,114.5c-.013.013-.017.03-.029.043a1.274,1.274,0,0,0-.167.285c-.006.016-.018.029-.022.045Zm1.7.159,3.14-11.431,7.386,1.6Zm23.917-8.641L134.15,114.6l27.275-27.121Z" transform="translate(-105.004 -83.955)" fill="#00a1ed"/>
</svg>
