<svg xmlns="http://www.w3.org/2000/svg" width="41.544" height="33.558" viewBox="0 0 41.544 33.558">
  <path id="ico_modal-send-mail" d="M139.539,77.23v-.185c0-.046,0-.046-.046-.092v-.046a.045.045,0,0,0-.046-.046l-.046-.046a.045.045,0,0,1-.046-.046.161.161,0,0,0-.092-.046h-.277L98.273,93.063a.53.53,0,0,0-.277.415.485.485,0,0,0,.231.415l10.524,5.262,4.339,10.57a.524.524,0,0,0,.138.369.045.045,0,0,1,.046.046.419.419,0,0,0,.323.138h.046c.184-.046.369-.184.369-.369l4.8-5.4,6.739,3.278a.278.278,0,0,0,.184.046.17.17,0,0,0,.138-.046.472.472,0,0,0,.277-.231l13.34-30.234v-.046a.045.045,0,0,0,.046-.046Zm-25.2,24.28c-.046.046-.046.046-.046.092a.17.17,0,0,0-.046.138l-.831,6.278-3.693-9.047,25.2-18.233Zm21.51-22.572L109.074,98.279l-9.509-4.754Zm-21.6,29.311.739-5.724,3,1.477Zm11.263-1.477L115.4,101.695l22.295-22.48Z" transform="translate(-97.996 -76.723)" fill="#33b5e5"/>
</svg>
