<svg id="ico_flight_time" xmlns="http://www.w3.org/2000/svg" width="12.116" height="11.956" viewBox="0 0 12.116 11.956">
  <path id="Path_2" data-name="Path 2" d="M34.558,31.5a6.058,6.058,0,0,0-4.282,1.749,5.922,5.922,0,0,0,0,8.457,6.114,6.114,0,0,0,8.563,0,5.922,5.922,0,0,0,0-8.457A6.058,6.058,0,0,0,34.558,31.5Zm0,11.157a5.18,5.18,0,1,1,5.259-5.179A5.226,5.226,0,0,1,34.558,42.657Z" transform="translate(-28.5 -31.5)" fill="#8e969b"/>
  <path id="Path_3" data-name="Path 3" d="M242.065,116.689l-2.266-1.744V111.5a.4.4,0,0,0-.8,0v3.643a.392.392,0,0,0,.152.317l2.426,1.864a.392.392,0,0,0,.242.083.4.4,0,0,0,.245-.716Z" transform="translate(-233.395 -108.98)" fill="#8e969b"/>
</svg>
