<svg xmlns="http://www.w3.org/2000/svg" width="27.436" height="27.436" viewBox="0 0 27.436 27.436">
  <path id="ico_flight" d="M27.1,13.524l.024-.7A1,1,0,0,0,26.092,11.8l-.7.024a.946.946,0,0,0-.6.24L19.33,16.617,9.4,15.8a.9.9,0,0,0-.719.264l-.983.983,7.889,3.789-3.645,4.1-2.806.144a.387.387,0,0,0-.312.144l-.384.384L11.7,27.216l1.607,3.261.384-.384a.422.422,0,0,0,.144-.312l.12-2.83,4.148-3.669,3.813,7.889.983-.983a.9.9,0,0,0,.264-.719l-.815-9.927,4.556-5.467A1.254,1.254,0,0,0,27.1,13.524Z" transform="translate(16.598 -13.786) rotate(45)" fill="#021d49"/>
</svg>
