<svg xmlns="http://www.w3.org/2000/svg" width="11.625" height="15.123" viewBox="0 0 11.625 15.123">
  <g id="noun_safety_assurance_4313877" data-name="noun_safety assurance_4313877" transform="translate(77.525 -28.935)">
    <path id="Path_1977" data-name="Path 1977" d="M45.158,10.262a15.973,15.973,0,0,1-4.482-1.208,2.591,2.591,0,0,0-.84-.344,2.574,2.574,0,0,0-1.249.473,7.791,7.791,0,0,1-1.4.519,18.01,18.01,0,0,1-2.708.584.549.549,0,0,0-.479.543v4.009a9.921,9.921,0,0,0,.1,1.371,10.271,10.271,0,0,0,1.418,3.858,9.851,9.851,0,0,0,1.033,1.389h0a10.009,10.009,0,0,0,2.4,2c.309.181.671.479,1.056.35a5.066,5.066,0,0,0,1.1-.584,9.921,9.921,0,0,0,1.967-1.751A10.289,10.289,0,0,0,45.409,16.8a8.906,8.906,0,0,0,.216-1.792v-4.2a.549.549,0,0,0-.467-.543Zm-5.906,4.529H35.418V11.535a18.867,18.867,0,0,0,2.183-.5,15.511,15.511,0,0,0,1.681-.584Zm1.1,7.178V15.882h3.782a8.812,8.812,0,0,1-3.753,6.093Z" transform="translate(-111.525 20.225)" fill="#00a1ed"/>
  </g>
</svg>
