<svg xmlns="http://www.w3.org/2000/svg" width="15.3" height="20.946" viewBox="0 0 15.3 20.946">
  <g id="ico_fares_boarding" transform="translate(-9.7 -1)">
    <path id="Path_279" data-name="Path 279" d="M13.83,39.119H13.7V36.857a.569.569,0,0,0-.524-.557,3.4,3.4,0,0,1-.131.328h.1a.224.224,0,0,1,.229.229v2.262H10.618V36.857a.224.224,0,0,1,.229-.229h.59a1.025,1.025,0,0,1-.164-.328h-.426a.574.574,0,0,0-.557.557v2.262h-.131a.442.442,0,0,0-.459.426v4.949a.442.442,0,0,0,.459.426h.131v.262a.332.332,0,0,0-.131.229.268.268,0,0,0,.295.262.289.289,0,0,0,.295-.262.332.332,0,0,0-.131-.229V44.92H13.4v.262a.247.247,0,0,0-.131.229.268.268,0,0,0,.295.262.289.289,0,0,0,.295-.262.332.332,0,0,0-.131-.229V44.92h.131a.442.442,0,0,0,.459-.426V39.545A.5.5,0,0,0,13.83,39.119Zm0,5.146H10.159a.164.164,0,1,1,0-.328H13.8a.155.155,0,0,1,.164.164A.132.132,0,0,1,13.83,44.265Zm0-1.049H10.159a.164.164,0,0,1,0-.328H13.8a.155.155,0,0,1,.164.164A.132.132,0,0,1,13.83,43.216Zm0-1.049H10.159a.164.164,0,1,1,0-.328H13.8a.155.155,0,0,1,.164.164A.132.132,0,0,1,13.83,42.167Zm0-1.049H10.159a.164.164,0,1,1,0-.328H13.8a.155.155,0,0,1,.164.164A.132.132,0,0,1,13.83,41.118Zm0-1.049H10.159a.164.164,0,1,1,0-.328H13.83a.155.155,0,0,1,.164.164A.176.176,0,0,1,13.83,40.069Z" transform="translate(0 -23.73)" fill="#00a1ed"/>
    <path id="Path_280" data-name="Path 280" d="M23.361,22.842l.066-.918a.6.6,0,0,1-.524-.59V19.3a.489.489,0,0,1,.1-.328,8.993,8.993,0,0,1,.426-5.31,4.291,4.291,0,0,0-5.31.361c-.59.295-2.294,2.655-2.622,6.293a.661.661,0,0,0,.59.721h.066a.671.671,0,0,0,.656-.59,10.449,10.449,0,0,1,1.409-4.49l.524,6.916a.279.279,0,0,0,.1.164l-.328,5.867a.99.99,0,0,0,.918,1.049,1.011,1.011,0,0,0,1.049-.918l.328-5.9v-.066H21.3v.066l.328,5.9a.985.985,0,1,0,1.967-.131l-.328-5.867A.283.283,0,0,0,23.361,22.842Z" transform="translate(-3.893 -8.011)" fill="#00a1ed"/>
    <path id="Path_281" data-name="Path 281" d="M39.584,15.864h0c-.1-.066-.164-.1-.262-.164a9,9,0,0,0-.426,4.916c.033,0,.361-.1.393-.1l.229-2.917a2.807,2.807,0,0,0,1.672.623,2.111,2.111,0,0,0,1.54-.656l-.688-1.213C40.993,17.765,39.912,16.028,39.584,15.864Z" transform="translate(-19.494 -9.882)" fill="#00a1ed"/>
    <path id="Path_282" data-name="Path 282" d="M53.957,11.452a.655.655,0,0,0-.459-.819.12.12,0,0,1-.1-.033l.524.918C53.957,11.518,53.957,11.485,53.957,11.452Z" transform="translate(-29.377 -6.454)" fill="#00a1ed"/>
    <circle id="Ellipse_27" data-name="Ellipse 27" cx="1.901" cy="1.901" r="1.901" transform="translate(15.239 1)" fill="#00a1ed"/>
    <rect id="Rectangle_16938" data-name="Rectangle 16938" width="1.803" height="2.819" transform="matrix(0.868, -0.497, 0.497, 0.868, 22.035, 4.904)" fill="#00a1ed"/>
    <path id="Path_283" data-name="Path 283" d="M41.232,24.166A1.165,1.165,0,0,1,40.9,24.1a5.87,5.87,0,0,1-.164,2.13l-1.278.328a.289.289,0,0,0-.262.295v2.032a.294.294,0,0,0,.295.295l1.442-.361a.289.289,0,0,0,.262-.295V26.493a.247.247,0,0,0-.131-.229A6.565,6.565,0,0,0,41.232,24.166Z" transform="translate(-19.831 -15.529)" fill="#00a1ed"/>
  </g>
</svg>
