<svg xmlns="http://www.w3.org/2000/svg" width="23.741" height="21.709" viewBox="0 0 23.741 21.709">
  <g id="ico_fares_baggagex2" transform="translate(-435.728 -717.291)">
    <g id="ico_fares_baggage" transform="translate(432.395 432.462)">
      <path id="Path_274" data-name="Path 274" d="M7.661,284.829a1.226,1.226,0,0,0-1.226,1.225v4.54H5.084a1.752,1.752,0,0,0-1.751,1.752v11.261a1.752,1.752,0,0,0,1.22,1.669v.6a.348.348,0,0,0,.347.349H6.151a.348.348,0,0,0,.347-.349v-.521h4.762v.521a.348.348,0,0,0,.348.349h1.25a.348.348,0,0,0,.348-.349v-.6a1.751,1.751,0,0,0,1.22-1.669V292.347a1.752,1.752,0,0,0-1.751-1.752H11.322v-4.54a1.226,1.226,0,0,0-1.225-1.226Zm0,.349H10.1a.877.877,0,0,1,.877.877v4.54H6.783v-4.54a.877.877,0,0,1,.878-.877Zm-.517,7.766h3.471a.174.174,0,1,1,0,.349H7.144a.174.174,0,1,1,0-.349ZM4.872,295.18h8.015V303.2H4.872Z" transform="translate(0 0)" fill="#00a1ed"/>
      <path id="Path_275" data-name="Path 275" d="M11.676,297.974v-7.324H4.359v7.324Z" transform="translate(0.86 4.879)" fill="#00a1ed"/>
    </g>
    <g id="ico_fares_baggage-2" data-name="ico_fares_baggage" transform="translate(445.043 432.771)">
      <path id="Path_274-2" data-name="Path 274" d="M7.661,284.829a1.226,1.226,0,0,0-1.226,1.225v4.54H5.084a1.752,1.752,0,0,0-1.751,1.752v11.261a1.752,1.752,0,0,0,1.22,1.669v.6a.348.348,0,0,0,.347.349H6.151a.348.348,0,0,0,.347-.349v-.521h4.762v.521a.348.348,0,0,0,.348.349h1.25a.348.348,0,0,0,.348-.349v-.6a1.751,1.751,0,0,0,1.22-1.669V292.347a1.752,1.752,0,0,0-1.751-1.752H11.322v-4.54a1.226,1.226,0,0,0-1.225-1.226Zm0,.349H10.1a.877.877,0,0,1,.877.877v4.54H6.783v-4.54a.877.877,0,0,1,.878-.877Zm-.517,7.766h3.471a.174.174,0,1,1,0,.349H7.144a.174.174,0,1,1,0-.349ZM4.872,295.18h8.015V303.2H4.872Z" transform="translate(0 0)" fill="#00a1ed"/>
      <path id="Path_275-2" data-name="Path 275" d="M11.676,297.974v-7.324H4.359v7.324Z" transform="translate(0.86 4.879)" fill="#00a1ed"/>
    </g>
  </g>
</svg>
