<svg xmlns="http://www.w3.org/2000/svg" width="11.092" height="21.4" viewBox="0 0 11.092 21.4">
  <g id="ico_fares_baggage" transform="translate(-3.333 -284.829)">
    <path id="Path_274" data-name="Path 274" d="M7.661,284.829a1.226,1.226,0,0,0-1.226,1.225v4.54H5.084a1.752,1.752,0,0,0-1.751,1.752v11.261a1.752,1.752,0,0,0,1.22,1.669v.6a.348.348,0,0,0,.347.349H6.151a.348.348,0,0,0,.347-.349v-.521h4.762v.521a.348.348,0,0,0,.348.349h1.25a.348.348,0,0,0,.348-.349v-.6a1.751,1.751,0,0,0,1.22-1.669V292.347a1.752,1.752,0,0,0-1.751-1.752H11.322v-4.54a1.226,1.226,0,0,0-1.225-1.226Zm0,.349H10.1a.877.877,0,0,1,.877.877v4.54H6.783v-4.54a.877.877,0,0,1,.878-.877Zm-.517,7.766h3.471a.174.174,0,1,1,0,.349H7.144a.174.174,0,1,1,0-.349ZM4.872,295.18h8.015V303.2H4.872Z" transform="translate(0 0)" fill="#00a1ed"/>
    <path id="Path_275" data-name="Path 275" d="M11.676,297.974v-7.324H4.359v7.324Z" transform="translate(0.86 4.879)" fill="#00a1ed"/>
  </g>
</svg>
