<svg xmlns="http://www.w3.org/2000/svg" width="11.092" height="11.092" viewBox="0 0 11.092 11.092">
  <g id="ico_fares_hand-baggage" transform="translate(-1 -1)">
    <path id="Path_276" data-name="Path 276" d="M12.916,2.109A1.109,1.109,0,0,0,11.807,1H8.849A1.109,1.109,0,0,0,7.739,2.109V3.218H7v8.874h6.655V3.218h-.739Zm-4.437,0a.37.37,0,0,1,.37-.37h2.958a.37.37,0,0,1,.37.37V3.218h-3.7Z" transform="translate(-3.782)" fill="#00a1ed"/>
    <path id="Path_277" data-name="Path 277" d="M1,8.109v6.655a1.109,1.109,0,0,0,1.109,1.109h.37V7h-.37A1.109,1.109,0,0,0,1,8.109Z" transform="translate(0 -3.782)" fill="#00a1ed"/>
    <path id="Path_278" data-name="Path 278" d="M27.37,7H27v8.874h.37a1.109,1.109,0,0,0,1.109-1.109V8.109A1.109,1.109,0,0,0,27.37,7Z" transform="translate(-16.387 -3.782)" fill="#00a1ed"/>
  </g>
</svg>
