<svg xmlns="http://www.w3.org/2000/svg" width="25" height="25" viewBox="0 0 25 25">
  <g id="noun_currency_1923750" transform="translate(-3 -3)">
    <path id="Path_2026" data-name="Path 2026" d="M15.5,3A12.5,12.5,0,1,0,28,15.5,12.5,12.5,0,0,0,15.5,3Zm0,23.611A11.111,11.111,0,1,1,26.611,15.5,11.111,11.111,0,0,1,15.5,26.611Zm3.549-10.746a3.416,3.416,0,0,1,1.151,2.7c0,2.188-1.576,3.6-4.006,3.827v1.437H14.806V22.4A5.763,5.763,0,0,1,10.8,20.641l1-1a4.687,4.687,0,0,0,3.721,1.5c2,0,3.223-.94,3.223-2.532a2.2,2.2,0,0,0-.651-1.708,2.951,2.951,0,0,0-1.785-.651L14.715,16A4.961,4.961,0,0,1,12.2,14.963a3.228,3.228,0,0,1-1.037-2.551,3.718,3.718,0,0,1,3.641-3.8V7.167h1.389V8.6a5.335,5.335,0,0,1,3.411,1.45l-.94.94a4.3,4.3,0,0,0-3.184-1.17A2.524,2.524,0,0,0,12.6,12.354a1.967,1.967,0,0,0,.614,1.573,3.929,3.929,0,0,0,1.842.748l1.5.23a4.4,4.4,0,0,1,2.493.96Z" transform="translate(0 0)" fill="#00a1ed"/>
  </g>
</svg>
