<svg xmlns="http://www.w3.org/2000/svg" width="30.045" height="27.384" viewBox="0 0 30.045 27.384">
  <g id="noun_Language_3325148" transform="translate(47.44 165.75)">
    <g id="Group_84" data-name="Group 84" transform="translate(-49 -170)">
      <path id="Path_2050" data-name="Path 2050" d="M28.253,13.136H20.26V7.612A3.367,3.367,0,0,0,16.9,4.25H4.922A3.367,3.367,0,0,0,1.56,7.612V15.1a3.322,3.322,0,0,0,.568,1.861c1.185,2.281,6.65,5.653,6.709,5.687a.77.77,0,0,0,.385.109.736.736,0,0,0,.686-1.017,20.626,20.626,0,0,1-.918-3.3h3.949v5.529a3.362,3.362,0,0,0,3.337,3.357h7.9a20.625,20.625,0,0,1-.918,3.288.736.736,0,0,0,.686,1.017.77.77,0,0,0,.385-.109c.059-.035,5.524-3.406,6.709-5.687a3.322,3.322,0,0,0,.568-1.866V16.5a3.367,3.367,0,0,0-3.352-3.362ZM11.4,16.962H8.1a.76.76,0,0,0-.563.262.736.736,0,0,0-.168.592c0,.069.178,1.14.494,2.414C6.205,19.075,4.023,17.4,3.421,16.281a.745.745,0,0,0-.074-.138,1.8,1.8,0,0,1-.336-1.066V7.612A1.886,1.886,0,0,1,4.922,5.731H16.9a1.886,1.886,0,0,1,1.881,1.881v5.524h-2.5a3.362,3.362,0,0,0-2.528,1.15,4.31,4.31,0,0,1-1.525-.331,6.418,6.418,0,0,0,1.367-3.411h.4a.741.741,0,1,0,0-1.481h-2.34V7.745a.741.741,0,0,0-1.481,0V9.063H7.864a.741.741,0,1,0,0,1.481H12.1a4.877,4.877,0,0,1-1.086,2.567,5,5,0,0,1-.987-1.649A.741.741,0,0,0,8.644,12,6.655,6.655,0,0,0,9.8,13.97a4.853,4.853,0,0,1-1.911.351h0a.741.741,0,0,0,0,1.481h0a5.959,5.959,0,0,0,3.125-.815,5.238,5.238,0,0,0,2,.716,3.234,3.234,0,0,0-.1.79v.494Zm18.76,7.01a1.8,1.8,0,0,1-.336,1.066.706.706,0,0,0-.074.133c-.583,1.106-2.77,2.789-4.443,3.949a20.966,20.966,0,0,0,.494-2.414.736.736,0,0,0-.168-.592.75.75,0,0,0-.558-.267h-8.8A1.881,1.881,0,0,1,14.4,23.972V16.5a1.886,1.886,0,0,1,1.881-1.881H28.253A1.886,1.886,0,0,1,30.134,16.5ZM24.94,21.227h0l-1.975-4.937h0a.4.4,0,0,0-.039-.079l-.03-.049a.316.316,0,0,0-.049-.064l-.039-.049L22.753,16l-.059-.03a.193.193,0,0,0-.054-.03l-.074-.039h0a.173.173,0,0,0-.054,0l-.074-.025h-.286l-.084.025a.188.188,0,0,0-.049,0h0l-.074.039-.074.03a.43.43,0,0,0-.054.044l-.054.044-.044.049a.726.726,0,0,0-.049.064v.049l-.044.079h0l-1.975,4.937h0l-.987,2.468a.741.741,0,0,0,.415.987.671.671,0,0,0,.276.054.745.745,0,0,0,.686-.464l.8-2H23.8l.8,2a.75.75,0,0,0,.691.464.667.667,0,0,0,.272-.054.741.741,0,0,0,.415-.987Zm-3.54-.454.884-2.2.879,2.2Z" transform="translate(0 0)" fill="#33b5e5"/>
    </g>
  </g>
</svg>
