<svg xmlns="http://www.w3.org/2000/svg" width="27.81" height="34.554" viewBox="0 0 27.81 34.554">
  <g id="noun_weather_4405544" transform="translate(-7.97 -1.88)">
    <g id="Path_2033" data-name="Path 2033" transform="translate(-12.558 -2.713)" fill="#00a1ed">
      <path d="M 40.82822799682617 17.34645843505859 C 38.25415802001953 17.34645843505859 36.15999984741211 15.25229835510254 36.15999984741211 12.6782283782959 C 36.15999984741211 10.10415840148926 38.25415802001953 8.009998321533203 40.82822799682617 8.009998321533203 C 43.39925003051758 8.009998321533203 45.49091720581055 10.10415840148926 45.49091720581055 12.6782283782959 C 45.49091720581055 15.25229835510254 43.39925003051758 17.34645843505859 40.82822799682617 17.34645843505859 Z M 40.82822799682617 8.924008369445801 C 38.75813674926758 8.924008369445801 37.07399749755859 10.6081485748291 37.07399749755859 12.6782283782959 C 37.07399749755859 14.7483081817627 38.75813674926758 16.43244743347168 40.82822799682617 16.43244743347168 C 42.89525985717773 16.43244743347168 44.57691955566406 14.7483081817627 44.57691955566406 12.6782283782959 C 44.57691955566406 10.6081485748291 42.89525985717773 8.924008369445801 40.82822799682617 8.924008369445801 Z" stroke="none"/>
      <path d="M 40.82822799682617 8.05999755859375 C 38.28100967407227 8.05999755859375 36.20999908447266 10.13100814819336 36.20999908447266 12.6782283782959 C 36.20999908447266 15.22544860839844 38.28100967407227 17.29645919799805 40.82822799682617 17.29645919799805 C 43.36990737915039 17.29645919799805 45.44091796875 15.22544860839844 45.44091796875 12.6782283782959 C 45.44091796875 10.13100814819336 43.36990737915039 8.05999755859375 40.82822799682617 8.05999755859375 M 40.82822799682617 16.48244857788086 C 38.72953796386719 16.48244857788086 37.02399826049805 14.77691841125488 37.02399826049805 12.6782283782959 C 37.02399826049805 10.57953834533691 38.72953796386719 8.874008178710938 40.82822799682617 8.874008178710938 C 42.92137908935547 8.874008178710938 44.62691879272461 10.57953834533691 44.62691879272461 12.6782283782959 C 44.62691879272461 14.77691841125488 42.92691802978516 16.48244857788086 40.82822799682617 16.48244857788086 M 40.82822799682617 7.959999084472656 C 43.42681884765625 7.959999084472656 45.54092025756836 10.07658863067627 45.54092025756836 12.6782283782959 C 45.54092025756836 15.27986812591553 43.42681884765625 17.39645767211914 40.82822799682617 17.39645767211914 C 38.22658920288086 17.39645767211914 36.1099967956543 15.27986812591553 36.1099967956543 12.6782283782959 C 36.1099967956543 10.07658863067627 38.22658920288086 7.959999084472656 40.82822799682617 7.959999084472656 Z M 40.82822799682617 16.38244819641113 C 42.8676872253418 16.38244819641113 44.52692031860352 14.72073841094971 44.52692031860352 12.6782283782959 C 44.52692031860352 10.63571834564209 42.8676872253418 8.974008560180664 40.82822799682617 8.974008560180664 C 38.78570938110352 8.974008560180664 37.12399673461914 10.63571834564209 37.12399673461914 12.6782283782959 C 37.12399673461914 14.72073841094971 38.78570938110352 16.38244819641113 40.82822799682617 16.38244819641113 Z" stroke="none" fill="#00a1ed"/>
    </g>
    <g id="Path_2034" data-name="Path 2034" transform="translate(-15.954 -0.464)" fill="#00a1ed">
      <path d="M 44.22413635253906 4.891819477081299 C 44.09881591796875 4.891819477081299 43.98209762573242 4.842909336090088 43.89547729492188 4.754099369049072 C 43.81153869628906 4.668039321899414 43.76694869995117 4.555189609527588 43.76991653442383 4.436339378356934 L 43.7698974609375 3.424229383468628 C 43.7698974609375 3.173769474029541 43.97366714477539 2.969999313354492 44.22413635253906 2.969999313354492 C 44.4745979309082 2.969999313354492 44.67836761474609 3.173769474029541 44.67836761474609 3.424229383468628 L 44.67836761474609 4.437589168548584 C 44.67836761474609 4.68804931640625 44.4745979309082 4.891819477081299 44.22413635253906 4.891819477081299 Z" stroke="none"/>
      <path d="M 44.22413635253906 4.841819286346436 C 44.44563674926758 4.841819286346436 44.62836837768555 4.659079551696777 44.62836837768555 4.437589168548584 L 44.62836837768555 3.424229383468628 C 44.62836837768555 3.202739477157593 44.44563674926758 3.019999504089355 44.22413635253906 3.019999504089355 C 44.00263595581055 3.019999504089355 43.81989669799805 3.202739477157593 43.81989669799805 3.424229383468628 L 43.81989669799805 4.437589168548584 C 43.81436538696289 4.659079551696777 43.99709701538086 4.841819286346436 44.22413635253906 4.841819286346436 M 44.22413635253906 4.941819190979004 C 44.08522796630859 4.941819190979004 43.95579528808594 4.88754940032959 43.85968780517578 4.789009571075439 C 43.76625823974609 4.693219184875488 43.71661758422852 4.567529201507568 43.71992874145508 4.435089588165283 L 43.71989822387695 3.424229383468628 C 43.71989822387695 3.146199464797974 43.94609832763672 2.919999361038208 44.22413635253906 2.919999361038208 C 44.50216674804688 2.919999361038208 44.72836685180664 3.146199464797974 44.72836685180664 3.424229383468628 L 44.72836685180664 4.437589168548584 C 44.72836685180664 4.715619564056396 44.50216674804688 4.941819190979004 44.22413635253906 4.941819190979004 Z" stroke="none" fill="#00a1ed"/>
    </g>
    <g id="Path_2035" data-name="Path 2035" transform="translate(-15.954 -10.938)" fill="#00a1ed">
      <path d="M 44.22423553466797 28.36182022094727 C 43.9737663269043 28.36182022094727 43.76999664306641 28.15804862976074 43.76999664306641 27.90758895874023 L 43.76999664306641 26.89422988891602 C 43.76999664306641 26.64377021789551 43.9737663269043 26.43999862670898 44.22423553466797 26.43999862670898 C 44.47469711303711 26.43999862670898 44.678466796875 26.64377021789551 44.678466796875 26.89422988891602 L 44.678466796875 27.90758895874023 C 44.678466796875 28.15804862976074 44.47469711303711 28.36182022094727 44.22423553466797 28.36182022094727 Z" stroke="none"/>
      <path d="M 44.22423553466797 26.48999977111816 C 44.00273513793945 26.48999977111816 43.81999588012695 26.67273902893066 43.81999588012695 26.89422988891602 L 43.81999588012695 27.90758895874023 C 43.81999588012695 28.12907981872559 44.00273513793945 28.31181907653809 44.22423553466797 28.31181907653809 C 44.44573593139648 28.31181907653809 44.62846374511719 28.12907981872559 44.62846374511719 27.90758895874023 L 44.62846374511719 26.89422988891602 C 44.62846374511719 26.67273902893066 44.44573593139648 26.48999977111816 44.22423553466797 26.48999977111816 M 44.22423553466797 26.38999938964844 C 44.50226593017578 26.38999938964844 44.72846603393555 26.6161994934082 44.72846603393555 26.89422988891602 L 44.72846603393555 27.90758895874023 C 44.72846603393555 28.18561935424805 44.50226593017578 28.41181945800781 44.22423553466797 28.41181945800781 C 43.94619369506836 28.41181945800781 43.71999740600586 28.18561935424805 43.71999740600586 27.90758895874023 L 43.71999740600586 26.89422988891602 C 43.71999740600586 26.6161994934082 43.94619369506836 26.38999938964844 44.22423553466797 26.38999938964844 Z" stroke="none" fill="#00a1ed"/>
    </g>
    <g id="Path_2036" data-name="Path 2036" transform="translate(-19.364 -2.115)" fill="#00a1ed">
      <path d="M 51.87089538574219 8.296947479248047 C 51.7495231628418 8.296947479248047 51.63470458984375 8.248976707458496 51.54758453369141 8.161867141723633 C 51.46047592163086 8.074756622314453 51.41250228881836 7.95993709564209 51.41250228881836 7.83856725692749 C 51.41250228881836 7.71718692779541 51.46047592163086 7.602366924285889 51.54759216308594 7.515256881713867 L 52.26191329956055 6.80092716217041 C 52.34957504272461 6.716277122497559 52.46417236328125 6.669997215270996 52.58522415161133 6.669997215270996 C 52.70626449584961 6.669997215270996 52.82086563110352 6.716277122497559 52.90789413452148 6.800317287445068 C 52.99563217163086 6.888037204742432 53.04360580444336 7.002857208251953 53.04360580444336 7.124237060546875 C 53.04360580444336 7.245606899261475 52.99563217163086 7.360426902770996 52.90851593017578 7.447536945343018 L 52.19419479370117 8.161867141723633 C 52.10708236694336 8.248976707458496 51.99226379394531 8.296947479248047 51.87089538574219 8.296947479248047 Z" stroke="none"/>
      <path d="M 52.58522033691406 6.719999313354492 C 52.48139190673828 6.719999313354492 52.3775634765625 6.758762359619141 52.29727554321289 6.836287498474121 L 51.58294296264648 7.550617218017578 C 51.42235565185547 7.711196899414062 51.42235565185547 7.965927124023438 51.58294296264648 8.126506805419922 C 51.74353408813477 8.287099838256836 51.99825668334961 8.287094116210938 52.15883255004883 8.126506805419922 L 52.87316513061523 7.412177085876465 C 53.03375244140625 7.251596927642822 53.03375244140625 6.996867179870605 52.87316513061523 6.836287498474121 C 52.79287338256836 6.758762359619141 52.68904495239258 6.719999313354492 52.58522033691406 6.719999313354492 M 52.58521270751953 6.619997024536133 C 52.71929550170898 6.619997024536133 52.84622573852539 6.671267509460449 52.94262313842773 6.764347076416016 C 53.04043579101562 6.862127304077148 53.09360504150391 6.989497184753418 53.09360504150391 7.124227046966553 C 53.09360504150391 7.25896692276001 53.04043579101562 7.386337280273438 52.94387435913086 7.482887268066406 L 52.22954559326172 8.197216987609863 C 52.13299560546875 8.293777465820312 52.005615234375 8.346946716308594 51.87089538574219 8.346946716308594 C 51.73616409301758 8.346946716308594 51.60878372192383 8.293777465820312 51.51223373413086 8.197216987609863 C 51.41567230224609 8.100666999816895 51.36250305175781 7.973297119140625 51.36250305175781 7.838557243347168 C 51.36250305175781 7.703826904296875 51.41567230224609 7.576457023620605 51.51223373413086 7.479907035827637 L 52.2265625 6.76557731628418 C 52.32421493530273 6.671267509460449 52.45114517211914 6.619997024536133 52.58521270751953 6.619997024536133 Z" stroke="none" fill="#00a1ed"/>
    </g>
    <g id="Path_2037" data-name="Path 2037" transform="translate(-11.956 -9.52)" fill="#00a1ed">
      <path d="M 35.27089309692383 24.89360046386719 C 35.14951324462891 24.89360046386719 35.03469085693359 24.84563064575195 34.94758224487305 24.75851058959961 C 34.8604736328125 24.67141151428223 34.8125 24.55659103393555 34.8125 24.43522071838379 C 34.8125 24.31385040283203 34.8604736328125 24.19902992248535 34.94758224487305 24.11190986633301 L 35.66191101074219 23.39758110046387 C 35.7490234375 23.31047058105469 35.86384201049805 23.26250076293945 35.98521041870117 23.26250076293945 C 36.10658264160156 23.26250076293945 36.22140121459961 23.31047058105469 36.30852127075195 23.39758110046387 C 36.3956298828125 23.48468971252441 36.443603515625 23.59951019287109 36.443603515625 23.72089004516602 C 36.443603515625 23.84226036071777 36.3956298828125 23.95708084106445 36.30851364135742 24.04419136047363 L 35.59419250488281 24.75852012634277 C 35.507080078125 24.84563064575195 35.39226150512695 24.89360046386719 35.27089309692383 24.89360046386719 Z" stroke="none"/>
      <path d="M 35.2708854675293 24.84360313415527 C 35.37471389770508 24.84360313415527 35.47854232788086 24.8034553527832 35.55883026123047 24.72315979003906 L 36.27316284179688 24.00883102416992 C 36.43375015258789 23.84825134277344 36.43375015258789 23.59352111816406 36.27316284179688 23.43294143676758 C 36.11256790161133 23.27234649658203 35.85784530639648 23.27235412597656 35.69727325439453 23.43294143676758 L 34.98294067382812 24.14727020263672 C 34.82235336303711 24.307861328125 34.82235336303711 24.56258010864258 34.98294067382812 24.72315979003906 C 35.063232421875 24.8034553527832 35.16706085205078 24.84360313415527 35.2708854675293 24.84360313415527 M 35.27089309692383 24.94359970092773 C 35.13615036010742 24.94359970092773 35.00876998901367 24.89042091369629 34.9122200012207 24.79387092590332 C 34.81567001342773 24.69732093811035 34.76250076293945 24.56995010375977 34.76250076293945 24.43522071838379 C 34.76250076293945 24.30049133300781 34.81567001342773 24.17312049865723 34.9122314453125 24.07656097412109 L 35.62656021118164 23.36223030090332 C 35.72311019897461 23.26567077636719 35.85049057006836 23.21250152587891 35.98521041870117 23.21250152587891 C 36.11994171142578 23.21250152587891 36.24732208251953 23.26567077636719 36.3438720703125 23.36223030090332 C 36.44043350219727 23.45878028869629 36.49360275268555 23.58615112304688 36.49360275268555 23.72089004516602 C 36.49360275268555 23.85562133789062 36.44043350219727 23.98299026489258 36.3438720703125 24.07954025268555 L 35.62954330444336 24.79387092590332 C 35.53300094604492 24.89042091369629 35.40563201904297 24.94359970092773 35.27089309692383 24.94359970092773 Z" stroke="none" fill="#00a1ed"/>
    </g>
    <g id="Path_2038" data-name="Path 2038" transform="translate(-20.782 -6.109)" fill="#00a1ed">
      <path d="M 56.05759048461914 16.52846336364746 L 55.04423141479492 16.52846336364746 C 54.79376983642578 16.52846336364746 54.59000015258789 16.32469367980957 54.59000015258789 16.07423400878906 C 54.59000015258789 15.82377433776855 54.79376983642578 15.62000370025635 55.04423141479492 15.62000370025635 L 56.05759048461914 15.62000370025635 C 56.30805206298828 15.62000370025635 56.51182174682617 15.82377433776855 56.51182174682617 16.07423400878906 C 56.51182174682617 16.32469367980957 56.30805206298828 16.52846336364746 56.05759048461914 16.52846336364746 Z" stroke="none"/>
      <path d="M 55.04423141479492 15.67000389099121 C 54.82273101806641 15.67000389099121 54.63999938964844 15.85273361206055 54.63999938964844 16.07423400878906 C 54.63999938964844 16.29573440551758 54.8227424621582 16.47846412658691 55.04423141479492 16.47846412658691 L 56.05759048461914 16.47846412658691 C 56.27907943725586 16.47846412658691 56.46182250976562 16.29573440551758 56.46182250976562 16.07423400878906 C 56.46182250976562 15.84719467163086 56.27907943725586 15.67000389099121 56.05759048461914 15.67000389099121 L 55.04423141479492 15.67000389099121 M 55.04423141479492 15.57000350952148 L 56.05759048461914 15.57000350952148 C 56.33562088012695 15.57000350952148 56.56182098388672 15.79620361328125 56.56182098388672 16.07423400878906 C 56.56182098388672 16.35226440429688 56.33562088012695 16.57846450805664 56.05759048461914 16.57846450805664 L 55.04423141479492 16.57846450805664 C 54.76620101928711 16.57846450805664 54.54000091552734 16.35226440429688 54.54000091552734 16.07423400878906 C 54.54000091552734 15.79620361328125 54.76620101928711 15.57000350952148 55.04423141479492 15.57000350952148 Z" stroke="none" fill="#00a1ed"/>
    </g>
    <g id="Path_2039" data-name="Path 2039" transform="translate(-19.364 -9.52)" fill="#00a1ed">
      <path d="M 52.58522415161133 24.89360237121582 C 52.4638557434082 24.89360237121582 52.34903335571289 24.84563255310059 52.26191329956055 24.75852203369141 L 51.54758453369141 24.04419326782227 C 51.46047592163086 23.95708274841309 51.41250228881836 23.84226226806641 51.41250228881836 23.72089195251465 C 51.41250228881836 23.59951210021973 51.46047592163086 23.48469161987305 51.54759216308594 23.3975830078125 C 51.63470458984375 23.31047248840332 51.7495231628418 23.26250267028809 51.87089538574219 23.26250267028809 C 51.99226379394531 23.26250267028809 52.10708236694336 23.31047248840332 52.19419479370117 23.39759254455566 L 52.90852355957031 24.11191177368164 C 52.99563217163086 24.19903182983398 53.04360580444336 24.31385231018066 53.04360580444336 24.43522262573242 C 53.04360580444336 24.55659294128418 52.99563217163086 24.67141342163086 52.90851593017578 24.75852203369141 C 52.82141494750977 24.84563255310059 52.70659255981445 24.89360237121582 52.58522415161133 24.89360237121582 Z" stroke="none"/>
      <path d="M 51.87089157104492 23.3125 C 51.76706695556641 23.3125 51.66323852539062 23.35264778137207 51.58294296264648 23.43294334411621 C 51.42235565185547 23.5935230255127 51.42235565185547 23.84824180603027 51.58294296264648 24.00883293151855 L 52.29727554321289 24.7231616973877 C 52.45784759521484 24.88374900817871 52.71257781982422 24.88375663757324 52.87316513061523 24.7231616973877 C 53.03375244140625 24.56258201599121 53.03375244140625 24.30785179138184 52.87316513061523 24.14727210998535 L 52.15883255004883 23.43294334411621 C 52.07854461669922 23.35264778137207 51.9747200012207 23.3125 51.87089157104492 23.3125 M 51.87089538574219 23.21250343322754 C 52.00563430786133 23.21250343322754 52.13300323486328 23.26568222045898 52.22955322265625 23.36223220825195 L 52.94387435913086 24.07656288146973 C 53.04043579101562 24.1731128692627 53.09360504150391 24.30048179626465 53.09360504150391 24.43521308898926 C 53.09360504150391 24.5699520111084 53.04043579101562 24.69732284545898 52.94387435913086 24.79387283325195 C 52.84732437133789 24.89043235778809 52.71994400024414 24.94360160827637 52.58521270751953 24.94360160827637 C 52.45049285888672 24.94360160827637 52.32311248779297 24.89043235778809 52.2265625 24.79387283325195 L 51.51223373413086 24.07954216003418 C 51.41567230224609 23.98298263549805 51.36250305175781 23.85561180114746 51.36250305175781 23.72088241577148 C 51.36250305175781 23.58615303039551 51.41567230224609 23.45878219604492 51.51223373413086 23.36223220825195 C 51.60877227783203 23.26568222045898 51.73615264892578 23.21250343322754 51.87089538574219 23.21250343322754 Z" stroke="none" fill="#00a1ed"/>
    </g>
    <g id="Path_2040" data-name="Path 2040" transform="translate(-11.961 -2.112)" fill="#00a1ed">
      <path d="M 35.99522018432617 8.293601989746094 C 35.87385177612305 8.293601989746094 35.75902938842773 8.245631217956543 35.67190933227539 8.15852165222168 L 34.95758056640625 7.444191455841064 C 34.8704719543457 7.357081890106201 34.8224983215332 7.24226188659668 34.8224983215332 7.120891571044922 C 34.8224983215332 6.99951171875 34.8704719543457 6.884691715240479 34.95758819580078 6.797581672668457 C 35.04470062255859 6.710471630096436 35.15951919555664 6.662501811981201 35.28089141845703 6.662501811981201 C 35.40225982666016 6.662501811981201 35.5170783996582 6.710471630096436 35.60419082641602 6.797591686248779 L 36.31851959228516 7.511911869049072 C 36.4056282043457 7.599021434783936 36.4536018371582 7.713841438293457 36.4536018371582 7.835221767425537 C 36.4536018371582 7.956591606140137 36.4056282043457 8.071412086486816 36.31851196289062 8.15852165222168 C 36.23141098022461 8.245631217956543 36.1165885925293 8.293601989746094 35.99522018432617 8.293601989746094 Z" stroke="none"/>
      <path d="M 35.99522018432617 8.243603706359863 C 36.09904479980469 8.243603706359863 36.2028694152832 8.203456878662109 36.28316116333008 8.123161315917969 C 36.44374847412109 7.962581634521484 36.44374847412109 7.707851886749268 36.28316116333008 7.547271728515625 L 35.56882858276367 6.83294153213501 C 35.40825653076172 6.672354221343994 35.15353393554688 6.672348499298096 34.99293899536133 6.83294153213501 C 34.83235168457031 6.993521690368652 34.83235168457031 7.248251438140869 34.99293899536133 7.408831596374512 L 35.70727157592773 8.123161315917969 C 35.78756332397461 8.203456878662109 35.89139175415039 8.243603706359863 35.99522018432617 8.243603706359863 M 35.99522018432617 8.343601226806641 C 35.86048889160156 8.343601226806641 35.73310852050781 8.290431976318359 35.63655853271484 8.19387149810791 L 34.9222297668457 7.479541778564453 C 34.82566833496094 7.382991790771484 34.77249908447266 7.255621433258057 34.77249908447266 7.120891571044922 C 34.77249908447266 6.986151695251465 34.82566833496094 6.858781814575195 34.9222297668457 6.762231826782227 C 35.018798828125 6.665671825408936 35.14617156982422 6.612501621246338 35.28089141845703 6.612501621246338 C 35.41561126708984 6.612501621246338 35.54299163818359 6.665671825408936 35.63954162597656 6.762231826782227 L 36.3538703918457 7.476561546325684 C 36.45043182373047 7.573111534118652 36.50360107421875 7.70048189163208 36.50360107421875 7.835221767425537 C 36.50360107421875 7.969951629638672 36.45043182373047 8.097321510314941 36.3538703918457 8.19387149810791 C 36.25733184814453 8.290421485900879 36.12995910644531 8.343601226806641 35.99522018432617 8.343601226806641 Z" stroke="none" fill="#00a1ed"/>
    </g>
    <g id="Path_2041" data-name="Path 2041" transform="translate(-0.724)" fill="#00a1ed">
      <path d="M 17.52095222473145 36.38429641723633 C 17.21965217590332 36.38429641723633 16.91229248046875 36.36742782592773 16.60739135742188 36.33416748046875 C 12.92461204528809 35.91073608398438 10.00900173187256 32.9201545715332 9.674431800842285 29.22319602966309 C 9.540572166442871 27.74241638183594 9.825752258300781 26.2564868927002 10.49917221069336 24.9260368347168 C 11.16741275787354 23.60579109191895 12.1837797164917 22.50559043884277 13.43970203399658 21.74262428283691 L 13.43970203399658 6.027866363525391 C 13.43970203399658 3.768296480178833 15.27800178527832 1.929996490478516 17.53757095336914 1.929996490478516 C 19.79714202880859 1.929996490478516 21.63544273376465 3.768296480178833 21.63544273376465 6.027866363525391 L 21.63544273376465 21.74262428283691 C 22.78664588928223 22.44175148010254 23.74619293212891 23.43142890930176 24.41151237487793 24.60626602172852 C 25.08140182495117 25.78917694091797 25.43692207336426 27.13132667541504 25.43966102600098 28.48763656616211 C 25.43966102600098 30.73628616333008 24.47486114501953 32.88527679443359 22.79264259338379 34.38369750976562 C 21.34124183654785 35.6738166809082 19.46906089782715 36.38429641723633 17.52095222473145 36.38429641723633 Z M 17.53757095336914 2.83846640586853 C 15.77892208099365 2.83846640586853 14.3481616973877 4.269226551055908 14.3481616973877 6.027866363525391 L 14.3481616973877 21.99785614013672 C 14.3481616973877 22.16552734375 14.26208209991455 22.31427574157715 14.11788177490234 22.39578628540039 C 11.72229194641113 23.7419261932373 10.3346118927002 26.38785552978516 10.58250141143799 29.13666725158691 C 10.87381172180176 32.40698623657227 13.44958209991455 35.05214691162109 16.70712089538574 35.42631530761719 C 16.98859214782715 35.45920562744141 17.2730712890625 35.47587585449219 17.55273246765137 35.47587585449219 C 19.28154182434082 35.47587585449219 20.88282203674316 34.86366653442383 22.18346214294434 33.70543670654297 C 23.67197227478027 32.38169479370117 24.52566146850586 30.47992706298828 24.52566146850586 28.48773574829102 C 24.52566146850586 25.97160720825195 23.15836143493652 23.63944625854492 20.95735168457031 22.4013671875 C 20.81521224975586 22.32102584838867 20.72697257995605 22.16854667663574 20.72697257995605 22.00339698791504 L 20.72697257995605 6.027866363525391 C 20.72697257995605 4.269226551055908 19.29621124267578 2.83846640586853 17.53757095336914 2.83846640586853 Z" stroke="none"/>
      <path d="M 17.52095222473145 36.33429718017578 C 19.4479808807373 36.33429718017578 21.31410217285156 35.63103485107422 22.7593822479248 34.34635543823242 C 24.43168258666992 32.85677719116211 25.38966178894043 30.71932601928711 25.38966178894043 28.48773574829102 C 25.38412094116211 25.74116706848145 23.93885231018066 23.18840599060059 21.58544158935547 21.77081680297852 L 21.58544158935547 6.027866363525391 C 21.58544158935547 3.796286344528198 19.76916122436523 1.9799964427948 17.53757095336914 1.9799964427948 C 15.30598163604736 1.9799964427948 13.48970222473145 3.796286344528198 13.48970222473145 6.027866363525391 L 13.48970222473145 21.77081680297852 C 10.92586135864258 23.31576728820801 9.452901840209961 26.21738624572754 9.724231719970703 29.21868705749512 C 10.05648136138916 32.89000701904297 12.952561378479 35.86361694335938 16.61281204223633 36.28445816040039 C 16.91737174987793 36.31768798828125 17.22193145751953 36.33429718017578 17.52095222473145 36.33429718017578 M 17.53757095336914 2.788466453552246 C 19.32062149047852 2.788466453552246 20.7769718170166 4.23927640914917 20.7769718170166 6.027866363525391 L 20.7769718170166 22.00339698791504 C 20.7769718170166 22.14736557006836 20.85450172424316 22.28579711914062 20.98186111450195 22.35778617858887 C 23.19683265686035 23.60371589660645 24.57566261291504 25.95158576965332 24.57566261291504 28.48773574829102 C 24.57566261291504 30.49229621887207 23.71735191345215 32.40824508666992 22.21671104431152 33.74277496337891 C 20.69945335388184 35.09390640258789 18.73919296264648 35.7140998840332 16.70141220092773 35.47598648071289 C 13.42325210571289 35.09944534301758 10.82619190216064 32.43593597412109 10.53270149230957 29.14115715026855 C 10.28352165222168 26.37797737121582 11.67895221710205 23.70892715454102 14.09328174591064 22.35225677490234 C 14.22064208984375 22.28026580810547 14.29816150665283 22.14736557006836 14.29816150665283 21.99785614013672 L 14.29816150665283 6.027866363525391 C 14.29816150665283 4.244816303253174 15.74897193908691 2.788466453552246 17.53757095336914 2.788466453552246 M 17.52095222473145 36.43429565429688 C 17.21785163879395 36.43429565429688 16.90866088867188 36.41732788085938 16.60196113586426 36.38386535644531 C 12.89548206329346 35.95771789550781 9.961331367492676 32.94813537597656 9.624641418457031 29.22769737243652 C 9.489921569824219 27.73757553100586 9.776902198791504 26.24228668212891 10.45455169677734 24.90345573425293 C 11.12273025512695 23.58336067199707 12.13692855834961 22.48177719116211 13.38970184326172 21.71456336975098 L 13.38970184326172 6.027866363525391 C 13.38970184326172 3.740726470947266 15.25043201446533 1.879996418952942 17.53757095336914 1.879996418952942 C 19.8247127532959 1.879996418952942 21.6854419708252 3.740726470947266 21.6854419708252 6.027866363525391 L 21.6854419708252 21.71454811096191 C 22.83321571350098 22.4172420501709 23.7901439666748 23.4075813293457 24.45502090454102 24.58162689208984 C 25.12913131713867 25.77200698852539 25.48691177368164 27.12264633178711 25.48966217041016 28.4875373840332 C 25.48966217041016 30.75053596496582 24.51875114440918 32.91313552856445 22.82589149475098 34.42102813720703 C 21.36529159545898 35.71932601928711 19.48132133483887 36.43429565429688 17.52095222473145 36.43429565429688 Z M 17.53757095336914 2.888466358184814 C 15.80649185180664 2.888466358184814 14.39816188812256 4.296796321868896 14.39816188812256 6.027866363525391 L 14.39816188812256 21.99785614013672 C 14.39816188812256 22.18378639221191 14.30258178710938 22.34881591796875 14.14249134063721 22.43931579589844 C 11.7639217376709 23.77588653564453 10.38618183135986 26.4029369354248 10.63230228424072 29.13217735290527 C 10.92152214050293 32.37903594970703 13.47874164581299 35.00516510009766 16.71282196044922 35.37663650512695 C 16.99251174926758 35.40931701660156 17.27503204345703 35.42587661743164 17.55273246765137 35.42587661743164 C 19.26908111572266 35.42587661743164 20.85886192321777 34.81804656982422 22.15021133422852 33.66809463500977 C 23.62808227539062 32.35380554199219 24.47566223144531 30.46565628051758 24.47566223144531 28.48773574829102 C 24.47566223144531 25.98964691162109 23.11813163757324 23.6741771697998 20.93283271789551 22.4449462890625 C 20.77494239807129 22.3556957244873 20.67697143554688 22.18654632568359 20.67697143554688 22.00339698791504 L 20.67697143554688 6.027866363525391 C 20.67697143554688 4.296796321868896 19.26864242553711 2.888466358184814 17.53757095336914 2.888466358184814 Z" stroke="none" fill="#00a1ed"/>
    </g>
    <g id="Path_2042" data-name="Path 2042" transform="translate(-2.026 -6.663)" fill="#00a1ed">
      <path d="M 18.84563827514648 41.43549728393555 C 18.61605834960938 41.43549728393555 18.36455726623535 41.42049026489258 18.09810829162598 41.39088821411133 C 15.21931743621826 41.06172943115234 12.85071754455566 38.6331672668457 12.5883674621582 35.74182891845703 C 12.35926818847656 33.2327880859375 13.57840824127197 30.9100284576416 15.77003765106201 29.68003845214844 L 16.35916709899902 29.34566879272461 L 16.35916709899902 17.31423950195312 C 16.35916709899902 17.06376838684082 16.56293869018555 16.85999870300293 16.81339836120605 16.85999870300293 L 20.87234878540039 16.85999870300293 C 21.1228084564209 16.85999870300293 21.32657814025879 17.06376838684082 21.32657814025879 17.31423950195312 L 21.32657814025879 29.34566879272461 L 21.91591835021973 29.6801586151123 C 23.89327812194824 30.79173851013184 25.1252269744873 32.88990020751953 25.13080787658691 35.15575790405273 C 25.13080787658691 38.61846923828125 22.31128692626953 41.43549728393555 18.84563827514648 41.43549728393555 Z M 17.27316856384277 17.76846885681152 L 17.27316856384277 29.60735893249512 C 17.27316856384277 29.77502822875977 17.18707847595215 29.92378807067871 17.04288864135742 30.00527954101562 L 16.21775817871094 30.470458984375 C 14.34717750549316 31.52368927001953 13.3044376373291 33.51041030883789 13.49643802642822 35.65531921386719 C 13.7156982421875 38.12194061279297 15.73691749572754 40.1973991394043 18.19797706604004 40.48305892944336 C 18.41008758544922 40.50733947753906 18.62471771240234 40.51965713500977 18.83582878112793 40.51965713500977 C 21.79778861999512 40.51965713500977 24.21167755126953 38.1109504699707 24.21679878234863 35.15024948120117 C 24.21679878234863 33.21413040161133 23.16565704345703 31.4209098815918 21.47358703613281 30.47048950195312 L 20.64844703674316 30.00530815124512 C 20.50635719299316 29.92499923706055 20.41811752319336 29.77252960205078 20.41811752319336 29.60735893249512 L 20.41811752319336 17.76846885681152 L 17.27316856384277 17.76846885681152 Z" stroke="none"/>
      <path d="M 18.84563827514648 41.385498046875 C 22.28439712524414 41.385498046875 25.08080863952637 38.58908843994141 25.08080863952637 35.15587997436523 C 25.07526779174805 32.90766906738281 23.85148811340332 30.82559967041016 21.89123725891113 29.7236385345459 L 21.27657699584961 29.37477874755859 L 21.27657699584961 17.31423950195312 C 21.27657699584961 17.09273910522461 21.09383773803711 16.90999984741211 20.87234878540039 16.90999984741211 L 16.81339836120605 16.90999984741211 C 16.5919075012207 16.90999984741211 16.4091682434082 17.09273910522461 16.4091682434082 17.31423950195312 L 16.4091682434082 29.37477874755859 L 15.79450798034668 29.7236385345459 C 13.62382793426514 30.94187927246094 12.41113758087158 33.2509880065918 12.63816833496094 35.73730850219727 C 12.89842796325684 38.60569763183594 15.24630832672119 41.01448822021484 18.10362815856934 41.3411979675293 C 18.35280799865723 41.36887741088867 18.60199737548828 41.385498046875 18.84563827514648 41.385498046875 M 17.22316741943359 17.71846961975098 L 20.46811866760254 17.71846961975098 L 20.46811866760254 29.60735893249512 C 20.46811866760254 29.75132942199707 20.5456371307373 29.88976860046387 20.67299842834473 29.96174812316895 L 21.49807739257812 30.42689895629883 C 23.2036075592041 31.38487815856934 24.26679801940918 33.19561767578125 24.26679801940918 35.15033721923828 C 24.26125717163086 38.35651779174805 21.48144340515137 40.90928649902344 18.19221878051758 40.53273010253906 C 15.71144771575928 40.24477767944336 13.668137550354 38.15163040161133 13.4466381072998 35.6597785949707 C 13.25282764434814 33.4946403503418 14.30493831634521 31.49008941650391 16.19320869445801 30.42689895629883 L 17.01828765869141 29.96174812316895 C 17.1456470489502 29.88976860046387 17.22316741943359 29.75686836242676 17.22316741943359 29.60735893249512 L 17.22316741943359 17.71846961975098 M 18.84563827514648 41.48550033569336 C 18.61422729492188 41.48550033569336 18.3608570098877 41.47039031982422 18.09258842468262 41.44058990478516 C 15.19058799743652 41.10876846313477 12.80301761627197 38.66078948974609 12.53857803344727 35.7463493347168 C 12.30765819549561 33.2174186706543 13.53649806976318 30.87621879577637 15.74556827545166 29.63642883300781 L 16.30916786193848 29.31655120849609 L 16.30916786193848 17.31423950195312 C 16.30916786193848 17.03619956970215 16.53536796569824 16.80999946594238 16.81339836120605 16.80999946594238 L 20.87234878540039 16.80999946594238 C 21.15037727355957 16.80999946594238 21.37657737731934 17.03619956970215 21.37657737731934 17.31423950195312 L 21.37657737731934 29.31655120849609 L 21.94059753417969 29.63666915893555 C 23.93346786499023 30.7569694519043 25.17517852783203 32.87178802490234 25.18080711364746 35.1556282043457 C 25.18080711364746 38.64603805541992 22.33885765075684 41.48550033569336 18.84563827514648 41.48550033569336 Z M 17.32316780090332 17.81846809387207 L 17.32316780090332 29.60735893249512 C 17.32316780090332 29.79329872131348 17.22758865356445 29.95832824707031 17.0674877166748 30.04880905151367 L 16.24231719970703 30.51400947570801 C 14.38907814025879 31.55747985839844 13.35601806640625 33.52579879760742 13.54623794555664 35.65085983276367 C 13.76344776153564 38.09438705444336 15.76573753356934 40.15040969848633 18.20374870300293 40.43339920043945 C 18.41391754150391 40.45744705200195 18.62663841247559 40.46965789794922 18.83582878112793 40.46965789794922 C 21.77026748657227 40.46965789794922 24.1617374420166 38.08334732055664 24.16679763793945 35.15016937255859 C 24.16679763793945 33.232177734375 23.12543869018555 31.45566940307617 21.4491081237793 30.51408958435059 L 20.62388801574707 30.04885864257812 C 20.46608734130859 29.95967864990234 20.36811828613281 29.79051971435547 20.36811828613281 29.60735893249512 L 20.36811828613281 17.81846809387207 L 17.32316780090332 17.81846809387207 Z" stroke="none" fill="#00a1ed"/>
    </g>
    <g id="Path_2043" data-name="Path 2043" transform="translate(0 -2.82)" fill="#00a1ed">
      <path d="M 10.805495262146 9.158463478088379 L 8.474234580993652 9.158463478088379 C 8.22376537322998 9.158463478088379 8.019994735717773 8.954692840576172 8.019994735717773 8.704233169555664 C 8.019994735717773 8.453773498535156 8.22376537322998 8.250002861022949 8.474234580993652 8.250002861022949 L 10.805495262146 8.250002861022949 C 11.05596446990967 8.250002861022949 11.25973510742188 8.453773498535156 11.25973510742188 8.704233169555664 C 11.25973510742188 8.954692840576172 11.05596446990967 9.158463478088379 10.805495262146 9.158463478088379 Z" stroke="none"/>
      <path d="M 10.805495262146 9.108463287353516 C 11.0269947052002 9.108463287353516 11.20973491668701 8.92573356628418 11.20973491668701 8.704233169555664 C 11.20973491668701 8.482732772827148 11.0325345993042 8.300003051757812 10.805495262146 8.300003051757812 L 8.474234580993652 8.300003051757812 C 8.252735137939453 8.300003051757812 8.069994926452637 8.482732772827148 8.069994926452637 8.704233169555664 C 8.069994926452637 8.92573356628418 8.252735137939453 9.108463287353516 8.474234580993652 9.108463287353516 L 10.805495262146 9.108463287353516 M 10.805495262146 9.208462715148926 L 8.474234580993652 9.208462715148926 C 8.196194648742676 9.208462715148926 7.969995021820068 8.982263565063477 7.969995021820068 8.704233169555664 C 7.969995021820068 8.426202774047852 8.196194648742676 8.200003623962402 8.474234580993652 8.200003623962402 L 10.805495262146 8.200003623962402 C 11.08353519439697 8.200003623962402 11.30973529815674 8.426202774047852 11.30973529815674 8.704233169555664 C 11.30973529815674 8.982263565063477 11.08353519439697 9.208462715148926 10.805495262146 9.208462715148926 Z" stroke="none" fill="#00a1ed"/>
    </g>
    <g id="Path_2044" data-name="Path 2044" transform="translate(-0.723 -4.815)" fill="#00a1ed">
      <path d="M 11.52843284606934 13.62846374511719 L 10.0942325592041 13.62846374511719 C 9.843772888183594 13.62846374511719 9.640002250671387 13.42469310760498 9.640002250671387 13.17423343658447 C 9.640002250671387 12.92377376556396 9.843772888183594 12.72000312805176 10.0942325592041 12.72000312805176 L 11.52843284606934 12.72000312805176 C 11.77889251708984 12.72000312805176 11.98266315460205 12.92377376556396 11.98266315460205 13.17423343658447 C 11.98266315460205 13.42469310760498 11.77889251708984 13.62846374511719 11.52843284606934 13.62846374511719 Z" stroke="none"/>
      <path d="M 10.0942325592041 12.77000331878662 C 9.872733116149902 12.77000331878662 9.69000244140625 12.95273303985596 9.69000244140625 13.17423343658447 C 9.69000244140625 13.39573383331299 9.872733116149902 13.57846355438232 10.0942325592041 13.57846355438232 L 11.52843284606934 13.57846355438232 C 11.74993228912354 13.57846355438232 11.93266296386719 13.39573383331299 11.93266296386719 13.17423343658447 C 11.93266296386719 12.95273303985596 11.75546264648438 12.77000331878662 11.52843284606934 12.77000331878662 L 10.0942325592041 12.77000331878662 M 10.0942325592041 12.67000389099121 L 11.52843284606934 12.67000389099121 C 11.80646228790283 12.67000389099121 12.0326623916626 12.89620304107666 12.0326623916626 13.17423343658447 C 12.0326623916626 13.45226383209229 11.80646228790283 13.67846298217773 11.52843284606934 13.67846298217773 L 10.0942325592041 13.67846298217773 C 9.816203117370605 13.67846298217773 9.59000301361084 13.45226383209229 9.59000301361084 13.17423343658447 C 9.59000301361084 12.89620304107666 9.816203117370605 12.67000389099121 10.0942325592041 12.67000389099121 Z" stroke="none" fill="#00a1ed"/>
    </g>
    <g id="Path_2045" data-name="Path 2045" transform="translate(0 -6.814)" fill="#00a1ed">
      <path d="M 10.805495262146 18.10846138000488 L 8.474234580993652 18.10846138000488 C 8.22376537322998 18.10846138000488 8.019994735717773 17.90469169616699 8.019994735717773 17.65423202514648 C 8.019994735717773 17.40377235412598 8.22376537322998 17.20000267028809 8.474234580993652 17.20000267028809 L 10.805495262146 17.20000267028809 C 11.05596446990967 17.20000267028809 11.25973510742188 17.40377235412598 11.25973510742188 17.65423202514648 C 11.25973510742188 17.90469169616699 11.05596446990967 18.10846138000488 10.805495262146 18.10846138000488 Z" stroke="none"/>
      <path d="M 10.805495262146 18.05846214294434 C 11.0269947052002 18.05846214294434 11.20973491668701 17.875732421875 11.20973491668701 17.65423202514648 C 11.20973491668701 17.43273162841797 11.0269947052002 17.25000190734863 10.805495262146 17.25000190734863 L 8.474234580993652 17.25000190734863 C 8.252735137939453 17.25000190734863 8.069994926452637 17.43273162841797 8.069994926452637 17.65423202514648 C 8.069994926452637 17.88127136230469 8.252735137939453 18.05846214294434 8.474234580993652 18.05846214294434 L 10.805495262146 18.05846214294434 M 10.805495262146 18.15846252441406 L 8.474234580993652 18.15846252441406 C 8.196194648742676 18.15846252441406 7.969995021820068 17.9322624206543 7.969995021820068 17.65423202514648 C 7.969995021820068 17.37620162963867 8.196194648742676 17.15000152587891 8.474234580993652 17.15000152587891 L 10.805495262146 17.15000152587891 C 11.08353519439697 17.15000152587891 11.30973529815674 17.37620162963867 11.30973529815674 17.65423202514648 C 11.30973529815674 17.9322624206543 11.08353519439697 18.15846252441406 10.805495262146 18.15846252441406 Z" stroke="none" fill="#00a1ed"/>
    </g>
    <g id="Path_2046" data-name="Path 2046" transform="translate(-0.723 -8.809)" fill="#00a1ed">
      <path d="M 11.5284309387207 22.57846260070801 L 10.09423160552979 22.57846260070801 C 9.843770980834961 22.57846260070801 9.64000129699707 22.37469291687012 9.64000129699707 22.12423324584961 C 9.64000129699707 21.8737735748291 9.843770980834961 21.67000389099121 10.09423160552979 21.67000389099121 L 11.5284309387207 21.67000389099121 C 11.65375137329102 21.67000389099121 11.77047157287598 21.71891403198242 11.85709095001221 21.80772399902344 C 11.94103145599365 21.89378356933594 11.98562145233154 22.00663375854492 11.98264122009277 22.1254825592041 C 11.98266124725342 22.37469291687012 11.77889156341553 22.57846260070801 11.5284309387207 22.57846260070801 Z" stroke="none"/>
      <path d="M 10.09423160552979 21.72000312805176 C 9.87273120880127 21.72000312805176 9.690001487731934 21.90273284912109 9.690001487731934 22.12423324584961 C 9.690001487731934 22.34573364257812 9.87273120880127 22.52846336364746 10.09423160552979 22.52846336364746 L 11.5284309387207 22.52846336364746 C 11.74993133544922 22.52846336364746 11.93266105651855 22.34573364257812 11.93266105651855 22.12423324584961 C 11.93820095062256 21.90273284912109 11.75547122955322 21.72000312805176 11.5284309387207 21.72000312805176 L 10.09423160552979 21.72000312805176 M 10.09423160552979 21.62000274658203 L 11.5284309387207 21.62000274658203 C 11.66735076904297 21.62000274658203 11.79678153991699 21.67427253723145 11.89289093017578 21.77281379699707 C 11.9863109588623 21.86860275268555 12.0359411239624 21.99429321289062 12.03263092041016 22.12673377990723 C 12.03266143798828 22.40226364135742 11.80646133422852 22.62846374511719 11.5284309387207 22.62846374511719 L 10.09423160552979 22.62846374511719 C 9.816201210021973 22.62846374511719 9.590001106262207 22.40226364135742 9.590001106262207 22.12423324584961 C 9.590001106262207 21.8462028503418 9.816201210021973 21.62000274658203 10.09423160552979 21.62000274658203 Z" stroke="none" fill="#00a1ed"/>
    </g>
    <g id="Path_2047" data-name="Path 2047" transform="translate(0 -10.808)" fill="#00a1ed">
      <path d="M 10.805495262146 27.05846405029297 L 8.474234580993652 27.05846405029297 C 8.22376537322998 27.05846405029297 8.019994735717773 26.85469436645508 8.019994735717773 26.60423469543457 C 8.019994735717773 26.35377502441406 8.22376537322998 26.15000534057617 8.474234580993652 26.15000534057617 L 10.805495262146 26.15000534057617 C 11.05596446990967 26.15000534057617 11.25973510742188 26.35377502441406 11.25973510742188 26.60423469543457 C 11.25973510742188 26.85469436645508 11.05596446990967 27.05846405029297 10.805495262146 27.05846405029297 Z" stroke="none"/>
      <path d="M 10.805495262146 27.00846481323242 C 11.0269947052002 27.00846481323242 11.20973491668701 26.82573509216309 11.20973491668701 26.60423469543457 C 11.20973491668701 26.38273429870605 11.0269947052002 26.20000457763672 10.805495262146 26.20000457763672 L 8.474234580993652 26.20000457763672 C 8.252735137939453 26.20000457763672 8.069994926452637 26.38273429870605 8.069994926452637 26.60423469543457 C 8.069994926452637 26.83126449584961 8.252735137939453 27.00846481323242 8.474234580993652 27.00846481323242 L 10.805495262146 27.00846481323242 M 10.805495262146 27.10846519470215 L 8.474234580993652 27.10846519470215 C 8.196194648742676 27.10846519470215 7.969995021820068 26.88226509094238 7.969995021820068 26.60423469543457 C 7.969995021820068 26.32620429992676 8.196194648742676 26.10000419616699 8.474234580993652 26.10000419616699 L 10.805495262146 26.10000419616699 C 11.08353519439697 26.10000419616699 11.30973529815674 26.32620429992676 11.30973529815674 26.60423469543457 C 11.30973529815674 26.88226509094238 11.08353519439697 27.10846519470215 10.805495262146 27.10846519470215 Z" stroke="none" fill="#00a1ed"/>
    </g>
    <g id="Path_2048" data-name="Path 2048" transform="translate(-0.723 -12.803)" fill="#00a1ed">
      <path d="M 11.5284309387207 31.52846336364746 L 10.09423160552979 31.52846336364746 C 9.843770980834961 31.52846336364746 9.64000129699707 31.32469367980957 9.64000129699707 31.07423400878906 C 9.64000129699707 30.82377433776855 9.843770980834961 30.62000465393066 10.09423160552979 30.62000465393066 L 11.5284309387207 30.62000465393066 C 11.65375137329102 30.62000465393066 11.77047157287598 30.66891479492188 11.85709095001221 30.75772476196289 C 11.94103145599365 30.84378433227539 11.98562145233154 30.95663452148438 11.98264122009277 31.07548332214355 C 11.98266124725342 31.32469367980957 11.77889156341553 31.52846336364746 11.5284309387207 31.52846336364746 Z" stroke="none"/>
      <path d="M 10.09423160552979 30.67000389099121 C 9.87273120880127 30.67000389099121 9.690001487731934 30.85273361206055 9.690001487731934 31.07423400878906 C 9.690001487731934 31.29573440551758 9.87273120880127 31.47846412658691 10.09423160552979 31.47846412658691 L 11.5284309387207 31.47846412658691 C 11.74993133544922 31.47846412658691 11.93266105651855 31.29573440551758 11.93266105651855 31.07423400878906 C 11.93820095062256 30.85273361206055 11.75547122955322 30.67000389099121 11.5284309387207 30.67000389099121 L 10.09423160552979 30.67000389099121 M 10.09423160552979 30.57000350952148 L 11.5284309387207 30.57000350952148 C 11.66735076904297 30.57000350952148 11.79678153991699 30.6242733001709 11.89289093017578 30.72281455993652 C 11.9863109588623 30.818603515625 12.0359411239624 30.94429397583008 12.03263092041016 31.07673454284668 C 12.03266143798828 31.35226440429688 11.80646133422852 31.57846450805664 11.5284309387207 31.57846450805664 L 10.09423160552979 31.57846450805664 C 9.816201210021973 31.57846450805664 9.590001106262207 31.35226440429688 9.590001106262207 31.07423400878906 C 9.590001106262207 30.79620361328125 9.816201210021973 30.57000350952148 10.09423160552979 30.57000350952148 Z" stroke="none" fill="#00a1ed"/>
    </g>
    <g id="Path_2049" data-name="Path 2049" transform="translate(0 -14.802)" fill="#00a1ed">
      <path d="M 10.80549335479736 36.00846862792969 L 8.474233627319336 36.00846862792969 C 8.223773002624512 36.00846862792969 8.020003318786621 35.8046989440918 8.020003318786621 35.55423736572266 C 8.020003318786621 35.30376815795898 8.223773002624512 35.09999847412109 8.474233627319336 35.09999847412109 L 10.81103324890137 35.09999847412109 C 11.06149387359619 35.09999847412109 11.26526355743408 35.30376815795898 11.26526355743408 35.55423736572266 C 11.26526355743408 35.8089485168457 11.06330299377441 36.00846862792969 10.80549335479736 36.00846862792969 Z" stroke="none"/>
      <path d="M 8.474233627319336 35.14999771118164 C 8.25273323059082 35.14999771118164 8.070003509521484 35.33273696899414 8.070003509521484 35.55423736572266 C 8.070003509521484 35.77573776245117 8.25273323059082 35.95846557617188 8.474233627319336 35.95846557617188 L 10.80549335479736 35.95846557617188 C 11.03253364562988 35.95846557617188 11.21526336669922 35.78126907348633 11.21526336669922 35.55423736572266 C 11.21526336669922 35.33273696899414 11.03253364562988 35.14999771118164 10.81103324890137 35.14999771118164 L 8.474233627319336 35.14999771118164 M 8.474233627319336 35.04999923706055 L 10.81103324890137 35.04999923706055 C 11.08906364440918 35.04999923706055 11.31526374816895 35.27619552612305 11.31526374816895 35.55423736572266 C 11.31526374816895 35.83698654174805 11.09134387969971 36.05846786499023 10.80549335479736 36.05846786499023 L 8.474233627319336 36.05846786499023 C 8.196203231811523 36.05846786499023 7.970003128051758 35.83226776123047 7.970003128051758 35.55423736572266 C 7.970003128051758 35.27619552612305 8.196203231811523 35.04999923706055 8.474233627319336 35.04999923706055 Z" stroke="none" fill="#00a1ed"/>
    </g>
  </g>
</svg>
