<svg xmlns="http://www.w3.org/2000/svg" width="60" height="60" viewBox="0 0 60 60">
  <g id="ico_boarding_plus" transform="translate(8.3 3.386)">
    <rect id="bg" width="60" height="60" transform="translate(-8.3 -3.386)" fill="#fff"/>
    <path id="Path_279" data-name="Path 279" d="M18.842,42.54h-.29V37.533A1.259,1.259,0,0,0,17.391,36.3a7.528,7.528,0,0,1-.29.726h.218a.5.5,0,0,1,.508.508V42.54H11.732V37.533a.5.5,0,0,1,.508-.508h1.306a2.27,2.27,0,0,1-.363-.726H12.24a1.271,1.271,0,0,0-1.233,1.233V42.54h-.29a.978.978,0,0,0-1.016.943V54.439a.978.978,0,0,0,1.016.943h.29v.58a.734.734,0,0,0-.29.508.593.593,0,0,0,.653.58.64.64,0,0,0,.653-.58.734.734,0,0,0-.29-.508v-.58H17.9v.58a.548.548,0,0,0-.29.508.593.593,0,0,0,.653.58.64.64,0,0,0,.653-.58.734.734,0,0,0-.29-.508v-.58h.29a.978.978,0,0,0,1.016-.943V43.483A1.1,1.1,0,0,0,18.842,42.54Zm0,11.391H10.716a.363.363,0,1,1,0-.726H18.77a.343.343,0,0,1,.363.363A.292.292,0,0,1,18.842,53.931Zm0-2.322H10.716a.363.363,0,0,1,0-.726H18.77a.343.343,0,0,1,.363.363A.292.292,0,0,1,18.842,51.61Zm0-2.322H10.716a.363.363,0,1,1,0-.726H18.77a.343.343,0,0,1,.363.363A.292.292,0,0,1,18.842,49.288Zm0-2.322H10.716a.363.363,0,1,1,0-.726H18.77a.343.343,0,0,1,.363.363A.292.292,0,0,1,18.842,46.966Zm0-2.322H10.716a.363.363,0,1,1,0-.726h8.126a.343.343,0,0,1,.363.363A.389.389,0,0,1,18.842,44.644Z" transform="translate(0 -9.687)" fill="#00a1ed"/>
    <path id="Path_280" data-name="Path 280" d="M32.911,34.889l.145-2.032A1.329,1.329,0,0,1,31.9,31.552v-4.5a1.083,1.083,0,0,1,.218-.726c-1.161-3.555-.29-8.126.943-11.754-4.063-2.394-8.126-2.249-11.754.8C20,16.024,16.223,21.249,15.5,29.3A1.464,1.464,0,0,0,16.8,30.9h.145A1.485,1.485,0,0,0,18.4,29.593a23.131,23.131,0,0,1,3.12-9.94l1.161,15.31a.617.617,0,0,0,.218.363l-.726,12.988A2.191,2.191,0,0,0,24.2,50.634,2.237,2.237,0,0,0,26.526,48.6l.726-13.06V35.4H28.34v.145l.726,13.06a2.182,2.182,0,1,0,4.353-.29l-.726-12.988A.627.627,0,0,0,32.911,34.889Z" transform="translate(-1.589 -3.27)" fill="#152049"/>
    <path id="Path_281" data-name="Path 281" d="M40.659,16.063h0c-.218-.145-.363-.218-.58-.363-1.016,3.41-1.959,7.328-.943,10.884.073,0,.8-.218.871-.218l.508-6.458a6.214,6.214,0,0,0,3.7,1.379,4.674,4.674,0,0,0,3.41-1.451L46.1,17.151C43.779,20.271,41.384,16.426,40.659,16.063Z" transform="translate(-7.958 -4.034)" fill="#152049"/>
    <path id="Path_282" data-name="Path 282" d="M54.633,12.486a1.451,1.451,0,0,0-1.016-1.814A.267.267,0,0,1,53.4,10.6l1.161,2.032C54.633,12.632,54.633,12.559,54.633,12.486Z" transform="translate(-11.993 -2.635)" fill="#00a1ed"/>
    <circle id="Ellipse_27" data-name="Ellipse 27" cx="4.208" cy="4.208" r="4.208" transform="translate(21.962 1)" fill="#152049"/>
    <rect id="Rectangle_16938" data-name="Rectangle 16938" width="3.991" height="6.24" transform="matrix(0.868, -0.497, 0.497, 0.868, 37.005, 9.643)" fill="#00a1ed"/>
    <path id="Path_283" data-name="Path 283" d="M43.7,24.245a2.578,2.578,0,0,1-.726-.145,12.994,12.994,0,0,1-.363,4.716l-2.83.726a.64.64,0,0,0-.58.653v4.5a.65.65,0,0,0,.653.653l3.193-.8a.64.64,0,0,0,.58-.653V29.4a.548.548,0,0,0-.29-.508A14.532,14.532,0,0,0,43.7,24.245Z" transform="translate(-8.096 -6.339)" fill="#00a1ed"/>
  </g>
</svg>
