<svg xmlns="http://www.w3.org/2000/svg" xmlns:xlink="http://www.w3.org/1999/xlink" width="60" height="60" viewBox="0 0 60 60">
  <defs>
    <clipPath id="clip-path">
      <path id="Path_3391" data-name="Path 3391" d="M203.48,41.232v4.014h4.709v4.017h15.84V36.83H203.48Z" transform="translate(-203.48 -36.83)" fill="none"/>
    </clipPath>
  </defs>
  <g id="ico_extras_asistencia" transform="translate(7.602 14.874)">
    <rect id="bg" width="60" height="60" transform="translate(-7.602 -14.874)" fill="#fff"/>
    <path id="Path_3386" data-name="Path 3386" d="M143.973,29.27h-4.59V24.68h-3.731v4.59H131.06V33h4.592v4.59h3.731V33h4.59Z" transform="translate(-110.035 -22.329)" fill="#28aae1"/>
    <path id="Path_3387" data-name="Path 3387" d="M62.164,148.354a34.731,34.731,0,0,1-8.786-1.124,2.92,2.92,0,0,1-1.606-.84l-.008-.01-.087-.12v-.011a2.824,2.824,0,0,1-.3-1.581l.067-9.362c0-.538,0-.926.339-1.23a1.366,1.366,0,0,1,.466-.268,9.773,9.773,0,0,1,2.174-.53c.456-.045.915-.067,1.368-.067a13.981,13.981,0,0,1,3.049.337c1.145.233,2.283.559,3.385.874s2.281.653,3.441.885a43.342,43.342,0,0,0,4.359.567c.629.059,1.284.122,1.917.194.39.04.79.09,1.183.149,1.068.161,2.376.591,2.553,1.713a1.917,1.917,0,0,1-1.138,1.888,5.248,5.248,0,0,1-2.005.4h-.517c-1.039.059-2.1.088-3.148.088s-2.11-.029-3.157-.088c-.117-.008-.268-.018-.416-.018a1.142,1.142,0,0,0-.976.336.934.934,0,0,0,.21,1.193,2.612,2.612,0,0,0,1.358.527,20.914,20.914,0,0,0,8.375-.466c2.062-.482,4.085-1.14,6.04-1.781.69-.226,1.4-.459,2.1-.681a5.186,5.186,0,0,1,.95-.226,1.949,1.949,0,0,1,.233-.014,1.843,1.843,0,0,1,.3.024v-.027l.212.071a1.676,1.676,0,0,1,.721,2.7h-.008a3,3,0,0,1-1.055.6l-3.64,1.485A66.444,66.444,0,0,1,69.2,147.641a34.84,34.84,0,0,1-7.04.713Z" transform="translate(-46.029 -119.656)" fill="#121f48"/>
    <path id="Path_3388" data-name="Path 3388" d="M54.906,132.416a13.773,13.773,0,0,1,3.01.334c2.306.469,4.523,1.3,6.827,1.758,2.07.416,4.192.523,6.289.764.393.04.787.088,1.178.148,1.018.161,2.257.56,2.418,1.58a1.747,1.747,0,0,1-1.044,1.715,5.1,5.1,0,0,1-1.941.385h-.522q-1.572.09-3.148.088t-3.148-.088c-.136-.01-.281-.018-.424-.018a1.306,1.306,0,0,0-1.109.406,1.1,1.1,0,0,0,.241,1.406,2.8,2.8,0,0,0,1.445.564A21.1,21.1,0,0,0,73.424,141c2.792-.642,5.472-1.62,8.15-2.463a5.071,5.071,0,0,1,.925-.222,1.867,1.867,0,0,1,.21-.013,1.915,1.915,0,0,1,.459.059h0a1.514,1.514,0,0,1,.642,2.431,2.866,2.866,0,0,1-1,.57l-3.629,1.466a66.183,66.183,0,0,1-10.9,3.693,34.555,34.555,0,0,1-15.754-.408,2.786,2.786,0,0,1-1.527-.8l-.074-.1a2.675,2.675,0,0,1-.281-1.493q.034-4.61.067-9.224c0-.6-.021-.984.287-1.265a1.2,1.2,0,0,1,.409-.234,9.573,9.573,0,0,1,2.142-.522q.674-.067,1.349-.067m0-.321h0c-.458,0-.923.024-1.379.067h0a9.969,9.969,0,0,0-2.219.562,1.515,1.515,0,0,0-.512.3,1.647,1.647,0,0,0-.4,1.352v.153l-.067,9.209a3.005,3.005,0,0,0,.321,1.657l.011.022.016.021.072.1.014.019.016.018a3.094,3.094,0,0,0,1.7.886,34.851,34.851,0,0,0,15.877.408h.011a66.792,66.792,0,0,0,10.947-3.715l3.629-1.467a3.15,3.15,0,0,0,1.1-.631l.016-.013.013-.016a1.835,1.835,0,0,0-.169-2.588,1.8,1.8,0,0,0-.618-.358l-.425-.144v.072h-.138a1.624,1.624,0,0,0-.247.013,5.383,5.383,0,0,0-.992.236c-.694.22-1.406.453-2.1.679-1.952.642-3.972,1.3-6.022,1.776h-.008a20.953,20.953,0,0,1-8.315.445h-.02a2.46,2.46,0,0,1-1.275-.493.774.774,0,0,1-.175-.976,1.021,1.021,0,0,1,.843-.265c.143,0,.289.008.4.018,1.055.059,2.119.088,3.171.088s2.11-.029,3.157-.088h.509a5.387,5.387,0,0,0,2.058-.409,2.074,2.074,0,0,0,1.243-2.033v-.029c-.161-.963-1.082-1.606-2.688-1.848-.4-.059-.8-.109-1.193-.149-.642-.074-1.284-.135-1.915-.2a43,43,0,0,1-4.345-.564c-1.153-.231-2.309-.562-3.426-.881s-2.248-.642-3.4-.877a14.1,14.1,0,0,0-3.075-.34Z" transform="translate(-45.15 -118.707)" fill="#fcfdff"/>
    <path id="Path_1976" data-name="Path 1976" d="M22.4,127.683a4.052,4.052,0,0,1,.106-1.077,2.087,2.087,0,0,1,.181-.443,1.885,1.885,0,0,1,.382-.482,2.408,2.408,0,0,1,.784-.462v-.2a.891.891,0,0,0-.912-.87H18.92a.891.891,0,0,0-.92.872v15.243a.9.9,0,0,0,.917.87h4.014a.9.9,0,0,0,.917-.87V140.1a2.816,2.816,0,0,1-.91-.75h0l-.148-.2a3.727,3.727,0,0,1-.454-2.123Zm-2.209-.368a.666.666,0,1,0,.663-.67A.666.666,0,0,0,20.193,127.315Z" transform="translate(-18.02 -112.048)" fill="#121f48"/>
    <g id="Group_8700" data-name="Group 8700" transform="translate(29.76 -1.92)" clip-path="url(#clip-path)">
      <path id="Path_3389" data-name="Path 3389" d="M189.474,80.618s4.656.095,7.225-.188c-.161,0-3.853,3.823-16.572,6.9C180.033,87.228,189.474,80.618,189.474,80.618Z" transform="translate(-183.875 -73.43)" fill="#28aae1"/>
      <path id="Path_3390" data-name="Path 3390" d="M180.13,52.379l3.254-8.349a66.627,66.627,0,0,0,18.737-5.241C202.121,38.784,186.878,49.547,180.13,52.379Z" transform="translate(-183.879 -38.475)" fill="#162048"/>
    </g>
  </g>
</svg>
