<svg xmlns="http://www.w3.org/2000/svg" width="60" height="60" viewBox="0 0 60 60">
  <g id="ico_asiento_plus" transform="translate(-484 -957)">
    <rect id="bg" width="60" height="60" transform="translate(484 957)" fill="#fff"/>
    <g id="noun_window_seat_4017444" data-name="noun_window seat_4017444" transform="translate(487.123 967.82)">
      <path id="Path_284" data-name="Path 284" d="M28.266,22.163a.823.823,0,0,1-.822.822H17.861l.127.33c.73,1.506,1.552,2.75,2.278,2.75H32.579a2.462,2.462,0,0,1,2.462,2.462V29.76a2.462,2.462,0,0,1-2.462,2.462H30.117l2.408,5.765a1.229,1.229,0,0,1-1.152,1.621H15.311a1.229,1.229,0,0,1-1.152-1.621l2.512-5.765H15.342c-.038,0-.077-.012-.115-.012a2.549,2.549,0,0,1-2.458-1.867L6.8,8.321a2.53,2.53,0,0,1,1.813-3.1,2.563,2.563,0,0,1,3.134,1.79l5.17,13.508h9.709A1.642,1.642,0,0,1,28.266,22.163ZM17.646,35.609a1.227,1.227,0,0,0,1.179,1.529h9.033a1.227,1.227,0,0,0,1.179-1.529l-1.383-3.4H19.032Z" transform="translate(0 0)" fill="#152049" fill-rule="evenodd"/>
    </g>
    <g id="Rectangle_17110" data-name="Rectangle 17110" transform="translate(514 967)" fill="#00a1ed" stroke="#152049" stroke-width="1.5">
      <rect width="14" height="19" rx="5" stroke="none"/>
      <rect x="0.75" y="0.75" width="12.5" height="17.5" rx="4.25" fill="none"/>
    </g>
  </g>
</svg>
