<svg xmlns="http://www.w3.org/2000/svg" width="60" height="60" viewBox="0 0 60 60">
  <g id="ico_fares_baggage" transform="translate(-125.369 -52.379)">
    <rect id="bg" width="60" height="60" transform="translate(125.369 52.379)" fill="#fff"/>
    <path id="Path_3376" data-name="Path 3376" d="M141.5,342.649h-.021a3.183,3.183,0,0,1-3.175-3.175v-3.124a4.3,4.3,0,0,1,3.2-4.144V342.65Z" transform="translate(0 -246.922)" fill="#152049"/>
    <path id="Path_3377" data-name="Path 3377" d="M522.3,332.139a4.3,4.3,0,0,1,3.216,4.149v3.124a3.183,3.183,0,0,1-3.175,3.175H522.3V332.139Z" transform="translate(-352.647 -246.86)" fill="#152049"/>
    <path id="Path_3378" data-name="Path 3378" d="M250.038,339.462h-5.483a6.413,6.413,0,0,1-6.378-5.981l0-.085a3.242,3.242,0,0,1,3.217-2.924h11.8a3.242,3.242,0,0,1,3.217,2.924l0,.085a6.413,6.413,0,0,1-6.378,5.981Z" transform="translate(-91.722 -245.329)" fill="#00a1ed"/>
    <path id="Path_3379" data-name="Path 3379" d="M282.25,67.13a4.248,4.248,0,0,1,1.655-2.557,6.647,6.647,0,0,1,7.733,0,4.249,4.249,0,0,1,1.655,2.557,11.535,11.535,0,0,0-1.84-.347,2.968,2.968,0,0,0-.8-.915,5.034,5.034,0,0,0-5.753,0,2.974,2.974,0,0,0-.8.915,11.534,11.534,0,0,0-1.84.347Z" transform="translate(-132.196)" fill="#00a1ed" fill-rule="evenodd"/>
    <path id="Path_3380" data-name="Path 3380" d="M195.187,111.47a11.1,11.1,0,0,0-11.067,11.067V141.97a.675.675,0,0,0,.2.476l0,0a.675.675,0,0,0,.476.2h24.531a1.863,1.863,0,0,0,1.86-1.859v-18.25a11.1,11.1,0,0,0-11.067-11.067h-4.932Zm-.275,3.763h5.483a6.954,6.954,0,0,1,6.937,6.937v9.778a6.954,6.954,0,0,1-6.937,6.937h-5.483a6.955,6.955,0,0,1-6.937-6.937v-9.778a6.955,6.955,0,0,1,6.937-6.937Z" transform="translate(-42.078 -44.207)" fill="#152049" fill-rule="evenodd"/>
    <path id="Path_3381" data-name="Path 3381" d="M244.392,164.23A6.41,6.41,0,0,0,238,170.623V180.4a6.41,6.41,0,0,0,6.371,6.393h5.5a6.41,6.41,0,0,0,6.393-6.393v-9.778a6.41,6.41,0,0,0-6.393-6.393Zm2.741,5.866a2.086,2.086,0,1,0,1.475.611A2.078,2.078,0,0,0,247.133,170.1Z" transform="translate(-91.558 -92.659)" fill="#152049" fill-rule="evenodd"/>
  </g>
</svg>
