<svg xmlns="http://www.w3.org/2000/svg" width="60" height="60" viewBox="0 0 60 60">
  <g id="ico_cambio_plus" transform="translate(12.998 12.954)">
    <rect id="bg" width="60" height="60" transform="translate(-12.998 -12.954)" fill="#fff"/>
    <circle id="Ellipse_42" data-name="Ellipse 42" cx="17" cy="17" r="17" transform="translate(0.002 0.046)" fill="#152049"/>
    <path id="Path_3382" data-name="Path 3382" d="M344.8,103.075,336,98V84h1.921V96.888l7.836,4.524Z" transform="translate(-319.674 -80.155)" fill="#fff" stroke="#fff" stroke-width="1"/>
    <path id="Path_3383" data-name="Path 3383" d="M98,456.432l1.491-5.565,4.074,4.074Z" transform="translate(-98 -421.859)" fill="#00a1ed"/>
    <path id="Path_3384" data-name="Path 3384" d="M129.63,291.041,140.671,280l4.074,4.074L133.7,295.115Z" transform="translate(-127.46 -262.713)" fill="#00a1ed" stroke="#fff" stroke-width="1"/>
    <path id="Path_3385" data-name="Path 3385" d="M115.286,27.993a17.283,17.283,0,0,0-14.632,26.486l1.4-1.4a15.384,15.384,0,1,1,5.432,5.432l-1.4,1.4a17.285,17.285,0,1,0,9.2-31.918Z" transform="translate(-98 -27.992)" fill="#152049"/>
  </g>
</svg>
