<svg xmlns="http://www.w3.org/2000/svg" width="19.987" height="21.66" viewBox="0 0 19.987 21.66">
  <g id="ico-download" transform="translate(-31.53 -30)">
    <path id="Path_5098" data-name="Path 5098" d="M50.62,41.371l-4.873,4.873a.915.915,0,0,1-.661.271.937.937,0,0,1-.666-.271l-4.873-4.873a.942.942,0,0,1-.206-1.023.953.953,0,0,1,.866-.6h3.937v-8.81a.937.937,0,0,1,1.874,0v8.81h3.937a.948.948,0,0,1,.866.579A.931.931,0,0,1,50.62,41.371Z" transform="translate(-3.549)" fill="#fff"/>
    <path id="Path_5099" data-name="Path 5099" d="M50.574,58.21a.942.942,0,0,0-.921.937v3.568H33.409V59.147a.942.942,0,0,0-1.879,0v4.511a.942.942,0,0,0,.958.937H50.574a.942.942,0,0,0,.942-.937V59.147A.942.942,0,0,0,50.574,58.21Z" transform="translate(0 -12.934)" fill="#fff"/>
  </g>
</svg>
