<svg xmlns="http://www.w3.org/2000/svg" xmlns:xlink="http://www.w3.org/1999/xlink" width="246.679" height="203.888" viewBox="0 0 246.679 203.888">
  <defs>
    <linearGradient id="linear-gradient" x1="-0.001" y1="0.5" x2="0.999" y2="0.5" gradientUnits="objectBoundingBox">
      <stop offset="0" stop-color="#5454b5"/>
      <stop offset="1" stop-color="#6dc7cc"/>
    </linearGradient>
  </defs>
  <g id="ico_seguimiento" transform="translate(-813.129 -1058.533)">
    <g id="Group_8804" data-name="Group 8804" transform="translate(773.033 1271.35)">
      <path id="Path_5100" data-name="Path 5100" d="M100.6-170.021s73.97-70.738,99.834-30.325,49.188,65.449,73.2,64.362,53.576-2.935,52.652,42.328S140.272,17.421,120.475-19.989,51.885-129.5,100.6-170.021Z" transform="translate(-39.541 0)" fill="#152049"/>
      <ellipse id="Ellipse_350" data-name="Ellipse 350" cx="109.214" cy="8.293" rx="109.214" ry="8.293" transform="translate(45.1 -62.07)" fill="#d1d1d1" opacity="0.6"/>
      <g id="Group_8791" data-name="Group 8791" transform="translate(54.199 -168.646)">
        <g id="Group_8785" data-name="Group 8785" transform="translate(0 104.485)">
          <g id="Group_8783" data-name="Group 8783" transform="translate(1.126 4.176)">
            <path id="Path_5101" data-name="Path 5101" d="M132.835,1018.485H315.223a8.342,8.342,0,0,0,7.226-4.176H125.609A8.341,8.341,0,0,0,132.835,1018.485Z" transform="translate(-125.609 -1014.309)" fill="#b2b1b1"/>
          </g>
          <g id="Group_8784" data-name="Group 8784" transform="translate(0 0)">
            <path id="Path_5102" data-name="Path 5102" d="M229.3,981.429a3.557,3.557,0,0,1-2.942,1.555H206.214a3.557,3.557,0,0,1-2.942-1.555H116.74a8.3,8.3,0,0,0,1.126,4.176h196.84a8.3,8.3,0,0,0,1.126-4.176Z" transform="translate(-116.74 -981.429)" fill="#cecccc"/>
            <path id="Path_5103" data-name="Path 5103" d="M800.978,982.984h20.144a3.557,3.557,0,0,0,2.943-1.555H798.036A3.557,3.557,0,0,0,800.978,982.984Z" transform="translate(-711.504 -981.429)" fill="#a0a0a0"/>
          </g>
        </g>
        <g id="Group_8788" data-name="Group 8788" transform="translate(21.1 0)">
          <rect id="Rectangle_17228" data-name="Rectangle 17228" width="156.892" height="104.485" rx="7.08" transform="translate(0 0)" fill="#141313"/>
          <g id="Group_8786" data-name="Group 8786" transform="translate(44.148)">
            <path id="Path_5104" data-name="Path 5104" d="M630.46,158.783l56.553,104.485h29.014L641.274,158.783Z" transform="translate(-630.46 -158.783)" fill="#fff" opacity="0.3"/>
            <path id="Path_5105" data-name="Path 5105" d="M883.226,259.829v-31.8L846.3,158.783H790.854l74.212,104.485h14.721A3.439,3.439,0,0,0,883.226,259.829Z" transform="translate(-770.482 -158.783)" fill="#fff" opacity="0.2"/>
          </g>
          <g id="Group_8787" data-name="Group 8787" transform="translate(77.341 2.62)">
            <path id="Path_5106" data-name="Path 5106" d="M894.008,180.517a1.105,1.105,0,1,1-1.106-1.105A1.106,1.106,0,0,1,894.008,180.517Z" transform="translate(-891.797 -179.412)"/>
            <path id="Path_5107" data-name="Path 5107" d="M898.887,186.227a.275.275,0,1,1-.275-.275A.275.275,0,0,1,898.887,186.227Z" transform="translate(-897.506 -185.121)" fill="#fff" opacity="0.2"/>
          </g>
          <rect id="Rectangle_17229" data-name="Rectangle 17229" width="139.156" height="88.615" transform="translate(8.868 7.935)" fill="url(#linear-gradient)"/>
        </g>
        <g id="Group_8790" data-name="Group 8790" transform="translate(44.83 22.55)">
          <g id="Group_8789" data-name="Group 8789">
            <path id="Path_5108" data-name="Path 5108" d="M544.258,353.725h-72.4a2.159,2.159,0,0,1-2.159-2.159V338.483a2.159,2.159,0,0,1,2.159-2.159h72.4C545.45,336.324,545.45,353.725,544.258,353.725Z" transform="translate(-469.702 -336.324)" fill="#fff"/>
            <path id="Path_5109" data-name="Path 5109" d="M1091.227,351.6a2.159,2.159,0,0,1-2.159,2.159H1056.3v-17.4h32.769a2.159,2.159,0,0,1,2.159,2.159Z" transform="translate(-981.794 -336.352)" fill="#141313"/>
          </g>
        </g>
      </g>
      <g id="Nerd" transform="translate(91.865 -163.587)">
        <g id="Character">
          <g id="Body" transform="translate(0 22.664)">
            <g id="Group_8796" data-name="Group 8796">
              <g id="Body-2" data-name="Body" transform="translate(7.583 41.145)">
                <rect id="Rectangle_17230" data-name="Rectangle 17230" width="3.048" height="3.937" transform="translate(13.717 39.501)" fill="#f2c5ad"/>
                <rect id="Rectangle_17231" data-name="Rectangle 17231" width="3.048" height="3.937" transform="translate(2.794 39.501)" fill="#f2c5ad"/>
                <g id="Group_8792" data-name="Group 8792" transform="translate(12.447 41.661)">
                  <rect id="Rectangle_17232" data-name="Rectangle 17232" width="9.907" height="1.397" transform="translate(0 5.206)" fill="#fff"/>
                  <path id="Path_5110" data-name="Path 5110" d="M576.828,1030.463v-1.453a1.337,1.337,0,0,0-1.281,1.4l-2.307,0L572,1034.216h9.78v-.835Z" transform="translate(-571.875 -1029.01)" fill="#373737"/>
                </g>
                <g id="Group_8794" data-name="Group 8794" transform="translate(1.397 41.604)">
                  <rect id="Rectangle_17233" data-name="Rectangle 17233" width="5.588" height="1.397" transform="translate(0 5.263)" fill="#fff"/>
                  <g id="Group_8793" data-name="Group 8793" transform="translate(0.127)">
                    <path id="Path_5111" data-name="Path 5111" d="M486.4,1030.016h.261a1.336,1.336,0,1,1,2.663,0h.125l1.143,3.81H485Z" transform="translate(-485.002 -1028.563)" fill="#373737"/>
                  </g>
                </g>
                <g id="Group_8795" data-name="Group 8795">
                  <path id="Path_5112" data-name="Path 5112" d="M473,701v6.039a6,6,0,0,0,2.025,2.946l.161,30.516h4.328l-.066-30.177,6.65.044.024,30.134h3.9V701Z" transform="translate(-473 -701)" fill="#2b72b6"/>
                  <rect id="Rectangle_17234" data-name="Rectangle 17234" width="5.08" height="1.905" transform="translate(12.574 37.595)" fill="#80b3dd"/>
                  <rect id="Rectangle_17235" data-name="Rectangle 17235" width="5.08" height="1.905" transform="translate(1.778 37.595)" fill="#80b3dd"/>
                </g>
              </g>
              <path id="Path_5113" data-name="Path 5113" d="M621.12,402.685a6.766,6.766,0,0,1-.905-.061c-4.878-.659-8.658-6.367-9.073-7.016l3.208-2.056c.871,1.352,3.714,4.94,6.38,5.3a3,3,0,0,0,2.487-.857c3.636-3.923-.3-15.419-1.973-19.153l3.481-1.783a61.555,61.555,0,0,1,2.935,9.1c1.576,6.793.991,11.68-1.739,14.527l-.1.1A6.95,6.95,0,0,1,621.12,402.685Z" transform="translate(-586.012 -377.054)" fill="#f2c5ad"/>
              <path id="Path_5114" data-name="Path 5114" d="M413.931,546.472l3.792-.368a142.881,142.881,0,0,1-.589-14.878c.158-5.763,2.066-15.331,2.085-15.427l-3.736-.749c-.081.4-1.991,9.982-2.158,16.072A143.93,143.93,0,0,0,413.931,546.472Z" transform="translate(-413.295 -497.522)" fill="#f2c5ad"/>
              <path id="Path_5115" data-name="Path 5115" d="M447.731,445.4l4.811-3.157c-1.668-5.437-5.6-11.078-14.422-11.078s-14.417,6.593-14.87,12.184L428.3,445.4v26.007h19.433Z" transform="translate(-421.985 -424.291)" fill="#373737"/>
              <path id="Path_5116" data-name="Path 5116" d="M519.672,408.523a12.7,12.7,0,0,0-1.385-.242l-.318-3.312-3.56-.129-.136,3.442a10.559,10.559,0,0,0-1.684.272,4.058,4.058,0,0,0-.017.519,3.736,3.736,0,0,0,3.714,3.787,3.825,3.825,0,0,0,3.4-4.14C519.683,408.684,519.674,408.558,519.672,408.523Z" transform="translate(-499.961 -401.311)" fill="#f2c5ad"/>
            </g>
          </g>
          <g id="Group_8801" data-name="Group 8801" transform="translate(2.885)">
            <g id="Front">
              <g id="Head">
                <g id="teen">
                  <g id="Group_8797" data-name="Group 8797">
                    <path id="Path_5117" data-name="Path 5117" d="M604.74,314.143a2.789,2.789,0,1,1-2.667-2.911A2.792,2.792,0,0,1,604.74,314.143Z" transform="translate(-578.442 -296.926)" fill="#f2c5ad"/>
                    <path id="Path_5118" data-name="Path 5118" d="M479.541,237.716a10.393,10.393,0,0,1-10.826,9.942h0a10.393,10.393,0,0,1-9.941-10.826l.165-3.872c.1-2.312-.022-5.58,1.329-7.252,2-2.474,6.074-2.835,9.5-2.69h0a10.393,10.393,0,0,1,9.941,10.826Z" transform="translate(-455.874 -219.894)" fill="#f2c5ad"/>
                    <path id="Path_5119" data-name="Path 5119" d="M441.584,310.461a2.789,2.789,0,1,1-2.667-2.911A2.792,2.792,0,0,1,441.584,310.461Z" transform="translate(-436.009 -293.711)" fill="#f2c5ad"/>
                    <path id="Path_5120" data-name="Path 5120" d="M455.869,255.471a4.128,4.128,0,0,1-.555-.445s-1.335-3.192-.717-5.455a11.122,11.122,0,0,1,1.732-3.508l2.609,2.341A14.531,14.531,0,0,0,455.869,255.471Z" transform="translate(-452.094 -240.037)" fill="#ba6338"/>
                    <path id="Path_5121" data-name="Path 5121" d="M600.677,252.331l2.045-.778s1.971,2.8,1.016,7.655l-.242.083S603.378,254.437,600.677,252.331Z" transform="translate(-579.762 -244.829)" fill="#ba6338"/>
                    <path id="Path_5122" data-name="Path 5122" d="M469.9,204.543l2.625,2.327s10.233,1.027,14.924-.86c2.267-.912,2.875-1.415,3.44-6.563C487.756,204.167,469.84,191.894,469.9,204.543Z" transform="translate(-465.597 -198.615)" fill="#a55532"/>
                  </g>
                </g>
                <g id="Group_8798" data-name="Group 8798" transform="translate(9.778 18.114)">
                  <path id="Path_5123" data-name="Path 5123" d="M551.858,347.022a.244.244,0,1,0,.2-.273A.241.241,0,0,0,551.858,347.022Z" transform="translate(-546.92 -346.046)" fill="#9b4b10"/>
                  <path id="Path_5124" data-name="Path 5124" d="M542.358,341.941a.178.178,0,1,0,.149-.2A.176.176,0,0,0,542.358,341.941Z" transform="translate(-538.627 -341.675)" fill="#9b4b10"/>
                  <path id="Path_5125" data-name="Path 5125" d="M535.064,349.641a.243.243,0,1,0,.2-.273A.24.24,0,0,0,535.064,349.641Z" transform="translate(-532.259 -348.332)" fill="#9b4b10"/>
                  <path id="Path_5126" data-name="Path 5126" d="M530.383,341.47a.211.211,0,1,0,.177-.237A.209.209,0,0,0,530.383,341.47Z" transform="translate(-528.172 -341.23)" fill="#9b4b10"/>
                  <path id="Path_5127" data-name="Path 5127" d="M522.1,347.872a.25.25,0,1,0,.21-.28A.248.248,0,0,0,522.1,347.872Z" transform="translate(-520.94 -346.781)" fill="#9b4b10"/>
                  <path id="Path_5128" data-name="Path 5128" d="M513,353.082a.2.2,0,1,0,.166-.221A.2.2,0,0,0,513,353.082Z" transform="translate(-512.996 -351.381)" fill="#9b4b10"/>
                  <path id="Path_5129" data-name="Path 5129" d="M562.408,352.783a.215.215,0,1,0,.18-.241A.212.212,0,0,0,562.408,352.783Z" transform="translate(-556.13 -351.103)" fill="#9b4b10"/>
                  <path id="Path_5130" data-name="Path 5130" d="M561,343.755a.215.215,0,1,0,.18-.241A.212.212,0,0,0,561,343.755Z" transform="translate(-554.901 -343.222)" fill="#9b4b10"/>
                  <path id="Path_5131" data-name="Path 5131" d="M573.057,351.123a.215.215,0,1,0,.18-.241A.213.213,0,0,0,573.057,351.123Z" transform="translate(-565.427 -349.654)" fill="#9b4b10"/>
                </g>
              </g>
              <g id="Group_8799" data-name="Group 8799" transform="translate(3.965 13.636)">
                <path id="Path_5132" data-name="Path 5132" d="M485.923,307.022l-6.227-.016-4.621-.011h-.049l-6.178-.015a1.723,1.723,0,0,0-1.617,1.726l0,.035v.034a28.489,28.489,0,0,0,.495,3.241c.172.555.726,1.606,1.592,1.608l4.608.012c1.576,0,2.416-3.791,2.6-4.693a.915.915,0,0,1,.812-.557.821.821,0,0,1,.748.517c.094.816.6,4.745,2.207,4.749l4.608.012c.867,0,1.509-1.045,1.727-1.6.27-.683.755-3.151.774-3.238l.008-.034v-.035A1.576,1.576,0,0,0,485.923,307.022Zm-10.035,2.136c-.246,1.26-1.014,3.787-1.935,3.784l-4.377.011c-.634.05-.8-.631-.95-1.115a24.024,24.024,0,0,1-.358-2.653c.039-.557.222-1,.727-1l6-.006a.959.959,0,0,1,.763.4A.744.744,0,0,1,475.888,309.158Zm9.924,2.542c-.191.483-.408,1.224-1.117,1.248l-4.377.01c-.921,0-1.439-2.511-1.579-3.772a.789.789,0,0,1,.184-.583,1.048,1.048,0,0,1,.8-.394l6-.007c.505,0,.756.472.749,1.028C486.4,309.512,486.041,311.118,485.811,311.7Z" transform="translate(-467.228 -306.852)"/>
                <path id="Path_5133" data-name="Path 5133" d="M542.462,307.818l-.872-.033-.223-1.811,1.467.023Z" transform="translate(-531.951 -305.975)" fill="#fff"/>
              </g>
            </g>
            <g id="Group_8800" data-name="Group 8800" transform="translate(7.844 16.52)">
              <path id="Path_5134" data-name="Path 5134" d="M520.483,367.475l-8.965-.167s1.522,3.2,4.423,3.2A4.942,4.942,0,0,0,520.483,367.475Z" transform="translate(-509.772 -362.402)" fill="#fff"/>
              <path id="Path_5135" data-name="Path 5135" d="M573.773,330.227a1.172,1.172,0,1,0,.8-1.5A1.205,1.205,0,0,0,573.773,330.227Z" transform="translate(-564.078 -328.682)"/>
              <path id="Path_5136" data-name="Path 5136" d="M497.817,330.227a1.172,1.172,0,1,0,.8-1.5A1.205,1.205,0,0,0,497.817,330.227Z" transform="translate(-497.769 -328.682)"/>
            </g>
          </g>
        </g>
        <g id="Group_8803" data-name="Group 8803" transform="translate(17.043 10.3)">
          <g id="Group_8802" data-name="Group 8802" transform="translate(0.606 0.689)">
            <path id="Path_5137" data-name="Path 5137" d="M561.815,286.166a6.16,6.16,0,0,1,1.73,8.538h0a6.16,6.16,0,0,1-8.538,1.73h0a6.16,6.16,0,0,1-1.73-8.538h0a6.16,6.16,0,0,1,8.538-1.73Z" transform="translate(-552.25 -285.139)" fill="#f2c5ad"/>
            <path id="Path_5138" data-name="Path 5138" d="M554.9,345.077a.3.3,0,1,0,.252-.337A.3.3,0,0,0,554.9,345.077Z" transform="translate(-554.56 -337.167)" fill="#9b4b10"/>
            <path id="Path_5139" data-name="Path 5139" d="M571.779,355.393a.3.3,0,1,0,.252-.337A.3.3,0,0,0,571.779,355.393Z" transform="translate(-569.295 -346.172)" fill="#9b4b10"/>
            <path id="Path_5140" data-name="Path 5140" d="M572.78,326.138a1.641,1.641,0,1,0,1.118-2.107A1.688,1.688,0,0,0,572.78,326.138Z" transform="translate(-570.115 -319.042)"/>
            <path id="Path_5141" data-name="Path 5141" d="M560.658,303.232c1.213,0,2.113-1.463,2.418-2.239a43.881,43.881,0,0,0,1.048-4.357,6.128,6.128,0,0,0-2.147-2.7l-7.09-.018a6.143,6.143,0,0,0-1.6,1.642l-.03.048a1.242,1.242,0,0,1,.152-.009l8.4-.009c.708,0,1.059.66,1.048,1.44-.09.393-.591,2.641-.912,3.456-.267.676-.571,1.713-1.564,1.748l-6.128.014c-.972,0-1.624-2-1.969-3.739a6.169,6.169,0,0,0,1.66,4.679,1.342,1.342,0,0,0,.269.029Z" transform="translate(-552.26 -292.803)"/>
          </g>
          <path id="Path_5142" data-name="Path 5142" d="M561.815,286.166a6.16,6.16,0,0,1,1.73,8.538h0a6.16,6.16,0,0,1-8.538,1.73h0a6.16,6.16,0,0,1-1.73-8.538h0a6.16,6.16,0,0,1,8.538-1.73Z" transform="translate(-551.644 -284.45)" fill="#fff" opacity="0.3"/>
          <path id="Path_5143" data-name="Path 5143" d="M559.93,290.253a6.79,6.79,0,1,1-1.907-9.412A6.8,6.8,0,0,1,559.93,290.253Zm-10.26-6.8a5.52,5.52,0,1,0,7.651-1.55A5.527,5.527,0,0,0,549.67,283.45Z" transform="translate(-547.482 -279.712)"/>
          <path id="Path_5144" data-name="Path 5144" d="M636.516,348.913l9.244,6.129a1.747,1.747,0,0,1,.475,2.428l-.019.029a1.747,1.747,0,0,1-2.421.508l-9.244-6.129Z" transform="translate(-623.492 -340.124)"/>
          <path id="Path_5145" data-name="Path 5145" d="M614.245,303.037a3.29,3.29,0,0,0-2.364-1.761l-.686,1.762a3.293,3.293,0,0,1,2.815,3.36A3.293,3.293,0,0,0,614.245,303.037Z" transform="translate(-603.103 -298.537)" fill="#fff"/>
        </g>
        <path id="Path_5146" data-name="Path 5146" d="M684.139,366.575a2.564,2.564,0,1,1-2.564-2.563A2.563,2.563,0,0,1,684.139,366.575Z" transform="translate(-645.263 -343.005)" fill="#f2c5ad"/>
      </g>
    </g>
    <g id="Layer_2" data-name="Layer 2" transform="translate(928 1157.227)">
      <path id="Path_5147" data-name="Path 5147" d="M14.851,14.682a1.674,1.674,0,0,0,1.768,0l13.5-8.354A3.7,3.7,0,0,0,26.539,3.25H4.944A3.7,3.7,0,0,0,1.3,6.327Z" transform="translate(0.017 0)" fill="#fff"/>
      <path id="Path_5148" data-name="Path 5148" d="M4.962,24.117H26.556a3.712,3.712,0,0,0,3.712-3.712V7.26L17.7,15.007a3.685,3.685,0,0,1-3.887,0L1.25,7.26V20.406a3.712,3.712,0,0,0,3.712,3.712Z" transform="translate(0 1.402)" fill="#fff"/>
    </g>
    <g id="Union_2" data-name="Union 2" transform="matrix(0.921, 0.391, -0.391, 0.921, 1724.875, 12514.496)" fill="none">
      <path d="M-5156-10178a5,5,0,0,1,5-5,5,5,0,0,1,5,5c0,.033,0,.066,0,.1l5.424,1.451-.519,1.933-5.344-1.431A5,5,0,0,1-5151-10173,5,5,0,0,1-5156-10178Z" stroke="none"/>
      <path d="M -5151.0009765625 -10174 C -5149.43017578125 -10174 -5147.99755859375 -10174.92578125 -5147.35107421875 -10176.357421875 L -5147.00146484375 -10177.1318359375 L -5141.80224609375 -10175.740234375 L -5141.8017578125 -10175.7412109375 L -5147.01171875 -10177.134765625 L -5147.00048828125 -10177.9140625 C -5147 -10177.9423828125 -5146.99951171875 -10177.970703125 -5146.99951171875 -10177.9990234375 C -5146.99951171875 -10180.205078125 -5148.79443359375 -10182 -5151.0009765625 -10182 C -5153.20556640625 -10182 -5154.99951171875 -10180.205078125 -5154.99951171875 -10177.9990234375 C -5154.99951171875 -10175.7939453125 -5153.20556640625 -10174 -5151.0009765625 -10174 M -5151.0009765625 -10173 C -5153.7607421875 -10173 -5155.99951171875 -10175.2392578125 -5155.99951171875 -10177.9990234375 C -5155.99951171875 -10180.76171875 -5153.7607421875 -10183 -5151.0009765625 -10183 C -5148.23828125 -10183 -5145.99951171875 -10180.76171875 -5145.99951171875 -10177.9990234375 C -5145.99951171875 -10177.9658203125 -5146 -10177.9326171875 -5146.00048828125 -10177.8994140625 L -5140.57666015625 -10176.4482421875 L -5141.09521484375 -10174.515625 L -5146.439453125 -10175.9462890625 C -5147.22314453125 -10174.2099609375 -5148.970703125 -10173 -5151.0009765625 -10173 Z" stroke="none" fill="#fff"/>
    </g>
  </g>
</svg>
