<svg xmlns="http://www.w3.org/2000/svg" width="249.404" height="199" viewBox="0 0 249.404 199">
  <g id="ico_tyc" transform="translate(-276.433 -694.5)">
    <g id="Group_8771" data-name="Group 8771" transform="translate(492.472 1026.634)">
      <path id="Path_5046" data-name="Path 5046" d="M-127.181-304.414c27.491-6.933,108.211-62.51,130.011,6.467S65.893-126.121-12.322-133.511s-125.637-16.628-160.741-9.546S-267.6-269-127.181-304.414Z" fill="#152049"/>
      <ellipse id="Ellipse_346" data-name="Ellipse 346" cx="100.941" cy="7.664" rx="100.941" ry="7.664" transform="translate(-185.443 -176.002)" fill="#4f8e8e" opacity="0.3"/>
      <g id="Group_8766" data-name="Group 8766" transform="translate(-177.033 -274.505)">
        <g id="Group_8762" data-name="Group 8762" transform="translate(0 96.57)">
          <g id="Group_8760" data-name="Group 8760" transform="translate(1.041 3.86)">
            <path id="Path_5047" data-name="Path 5047" d="M131.787,1018.168H300.359a7.711,7.711,0,0,0,6.679-3.859H125.109A7.71,7.71,0,0,0,131.787,1018.168Z" transform="translate(-125.109 -1014.309)" fill="#cecccc"/>
          </g>
          <g id="Group_8761" data-name="Group 8761">
            <path id="Path_5048" data-name="Path 5048" d="M220.274,981.429a3.287,3.287,0,0,1-2.72,1.437H198.937a3.287,3.287,0,0,1-2.719-1.437H116.24a7.674,7.674,0,0,0,1.041,3.86H299.21a7.675,7.675,0,0,0,1.041-3.86Z" transform="translate(-116.24 -981.429)" fill="#ddd"/>
            <path id="Path_5049" data-name="Path 5049" d="M800.255,982.866h18.618a3.287,3.287,0,0,0,2.72-1.437H797.536A3.287,3.287,0,0,0,800.255,982.866Z" transform="translate(-717.559 -981.429)" fill="#a0a0a0"/>
          </g>
        </g>
        <g id="Group_8765" data-name="Group 8765" transform="translate(19.502 0)">
          <rect id="Rectangle_17199" data-name="Rectangle 17199" width="145.007" height="96.57" rx="7.08" transform="translate(0 0)" fill="#141313"/>
          <g id="Group_8763" data-name="Group 8763" transform="translate(40.804)">
            <path id="Path_5050" data-name="Path 5050" d="M629.96,158.783l52.269,96.57h26.817l-61.968-96.57Z" transform="translate(-629.96 -158.783)" fill="#fff" opacity="0.3"/>
            <path id="Path_5051" data-name="Path 5051" d="M899.247,252.175V222.782l-34.133-64H817l65.463,96.57h13.606A3.179,3.179,0,0,0,899.247,252.175Z" transform="translate(-795.043 -158.783)" fill="#fff" opacity="0.2"/>
          </g>
          <g id="Group_8764" data-name="Group 8764" transform="translate(71.482 2.422)">
            <path id="Path_5052" data-name="Path 5052" d="M893.34,180.434a1.022,1.022,0,1,1-1.022-1.022A1.022,1.022,0,0,1,893.34,180.434Z" transform="translate(-891.297 -179.412)"/>
            <path id="Path_5053" data-name="Path 5053" d="M898.345,186.206a.254.254,0,1,1-.254-.254A.254.254,0,0,1,898.345,186.206Z" transform="translate(-897.069 -185.184)" fill="#fff" opacity="0.2"/>
          </g>
          <rect id="Rectangle_17200" data-name="Rectangle 17200" width="128.615" height="81.902" transform="translate(8.196 7.334)" fill="#fff"/>
        </g>
      </g>
      <g id="Nerd" transform="translate(-117.388 -278.51)">
        <g id="Body" transform="translate(0 48.651)">
          <path id="Path_5054" data-name="Path 5054" d="M1045.855,634.831s-1.078,3-1.36,4.026-1.159,1.163-.752-.234c.428-1.472,1.032-4.266,1.439-5.96s-1.188-2.261-1.675-.8-1.178,4.682-1.565,6.244c-.069.278-.279,1.033-.563,1-.381-.1-.727-2.792-3.672-3.3-2-.347-3.291.227-4.109,1.8-.129.249-.365,1.082.385,1.235a1.327,1.327,0,0,0,1.176-.339,2.348,2.348,0,0,1,2.175-.859,2.724,2.724,0,0,1,2.123,3.207,2.111,2.111,0,0,1-2.939,1.657c-.893-.3-1.96-1.092-1.913-2.181.015-.329.021-1.094-.568-1.185a1.076,1.076,0,0,0-1.19.943,3.483,3.483,0,0,0,3.008,4.193.976.976,0,0,1,.889,1.038,63.833,63.833,0,0,1-2,10.168c-1.515,5.085-3.606,8.349-5.458,8.517-.749.069-3.524-.25-7.829-7.183a60.443,60.443,0,0,1-4.488-8.978v0l-6.564,2.506a66.727,66.727,0,0,0,5.029,10.091c4.352,7.04,8.935,10.6,13.639,10.6.282,0,.566-.013.849-.039,5.138-.466,9.026-5.012,11.557-13.509a65.3,65.3,0,0,0,2.19-11.1h-.01l.007-.012a32.43,32.43,0,0,0,2.708-6.712c.24-1.121,1.321-4.39,1.321-4.39C1048.279,632.955,1046.4,632.355,1045.855,634.831Z" transform="translate(-965.084 -620.234)" fill="#fccfb2"/>
          <path id="Path_5055" data-name="Path 5055" d="M634.273,760.376l-6.889-1.382c-.106.529-1.907,9.562-3.056,18.777h7.086C632.551,769.016,634.249,760.5,634.273,760.376Z" transform="translate(-624.328 -733.181)" fill="#fccfb2"/>
          <path id="Path_5056" data-name="Path 5056" d="M672.17,617.877l9.443-3.783c-.836-10.31-11.034-22.467-27.305-22.467s-26.5,12.157-27.336,22.467l9.395,3.783v12.174h35.8Z" transform="translate(-626.661 -585.462)" fill="#373737"/>
          <path id="Path_5057" data-name="Path 5057" d="M817.051,545.974a23.866,23.866,0,0,0-2.576-.448l-.593-6.181-6.565-.239-.25,6.347a20.019,20.019,0,0,0-3.15.512,7.444,7.444,0,0,0,.013.947c.161,4.037,3.227,7.163,6.849,6.984s6.427-3.6,6.266-7.635C817.041,546.194,817.055,546.04,817.051,545.974Z" transform="translate(-782.824 -539.106)" fill="#fccfb2"/>
        </g>
        <g id="Head" transform="translate(3.169)">
          <g id="Front">
            <g id="Head-2" data-name="Head">
              <g id="teen">
                <g id="Group_8767" data-name="Group 8767">
                  <path id="Path_5058" data-name="Path 5058" d="M987.128,354.723a5.142,5.142,0,1,1-4.918-5.368A5.148,5.148,0,0,1,987.128,354.723Z" transform="translate(-938.634 -322.974)" fill="#fccfb2"/>
                  <path id="Path_5059" data-name="Path 5059" d="M735.034,200.453a19.166,19.166,0,0,1-19.964,18.333h0a19.165,19.165,0,0,1-18.332-19.964l.3-7.141c.181-4.264-.041-10.29,2.451-13.372,3.689-4.561,11.2-5.228,17.512-4.96h0a19.165,19.165,0,0,1,18.333,19.963Z" transform="translate(-691.391 -167.588)" fill="#fccfb2"/>
                  <path id="Path_5060" data-name="Path 5060" d="M661.6,347.375a5.143,5.143,0,1,1-4.919-5.368A5.149,5.149,0,0,1,661.6,347.375Z" transform="translate(-651.32 -316.489)" fill="#fccfb2"/>
                  <path id="Path_5061" data-name="Path 5061" d="M690.727,236.679a7.615,7.615,0,0,1-1.023-.821s-2.462-5.885-1.323-10.059a20.515,20.515,0,0,1,3.194-6.469l4.811,4.318C694.419,226.42,691.706,229.949,690.727,236.679Z" transform="translate(-683.765 -208.217)" fill="#ba6338"/>
                  <path id="Path_5062" data-name="Path 5062" d="M979.863,231.719l3.772-1.434s3.635,5.17,1.874,14.115l-.447.153S984.844,235.6,979.863,231.719Z" transform="translate(-941.295 -217.886)" fill="#ba6338"/>
                  <path id="Path_5063" data-name="Path 5063" d="M718.943,135.6l4.841,4.291s18.869,1.893,27.52-1.587c4.181-1.682,5.3-2.61,6.343-12.1C751.866,134.9,718.829,112.27,718.943,135.6Z" transform="translate(-711.004 -124.663)" fill="#a55532"/>
                </g>
              </g>
              <g id="Group_8768" data-name="Group 8768" transform="translate(18.031 33.403)">
                <path id="Path_5064" data-name="Path 5064" d="M882.46,420.722a.45.45,0,1,0,.376-.5A.444.444,0,0,0,882.46,420.722Z" transform="translate(-873.353 -418.922)" fill="#9b4b10"/>
                <path id="Path_5065" data-name="Path 5065" d="M863.5,410.6a.329.329,0,1,0,.275-.367A.325.325,0,0,0,863.5,410.6Z" transform="translate(-856.625 -410.105)" fill="#9b4b10"/>
                <path id="Path_5066" data-name="Path 5066" d="M848.953,425.947a.449.449,0,1,0,.376-.5A.444.444,0,0,0,848.953,425.947Z" transform="translate(-843.78 -423.533)" fill="#9b4b10"/>
                <path id="Path_5067" data-name="Path 5067" d="M839.613,409.648a.39.39,0,1,0,.327-.436A.385.385,0,0,0,839.613,409.648Z" transform="translate(-835.537 -409.207)" fill="#9b4b10"/>
                <path id="Path_5068" data-name="Path 5068" d="M823.086,422.417a.462.462,0,1,0,.387-.516A.456.456,0,0,0,823.086,422.417Z" transform="translate(-820.949 -420.405)" fill="#9b4b10"/>
                <path id="Path_5069" data-name="Path 5069" d="M804.927,432.819a.365.365,0,1,0,.305-.408A.361.361,0,0,0,804.927,432.819Z" transform="translate(-804.922 -429.682)" fill="#9b4b10"/>
                <path id="Path_5070" data-name="Path 5070" d="M903.51,432.219a.4.4,0,1,0,.332-.444A.391.391,0,0,0,903.51,432.219Z" transform="translate(-891.933 -429.122)" fill="#9b4b10"/>
                <path id="Path_5071" data-name="Path 5071" d="M900.7,414.207a.4.4,0,1,0,.332-.444A.392.392,0,0,0,900.7,414.207Z" transform="translate(-889.453 -413.224)" fill="#9b4b10"/>
                <path id="Path_5072" data-name="Path 5072" d="M924.757,428.909a.4.4,0,1,0,.332-.444A.392.392,0,0,0,924.757,428.909Z" transform="translate(-910.686 -426.2)" fill="#9b4b10"/>
              </g>
            </g>
            <g id="Group_8769" data-name="Group 8769" transform="translate(7.312 25.145)">
              <path id="Path_5073" data-name="Path 5073" d="M748.082,340.948l-11.483-.029-8.522-.021h-.091l-11.392-.028a3.177,3.177,0,0,0-2.982,3.182l0,.065,0,.064a52.576,52.576,0,0,0,.913,5.976c.316,1.024,1.339,2.961,2.936,2.965l8.5.022c2.906.007,4.455-6.992,4.791-8.655a1.686,1.686,0,0,1,1.5-1.027,1.515,1.515,0,0,1,1.379.954c.173,1.505,1.114,8.749,4.07,8.757l8.5.021c1.6,0,2.783-1.927,3.186-2.95.5-1.26,1.391-5.81,1.428-5.97l.014-.064,0-.065A2.906,2.906,0,0,0,748.082,340.948Zm-18.505,3.939c-.453,2.323-1.87,6.983-3.569,6.978l-8.072.02c-1.169.093-1.475-1.163-1.751-2.056a44.272,44.272,0,0,1-.66-4.892c.072-1.028.409-1.853,1.34-1.85l11.058-.012a1.769,1.769,0,0,1,1.406.734A1.371,1.371,0,0,1,729.577,344.887Zm18.3,4.687c-.352.89-.752,2.257-2.06,2.3l-8.072.019c-1.7,0-2.653-4.63-2.911-6.955a1.455,1.455,0,0,1,.339-1.076,1.933,1.933,0,0,1,1.468-.727l11.058-.012c.932,0,1.395.87,1.381,1.9C748.96,345.539,748.3,348.5,747.877,349.574Z" transform="translate(-713.607 -340.634)"/>
              <path id="Path_5074" data-name="Path 5074" d="M863.549,342.266l-1.609-.06-.411-3.339,2.705.042Z" transform="translate(-844.165 -338.867)" fill="#fff"/>
            </g>
          </g>
          <g id="Group_8770" data-name="Group 8770" transform="translate(13.193 30.698)">
            <path id="Path_5075" data-name="Path 5075" d="M812.624,457.331l-16.635-1.856s1.752,7.043,8.39,7.043C809.663,462.518,812.389,458.515,812.624,457.331Z" transform="translate(-792.199 -447.339)" fill="#fff"/>
            <path id="Path_5076" data-name="Path 5076" d="M926.929,389.015a2.161,2.161,0,1,0,1.473-2.775A2.222,2.222,0,0,0,926.929,389.015Z" transform="translate(-907.691 -386.166)"/>
            <path id="Path_5077" data-name="Path 5077" d="M764.479,392.715a.478.478,0,0,1,.01-.948l3.609-.479-4.053-1.564a.478.478,0,0,1,.27-.918l7.245,2.127a.478.478,0,0,1-.076.933l-6.879.848A.492.492,0,0,1,764.479,392.715Z" transform="translate(-763.702 -388.481)"/>
          </g>
        </g>
      </g>
    </g>
  </g>
</svg>
