<svg xmlns="http://www.w3.org/2000/svg" width="258.078" height="153.177" viewBox="0 0 258.078 153.177">
  <g id="ico_form" transform="translate(-276.433 -1101.823)">
    <g id="Group_8782" data-name="Group 8782" transform="translate(328.059 1281.193)">
      <path id="Path_5078" data-name="Path 5078" d="M-17.925-149.134S35.52-194.4,73.192-174.162s79.954,44.381,103.444,38.633S236.614-22.1,161.449-28.688-135.466,15.609-17.925-149.134Z" transform="translate(0)" fill="#152049"/>
      <path id="Path_5079" data-name="Path 5079" d="M64.01,1063.318,43,1063.178s15.273,1.451,19.534,5.239c3.025,2.69,22.769,3.025,26.631,1.643s7.018-5.607,10.636-4.9,47.975.253,48.193,3.731c-5.273.377-14.7,3.394,2.272,4.007,10.657.385,21.617-5.505,24.017-5.392s14.6.384,19.4.91c41,4.5,33.873-3.464,33.873-3.464l11.573-1.775Z" transform="translate(-46.603 -1101.604)" fill="#d1d1d1" opacity="0.4"/>
      <g id="Group_8772" data-name="Group 8772" transform="translate(23.978 -144.267)">
        <path id="Path_5080" data-name="Path 5080" d="M431.037,135.921H286.758v-5.887a2.263,2.263,0,0,1,2.263-2.263H428.774a2.263,2.263,0,0,1,2.263,2.263Z" transform="translate(-286.758 -127.771)" fill="#c7c9c9"/>
        <rect id="Rectangle_17203" data-name="Rectangle 17203" width="144.279" height="100.295" transform="translate(0 5.545)" fill="#fff"/>
        <path id="Path_5081" data-name="Path 5081" d="M306.506,140.556a1.443,1.443,0,1,1-1.443-1.443A1.443,1.443,0,0,1,306.506,140.556Z" transform="translate(-301.713 -137.83)" fill="#6b6bd6"/>
        <path id="Path_5082" data-name="Path 5082" d="M347.753,140.556a1.443,1.443,0,1,1-1.443-1.443A1.443,1.443,0,0,1,347.753,140.556Z" transform="translate(-338.293 -137.83)" fill="#78c2c5"/>
        <path id="Path_5083" data-name="Path 5083" d="M389,140.556a1.443,1.443,0,1,1-1.443-1.443A1.443,1.443,0,0,1,389,140.556Z" transform="translate(-374.874 -137.83)" fill="#fced7e"/>
      </g>
      <g id="Group_8775" data-name="Group 8775" transform="translate(23.978 -138.721)">
        <rect id="Rectangle_17204" data-name="Rectangle 17204" width="144.279" height="7.808" transform="translate(0 0)" fill="#152049"/>
        <g id="Group_8773" data-name="Group 8773" transform="translate(4.63 2.174)">
          <rect id="Rectangle_17205" data-name="Rectangle 17205" width="32.813" height="3.621" fill="#fff"/>
          <rect id="Rectangle_17206" data-name="Rectangle 17206" width="3.621" height="3.621" transform="translate(32.813)" fill="#5454b5"/>
        </g>
        <g id="Group_8774" data-name="Group 8774" transform="translate(123.097 1.212)">
          <path id="Path_5084" data-name="Path 5084" d="M1378.3,199.621h-3.621l1.81-3.621Z" transform="translate(-1374.682 -195.038)" fill="#5454b5"/>
          <rect id="Rectangle_17207" data-name="Rectangle 17207" width="3.621" height="3.621" transform="translate(10.753 0.962)" fill="#5454b5"/>
          <circle id="Ellipse_347" data-name="Ellipse 347" cx="1.81" cy="1.81" r="1.81" transform="translate(5.377 0.962)" fill="#5454b5"/>
          <circle id="Ellipse_348" data-name="Ellipse 348" cx="0.99" cy="0.99" r="0.99" transform="translate(8.034)" fill="#fced7e"/>
          <circle id="Ellipse_349" data-name="Ellipse 349" cx="0.99" cy="0.99" r="0.99" transform="translate(13.384)" fill="#fced7e"/>
        </g>
      </g>
      <g id="Group_8776" data-name="Group 8776" transform="translate(37.459 -126.951)">
        <rect id="Rectangle_17208" data-name="Rectangle 17208" width="38.773" height="2.037" transform="translate(0 4.073)" fill="#606266"/>
        <rect id="Rectangle_17209" data-name="Rectangle 17209" width="52.577" height="2.037" transform="translate(0 0)" fill="#606266"/>
      </g>
      <g id="Group_8777" data-name="Group 8777" transform="translate(28.844 -130.913)">
        <rect id="Rectangle_17210" data-name="Rectangle 17210" width="52.577" height="1.811" transform="translate(44.348 26.19)" fill="#bac3d1" opacity="0.3"/>
        <rect id="Rectangle_17211" data-name="Rectangle 17211" width="52.577" height="1.811" transform="matrix(0.922, -0.387, 0.387, 0.922, 28.001, 51.667)" fill="#bac3d1" opacity="0.3"/>
        <rect id="Rectangle_17212" data-name="Rectangle 17212" width="52.577" height="1.811" transform="translate(44.348 33.807)" fill="#bac3d1" opacity="0.3"/>
        <rect id="Rectangle_17213" data-name="Rectangle 17213" width="52.577" height="1.811" transform="translate(44.348 37.616)" fill="#bac3d1" opacity="0.3"/>
        <rect id="Rectangle_17214" data-name="Rectangle 17214" width="37.867" height="1.811" transform="translate(44.348 41.425)" fill="#bac3d1" opacity="0.3"/>
        <rect id="Rectangle_17215" data-name="Rectangle 17215" width="52.577" height="1.811" transform="translate(44.348 45.234)" fill="#bac3d1" opacity="0.3"/>
        <rect id="Rectangle_17216" data-name="Rectangle 17216" width="52.577" height="1.811" transform="translate(44.348 49.043)" fill="#bac3d1" opacity="0.3"/>
        <rect id="Rectangle_17217" data-name="Rectangle 17217" width="52.577" height="1.811" transform="translate(44.348 52.852)" fill="#bac3d1" opacity="0.3"/>
        <rect id="Rectangle_17218" data-name="Rectangle 17218" width="29.947" height="1.811" transform="translate(44.348 56.66)" fill="#bac3d1" opacity="0.3"/>
        <rect id="Rectangle_17219" data-name="Rectangle 17219" width="52.577" height="1.811" transform="translate(44.348 60.469)" fill="#bac3d1" opacity="0.3"/>
        <rect id="Rectangle_17220" data-name="Rectangle 17220" width="52.577" height="1.811" transform="translate(44.348 64.278)" fill="#bac3d1" opacity="0.3"/>
        <rect id="Rectangle_17221" data-name="Rectangle 17221" width="128.244" height="17.798" transform="translate(0 0)" fill="#bac3d1" opacity="0.3"/>
      </g>
      <g id="Back" transform="translate(38.105 -104.905)">
        <g id="Body" transform="translate(0 18.269)">
          <path id="Path_5085" data-name="Path 5085" d="M559.57,699.935a2.682,2.682,0,0,1-1.386-.4c-1.152-.69-2.129-2.266-2.987-4.82a29.636,29.636,0,0,1-.91-3.381l2.221-.435c.461,2.35,1.646,5.98,2.838,6.694a.352.352,0,0,0,.326.06c.776-.239,1.581-1.664,2.153-3.811a25.2,25.2,0,0,0,.673-3.731l2.254.2a27.233,27.233,0,0,1-.741,4.113c-.82,3.08-2.056,4.893-3.674,5.391A2.606,2.606,0,0,1,559.57,699.935Z" transform="translate(-538.144 -684.115)" fill="#fccfb2"/>
          <path id="Path_5086" data-name="Path 5086" d="M414.4,704.99a3.282,3.282,0,0,1-.838-.106,2.429,2.429,0,0,1-1.622-1.361c-1.171-2.489,1.137-7.711,1.612-8.733l2.052.953-1.026-.477,1.026.476c-.966,2.083-2.147,5.689-1.616,6.817.049.105.085.119.148.135.752.2,2.162-.554,3.772-2.009a25.516,25.516,0,0,0,2.571-2.73l1.777,1.4a27.4,27.4,0,0,1-2.808,2.988C417.494,704.117,415.832,704.99,414.4,704.99Z" transform="translate(-411.614 -688.262)" fill="#fccfb2"/>
          <rect id="Rectangle_17222" data-name="Rectangle 17222" width="1.924" height="2.376" transform="translate(6.134 46.266)" fill="#fccfb2"/>
          <rect id="Rectangle_17223" data-name="Rectangle 17223" width="1.924" height="2.376" transform="translate(12.923 46.266)" fill="#fccfb2"/>
          <g id="Group_8778" data-name="Group 8778" transform="translate(12.131 47.708)">
            <rect id="Rectangle_17224" data-name="Rectangle 17224" width="5.997" height="0.679" transform="translate(0 3.084)" fill="#fff"/>
            <path id="Path_5087" data-name="Path 5087" d="M522.488,1059.6v-.853a.819.819,0,0,0-.7.821h-1.462l-.812,2.263h5.919v-.517A22.146,22.146,0,0,0,522.488,1059.6Z" transform="translate(-519.433 -1058.748)" fill="#373737"/>
          </g>
          <g id="Group_8779" data-name="Group 8779" transform="translate(5.342 48.529)">
            <rect id="Rectangle_17225" data-name="Rectangle 17225" width="3.508" height="0.679" transform="translate(0 2.263)" fill="#fff"/>
            <path id="Path_5088" data-name="Path 5088" d="M461.832,1066h-1.894l-.812,2.263h3.518Z" transform="translate(-459.092 -1066)" fill="#373737"/>
          </g>
          <g id="Group_8780" data-name="Group 8780" transform="translate(0.688)">
            <path id="Path_5089" data-name="Path 5089" d="M451.824,827v3.773a3.5,3.5,0,0,0,1.248,1.866l.08,19.141h2.712l-.042-18.929,4.167.037L460,851.78h2.456V827Z" transform="translate(-447.962 -805.514)" fill="#2b72b6"/>
            <rect id="Rectangle_17226" data-name="Rectangle 17226" width="3.055" height="1.245" transform="translate(4.994 45.361)" fill="#80b3dd"/>
            <rect id="Rectangle_17227" data-name="Rectangle 17227" width="2.829" height="1.245" transform="translate(11.896 45.361)" fill="#80b3dd"/>
            <path id="Path_5090" data-name="Path 5090" d="M432.981,646.027l3.26-1.286c-.284-3.5-3.723-7.634-9.253-7.634s-9.014,4.131-9.3,7.634l3.183,1.286v16.3h12.107Z" transform="translate(-417.691 -637.107)" fill="#373737"/>
          </g>
        </g>
        <path id="Path_5091" data-name="Path 5091" d="M489.507,622.049l-.234-2.059-2.232-.055-.051,2.1A3.139,3.139,0,0,0,489.507,622.049Z" transform="translate(-478.462 -603.609)" fill="#fccfb2"/>
        <g id="Head" transform="translate(1.8)">
          <path id="Path_5092" data-name="Path 5092" d="M540.99,560.974a1.738,1.738,0,1,1-1.663-1.815A1.74,1.74,0,0,1,540.99,560.974Z" transform="translate(-525.069 -549.709)" fill="#efc3ab"/>
          <path id="Path_5093" data-name="Path 5093" d="M431,558.4a1.739,1.739,0,1,1-1.663-1.815A1.741,1.741,0,0,1,431,558.4Z" transform="translate(-427.524 -547.424)" fill="#fccfb2"/>
          <g id="Group_8781" data-name="Group 8781" transform="translate(1.598 2.468)">
            <path id="Path_5094" data-name="Path 5094" d="M454.2,503.788l-2.853-5.308.489.074a6.48,6.48,0,0,0-10.08,5.106l-.1,1.2a6.734,6.734,0,0,0,6.129,7.089,6.824,6.824,0,0,0,6.818-6.534l.079-.914A.971.971,0,0,1,454.2,503.788Z" transform="translate(-441.648 -497.459)" fill="#fccfb2"/>
            <path id="Path_5095" data-name="Path 5095" d="M527.871,506.561l-.489-.074,2.283,7.235s.228-1.171,1.048-1.217l.025-.283A6.475,6.475,0,0,0,527.871,506.561Z" transform="translate(-517.681 -505.465)" fill="#ba6338"/>
          </g>
          <path id="Path_5096" data-name="Path 5096" d="M450.011,500.63a6.145,6.145,0,0,1-6.615,5.926h.2a6.189,6.189,0,0,1-6.128-6.48l.1-1.2a6.479,6.479,0,0,1,6.75-6.2h0a6.479,6.479,0,0,1,6.2,6.751Z" transform="translate(-436.34 -490.75)" fill="#ba6338"/>
          <path id="Path_5097" data-name="Path 5097" d="M447.126,480.2c1.825,1.341,7.974,1.043,10.451.047,1.414-.568,1.792-.882,2.145-4.091-1.444,2.173-7.909-1.412-11.192-.285C445.754,476.826,446.8,479.96,447.126,480.2Z" transform="translate(-444.494 -475.648)" fill="#a55532"/>
        </g>
      </g>
    </g>
  </g>
</svg>
