<svg xmlns="http://www.w3.org/2000/svg" width="202.012" height="195.01" viewBox="0 0 202.012 195.01">
  <g id="ico_permiso" transform="translate(-791 -713.416)">
    <g id="Group_8759" data-name="Group 8759" transform="translate(1122.592 839.272)">
      <path id="Path_5031" data-name="Path 5031" d="M-279.442-123.716s72.617-9,106.6,9.9,46-2.19,42.759,34.766-22.01,50.7-11.471,94.014-77.018,72.8-100.862,40.5-47.175-46.15-72.558-55S-342.486-120.22-279.442-123.716Z" fill="#152049"/>
      <g id="Group_8754" data-name="Group 8754" transform="translate(-279.442 19.459)">
        <path id="Path_5032" data-name="Path 5032" d="M213.1,1062.823c0,2.585-30.866,5.963-68.941,5.963s-68.941-3.378-68.941-5.963,30.865-4.681,68.941-4.681S213.1,1060.238,213.1,1062.823Z" transform="translate(-75.214 -1058.142)" fill="#4f8e8e" opacity="0.5"/>
      </g>
      <g id="Beard" transform="translate(-277.344 -102.215)">
        <g id="Character" transform="translate(0 16.945)">
          <g id="Body" transform="translate(11.811 27.366)">
            <g id="Group_8755" data-name="Group 8755" transform="translate(0 2.293)">
              <path id="Path_5033" data-name="Path 5033" d="M207.778,483.122l3.871-3.984c-2.708-4.972-10.516-8.786-18.656-5.172s-10.555,11.967-8.683,17.31l5.542-.2a62.8,62.8,0,0,1,6.46,10.233,78.856,78.856,0,0,1,4.192,13.758l17.926-7.959Z" transform="translate(-183.711 -472.539)" fill="#373737"/>
            </g>
            <path id="Path_5034" data-name="Path 5034" d="M238.264,457.265a13.074,13.074,0,0,0-1.388.348l-1.669-2.96-3.337,1.339,1.284,3.231a10.956,10.956,0,0,0-1.462.955,4.094,4.094,0,0,0,.217.471,3.771,3.771,0,0,0,4.977,1.972,3.861,3.861,0,0,0,1.439-5.211C238.309,457.378,238.281,457.3,238.264,457.265Z" transform="translate(-225.541 -454.653)" fill="#fccfb2"/>
          </g>
          <g id="Group_8758" data-name="Group 8758">
            <g id="Group_8756" data-name="Group 8756" transform="translate(1.931 5.757)">
              <path id="Path_5035" data-name="Path 5035" d="M258.232,336.222a2.8,2.8,0,1,1-3.807-1.106A2.8,2.8,0,0,1,258.232,336.222Z" transform="translate(-234.217 -328.529)" fill="#fccfb2"/>
              <path id="Path_5036" data-name="Path 5036" d="M131.714,297.992a10.807,10.807,0,0,1-3.94,14.735h0a10.807,10.807,0,0,1-14.612-4.376l-1.34-2.664a10.7,10.7,0,0,1,3.828-14.673h0a10.7,10.7,0,0,1,14.5,4.438Z" transform="translate(-109.893 -289.255)" fill="#fccfb2"/>
              <path id="Path_5037" data-name="Path 5037" d="M118.808,417.872A2.8,2.8,0,1,1,115,416.767,2.8,2.8,0,0,1,118.808,417.872Z" transform="translate(-112.667 -399.712)" fill="#fccfb2"/>
              <path id="Path_5038" data-name="Path 5038" d="M144.393,363.233a10.807,10.807,0,0,1-14.612-4.376l-.244-.437c-.033-.065-.067-.128-.1-.19l1.05-.5s2.895,4.666,6.2,2.727c1.165-.684,1.844-3.115,3.874-4.285,2.124-1.225,4.362-.425,5.606-1.122,3.341-1.87.715-6.76.715-6.76l.966-.64c.044.078.095.156.15.234l.342.612A10.807,10.807,0,0,1,144.393,363.233Z" transform="translate(-126.512 -339.76)" fill="#af928b" opacity="0.5"/>
              <path id="Path_5039" data-name="Path 5039" d="M107.536,300.8c-1.44-3.018-1.877-9.382,4.453-13.295,6.593-3.383,11.99,0,13.829,2.789.592.9,2.151,3.685,2.151,3.685l-.966.64s-4.405-8.8-8.745-4.434a17.761,17.761,0,0,1-3.206,2.683,14.883,14.883,0,0,1-3.706,1.406c-5.979,1.459-.734,9.785-.734,9.785l-1.053.5S108,301.776,107.536,300.8Z" transform="translate(-106.639 -286.092)" fill="#706053"/>
            </g>
            <g id="Group_8757" data-name="Group 8757" transform="translate(9.9 17.178)">
              <path id="Path_5040" data-name="Path 5040" d="M204.274,411.5l-7.986,4.259s2.914,2.071,5.471.646A4.987,4.987,0,0,0,204.274,411.5Z" transform="translate(-192.764 -406.844)" fill="#fff"/>
              <path id="Path_5041" data-name="Path 5041" d="M235.519,377.229a1.183,1.183,0,1,0-.035-1.719A1.217,1.217,0,0,0,235.519,377.229Z" transform="translate(-226.64 -375.183)"/>
              <path id="Path_5042" data-name="Path 5042" d="M169.176,414.217a1.183,1.183,0,1,0-.036-1.719A1.216,1.216,0,0,0,169.176,414.217Z" transform="translate(-168.802 -407.43)"/>
            </g>
            <path id="Path_5043" data-name="Path 5043" d="M93.583,256.173l2.116.633s9.755-3.39,13.231-7.092c1.68-1.789,1.741-2.821.685-7.577-3.819,4.369-3.893,4.886-3.893,4.886a20.586,20.586,0,0,1,2.562-5.842,12.442,12.442,0,0,0-8.593,5.6c-.147-.606.065-1.644,2.54-4.451-2.794,1.395-9.576,5.473-8.382,9.81,0,0-1.155.143-1.031-1.671C91.612,251.82,90.469,254.383,93.583,256.173Z" transform="translate(-91.577 -241.181)" fill="#373737"/>
          </g>
        </g>
        <rect id="Rectangle_17189" data-name="Rectangle 17189" width="97.94" height="126.527" transform="translate(26.59 0)" fill="#fff"/>
        <path id="Path_5044" data-name="Path 5044" d="M201.6,586.164c-.157,0-.307-.008-.451-.023a4.541,4.541,0,0,1-3.27-1.919c-1.508-2.059-2.4-5.717-1.948-11.181.008-.094.019-.206.028-.3l3.867-.136c-.373,3.933.078,7.875,1.156,9.345a.706.706,0,0,0,.55.364c.755.074,2.506-1.4,4.3-7.389a68.631,68.631,0,0,0,1.945-8.9l3.809.529a71.518,71.518,0,0,1-2.07,9.471A27.293,27.293,0,0,1,206.7,582.7C204.922,585.5,203.015,586.164,201.6,586.164Z" transform="translate(-182.45 -507.44)" fill="#fccfb2"/>
        <path id="Path_5045" data-name="Path 5045" d="M281.078,251.942a2.106,2.106,0,0,0-2.475,3.408l3.288,2.388,2.478-3.406Z" transform="translate(-253.87 -233.267)" fill="#fccfb2"/>
      </g>
    </g>
    <text id="Permiso_vacacional" data-name="Permiso vacacional" transform="translate(923 759)" fill="#152049" font-size="7" font-family="AeonikPro-Regular, Aeonik Pro"><tspan x="-29" y="0">Permiso vacacional</tspan></text>
    <rect id="Rectangle_17190" data-name="Rectangle 17190" width="74" height="3" transform="translate(886 770)" fill="#dbdbdb"/>
    <rect id="Rectangle_17195" data-name="Rectangle 17195" width="74" height="3" transform="translate(886 791)" fill="#dbdbdb"/>
    <rect id="Rectangle_17198" data-name="Rectangle 17198" width="74" height="3" transform="translate(886 812)" fill="#dbdbdb"/>
    <rect id="Rectangle_17191" data-name="Rectangle 17191" width="74" height="3" transform="translate(886 777)" fill="#dbdbdb"/>
    <rect id="Rectangle_17194" data-name="Rectangle 17194" width="74" height="3" transform="translate(886 798)" fill="#dbdbdb"/>
    <rect id="Rectangle_17197" data-name="Rectangle 17197" width="74" height="3" transform="translate(886 819)" fill="#dbdbdb"/>
    <rect id="Rectangle_17192" data-name="Rectangle 17192" width="74" height="3" transform="translate(886 784)" fill="#dbdbdb"/>
    <rect id="Rectangle_17193" data-name="Rectangle 17193" width="74" height="3" transform="translate(886 805)" fill="#dbdbdb"/>
    <rect id="Rectangle_17196" data-name="Rectangle 17196" width="74" height="3" transform="translate(886 826)" fill="#dbdbdb"/>
    <path id="Union_1" data-name="Union 1" d="M-5156-10176v-7h1.875v4.453H-5146v2.546Z" transform="matrix(0.574, -0.819, 0.819, 0.574, 12213.551, 2461.978)" fill="#5db85c"/>
  </g>
</svg>
