<svg xmlns="http://www.w3.org/2000/svg" xmlns:xlink="http://www.w3.org/1999/xlink" width="1336" height="200" viewBox="0 0 1336 200">
  <defs>
    <clipPath id="clip-path">
      <rect id="Rectangle_17186" data-name="Rectangle 17186" width="1336" height="200" transform="translate(0 50)" fill="#fff"/>
    </clipPath>
  </defs>
  <g id="imagen-header-pases-anuales" transform="translate(0 -50)" clip-path="url(#clip-path)">
    <rect id="Rectangle_17187" data-name="Rectangle 17187" width="562" height="229" transform="translate(0 44)" fill="#00a1ed"/>
    <g id="Group_8840" data-name="Group 8840" transform="translate(2780.172 -9)">
      <g id="Group_8812" data-name="Group 8812" transform="translate(-2218.1)">
        <rect id="Rectangle_17263" data-name="Rectangle 17263" width="771.728" height="270.864" fill="#d0d0d0" opacity="0.6"/>
        <path id="Path_5367" data-name="Path 5367" d="M-2052.9,1129.022c0,1.528,267.75,3.188,347.033,3.188s188-2.737,188-4.264-81.088-1.838-160.368-1.838S-2052.9,1127.493-2052.9,1129.022Z" transform="translate(2086.139 -886.021)" fill="#d0d0d0" opacity="0.6"/>
      </g>
      <g id="Group_8815" data-name="Group 8815" transform="translate(-1982.437 133)">
        <g id="Group_8814" data-name="Group 8814" transform="translate(0)">
          <path id="Path_5368" data-name="Path 5368" d="M338.5,928.083a4.149,4.149,0,0,1-4.149,4.149H168.32a4.149,4.149,0,0,1-4.149-4.149h0a4.149,4.149,0,0,1,4.149-4.149H334.354a4.149,4.149,0,0,1,4.149,4.149Z" transform="translate(-164.171 -861.873)" fill="#fff"/>
          <g id="Group_8813" data-name="Group 8813" transform="translate(1.064)">
            <path id="Path_5369" data-name="Path 5369" d="M221.025,666.351a6,6,0,0,1-6,6H175.489a6,6,0,0,1-6-6c0-11.7,2.889-46.871,2.889-46.871a5.607,5.607,0,0,1,5.327-5.85h35.1a5.607,5.607,0,0,1,5.327,5.85S221.025,654.652,221.025,666.351Z" transform="translate(-169.489 -613.63)" fill="#fff"/>
            <path id="Path_5370" data-name="Path 5370" d="M522.7,666.351a6,6,0,0,1-6,6H477.159a6,6,0,0,1-6-6c0-11.7,2.889-46.871,2.889-46.871a5.607,5.607,0,0,1,5.327-5.85h35.1a5.607,5.607,0,0,1,5.327,5.85S522.7,654.652,522.7,666.351Z" transform="translate(-410.825 -613.63)" fill="#fff"/>
            <path id="Path_5371" data-name="Path 5371" d="M824.365,666.351a6,6,0,0,1-6,6H778.828a6,6,0,0,1-6-6c0-11.7,2.889-46.871,2.889-46.871a5.607,5.607,0,0,1,5.327-5.85h35.1a5.607,5.607,0,0,1,5.327,5.85S824.365,654.652,824.365,666.351Z" transform="translate(-652.16 -613.63)" fill="#fff"/>
          </g>
        </g>
        <rect id="Rectangle_17264" data-name="Rectangle 17264" width="3.3" height="40.324" transform="translate(145.85 64.19)" fill="#fff"/>
        <path id="Path_5372" data-name="Path 5372" d="M882.163,1112.33a6.5,6.5,0,0,0-13.005,0Z" transform="translate(-728.161 -1007.388)" fill="#fff"/>
      </g>
      <g id="Luggage" transform="translate(-1966.021 159.25)">
        <path id="Path_5373" data-name="Path 5373" d="M280.962,833.293l-.31,52.8a3.617,3.617,0,0,1-3.637,3.6L261.1,889.6a3.617,3.617,0,0,1-3.6-3.636l.308-52.8a3.62,3.62,0,0,1,3.638-3.6l15.911.093A3.619,3.619,0,0,1,280.962,833.293Z" transform="translate(-255.257 -812.626)" fill="#ff5747"/>
        <path id="Path_5374" data-name="Path 5374" d="M313.1,836.227l-1.446-.009.834-73.43,1.447.009Z" transform="translate(-298.571 -759.206)" fill="#373737"/>
        <path id="Path_5375" data-name="Path 5375" d="M357.965,1110.048a3.858,3.858,0,1,1-3.834-3.881A3.857,3.857,0,0,1,357.965,1110.048Z" transform="translate(-329.45 -1033.91)" fill="#373737"/>
        <path id="Path_5376" data-name="Path 5376" d="M363.493,1117.4a2.015,2.015,0,1,1-2-2.025A2.015,2.015,0,0,1,363.493,1117.4Z" transform="translate(-336.82 -1041.279)" fill="#515767"/>
        <path id="Path_5377" data-name="Path 5377" d="M253.965,1110.048a3.858,3.858,0,1,1-3.834-3.881A3.857,3.857,0,0,1,253.965,1110.048Z" transform="translate(-246.25 -1033.91)" fill="#373737"/>
        <path id="Path_5378" data-name="Path 5378" d="M259.493,1117.4a2.015,2.015,0,1,1-2-2.025A2.015,2.015,0,0,1,259.493,1117.4Z" transform="translate(-253.62 -1041.279)" fill="#515767"/>
        <path id="Path_5379" data-name="Path 5379" d="M282.164,965.684a1.376,1.376,0,0,1-1.395,1.357h0a1.375,1.375,0,0,1-1.357-1.394l.1-7.57a1.376,1.376,0,0,1,1.395-1.357h0a1.375,1.375,0,0,1,1.357,1.393Z" transform="translate(-272.78 -914.352)" fill="#373737"/>
        <g id="Group_8816" data-name="Group 8816" transform="translate(2.547 16.937)">
          <path id="Path_5380" data-name="Path 5380" d="M354.868,833.628l-.013,2.112a7.23,7.23,0,0,1-4.964-5.759l1.381.009A3.619,3.619,0,0,1,354.868,833.628Z" transform="translate(-331.71 -829.897)" fill="#373737"/>
          <path id="Path_5381" data-name="Path 5381" d="M264.2,829.573a7.236,7.236,0,0,1-5.213,5.75l.012-2.164a3.62,3.62,0,0,1,3.638-3.6Z" transform="translate(-258.987 -829.563)" fill="#373737"/>
        </g>
        <path id="Path_5382" data-name="Path 5382" d="M312.375,747.938a2.036,2.036,0,0,1-2.045,2.02h0a2.034,2.034,0,0,1-2.019-2.043l.007-1.017a2.031,2.031,0,0,1,2.042-2.018h0a2.031,2.031,0,0,1,2.02,2.044Z" transform="translate(-295.899 -744.879)" fill="#373737"/>
        <g id="Baggage" transform="translate(10.555 16.204)">
          <g id="Group_8817" data-name="Group 8817">
            <path id="Path_5383" data-name="Path 5383" d="M302.684,859.626l-3.661,3.774.54,12.5,7.63-.33-.539-12.5Zm.222,5.176a1.535,1.535,0,1,1,1.468-1.6A1.533,1.533,0,0,1,302.905,864.8Z" transform="translate(-299.023 -852.881)" fill="#fff"/>
            <path id="Path_5384" data-name="Path 5384" d="M309.625,828.537a2.82,2.82,0,0,0-1.125-2.331c-.013.118-.025.235-.043.349a2.592,2.592,0,0,1,.855,2,13.909,13.909,0,0,1-.619,5.106l.251.223A13.913,13.913,0,0,0,309.625,828.537Zm-2,6.5a.665.665,0,0,1-.448-.2,3.667,3.667,0,0,1-.733-1.085,9.675,9.675,0,0,1-.8-2.679c-.1-.572-.168-1.124-.2-1.581-.025-.3-.04-.565-.049-.769-.057-1.3.481-2.4,1.743-2.5.016-.108.023-.212.031-.318-1.47.091-2.157,1.343-2.087,2.835.008.225.027.583.065,1.011.047.445.108.968.209,1.526a10.126,10.126,0,0,0,.86,2.72,3.921,3.921,0,0,0,.677.979,1.015,1.015,0,0,0,.75.376,1,1,0,0,0,.719-.439,1.819,1.819,0,0,0-.3-.113A.65.65,0,0,1,307.629,835.035Z" transform="translate(-303.865 -825.9)" fill="#373737"/>
            <rect id="Rectangle_17265" data-name="Rectangle 17265" width="0.438" height="5.792" transform="translate(4.298 14.532) rotate(-2.469)" fill="#373737"/>
            <rect id="Rectangle_17266" data-name="Rectangle 17266" width="0.438" height="5.793" transform="matrix(0.999, -0.043, 0.043, 0.999, 3.064, 14.585)" fill="#373737"/>
          </g>
        </g>
      </g>
      <g id="Group_8839" data-name="Group 8839" transform="translate(-1919.234 85.686)">
        <g id="Group_8824" data-name="Group 8824" transform="translate(2.956 37.556)">
          <path id="Path_5385" data-name="Path 5385" d="M569,872.15c0,3.121,1.994,5.65-1.127,5.65H543.645c-3.121,0-1.444-2.529-1.444-5.65h0a5.65,5.65,0,0,1,5.65-5.65h15.5a5.65,5.65,0,0,1,5.65,5.65Z" transform="translate(-532.393 -806.168)" fill="#266ca5"/>
          <g id="Black_man" data-name="Black man">
            <g id="Body">
              <path id="Path_5386" data-name="Path 5386" d="M502.969,613.579l-8.008-3.23c.714-8.8,9.45-19.185,23.345-19.185s22.6,10.381,23.314,19.185l-8.051,3.23v36.952h-30.6Z" transform="translate(-494.961 -585.899)" fill="#373737"/>
              <path id="Path_5387" data-name="Path 5387" d="M583.728,570.7a20.4,20.4,0,0,1,2.2-.383l.506-5.278,5.606-.2.214,5.42a17.094,17.094,0,0,1,2.69.437,6.362,6.362,0,0,1-.011.809c-.138,3.447-2.756,6.117-5.849,5.963s-5.488-3.072-5.351-6.519C583.736,570.893,583.725,570.761,583.728,570.7Z" transform="translate(-565.974 -564.84)" fill="#f2c5ad"/>
            </g>
          </g>
          <g id="Group_8820" data-name="Group 8820" transform="translate(25.491 60.929)">
            <rect id="Rectangle_17267" data-name="Rectangle 17267" width="7.334" height="5.678" transform="matrix(0.134, -0.991, 0.991, 0.134, 3.38, 45.358)" fill="#f2c5ad"/>
            <path id="Path_5388" data-name="Path 5388" d="M646.35,908.232l-8.909-1.205,5.093-33.651a4.5,4.5,0,0,1,5.057-3.851h0a4.5,4.5,0,0,1,3.852,5.057Z" transform="translate(-634.436 -869.483)" fill="#2b72b6"/>
            <rect id="Rectangle_17268" data-name="Rectangle 17268" width="3.6" height="9.6" transform="matrix(0.134, -0.991, 0.991, 0.134, 2.327, 39.718)" fill="#80b3dd"/>
            <g id="Group_8819" data-name="Group 8819" transform="translate(0 42.373)">
              <rect id="Rectangle_17269" data-name="Rectangle 17269" width="2.6" height="10.4" transform="translate(0 11.561) rotate(-82.293)" fill="#fff"/>
              <g id="Group_8818" data-name="Group 8818" transform="translate(0.419)">
                <path id="Path_5389" data-name="Path 5389" d="M633.185,1084.451l-.481-.065a2.6,2.6,0,0,0-2.095-3.014,2.49,2.49,0,0,0-2.82,2.349l-.23-.031-3.048,6.651,10.316,1.4Z" transform="translate(-624.51 -1081.347)" fill="#373737"/>
              </g>
            </g>
          </g>
          <g id="Group_8823" data-name="Group 8823" transform="translate(3.203 61.043)">
            <rect id="Rectangle_17270" data-name="Rectangle 17270" width="5.678" height="7.334" transform="translate(7.864 38.825) rotate(-9.608)" fill="#f2c5ad"/>
            <path id="Path_5390" data-name="Path 5390" d="M526.243,907.26l-8.864,1.5L511.038,875.3a4.5,4.5,0,0,1,3.682-5.182h0A4.5,4.5,0,0,1,519.9,873.8Z" transform="translate(-510.974 -870.054)" fill="#2b72b6"/>
            <rect id="Rectangle_17271" data-name="Rectangle 17271" width="9.6" height="3.6" transform="translate(5.804 37.435) rotate(-9.607)" fill="#80b3dd"/>
            <g id="Group_8822" data-name="Group 8822" transform="translate(7.979 42.262)">
              <rect id="Rectangle_17272" data-name="Rectangle 17272" width="10.4" height="2.6" transform="translate(0 10.424) rotate(-9.609)" fill="#fff"/>
              <g id="Group_8821" data-name="Group 8821" transform="translate(0.07)">
                <path id="Path_5391" data-name="Path 5391" d="M557.749,1083.57l-.479.081a2.6,2.6,0,0,0-2.9-2.254,2.491,2.491,0,0,0-1.994,3.082l-.229.039-.931,7.257,10.263-1.738Z" transform="translate(-551.22 -1081.363)" fill="#373737"/>
              </g>
            </g>
          </g>
        </g>
        <g id="Character" transform="translate(42.48 41.021)">
          <g id="Body-2" data-name="Body">
            <g id="Body-3" data-name="Body">
              <g id="Group_8831" data-name="Group 8831" transform="translate(3.724)" style="mix-blend-mode: normal;isolation: isolate">
                <g id="Group_8825" data-name="Group 8825" transform="translate(9.389 2.76)">
                  <path id="Path_5392" data-name="Path 5392" d="M758.306,595.965a.126.126,0,0,1,.04.007.129.129,0,0,1,.067.181.169.169,0,0,1-.148.1.11.11,0,0,1-.038-.007.131.131,0,0,1-.067-.182A.166.166,0,0,1,758.306,595.965Z" transform="translate(-758.146 -595.965)" fill="#dfdfdf"/>
                </g>
                <g id="Group_8826" data-name="Group 8826" transform="translate(9.347 2.716)">
                  <path id="Path_5393" data-name="Path 5393" d="M758.2,595.756a.169.169,0,0,1,.086.236.215.215,0,0,1-.191.136.16.16,0,0,1-.136-.243.217.217,0,0,1,.193-.136A.169.169,0,0,1,758.2,595.756Zm.049.223a.129.129,0,0,0-.067-.181.125.125,0,0,0-.04-.007.166.166,0,0,0-.147.1.131.131,0,0,0,.067.182.113.113,0,0,0,.038.007.169.169,0,0,0,.148-.1Z" transform="translate(-757.935 -595.748)" fill="#9a9ea0"/>
                </g>
                <g id="Group_8827" data-name="Group 8827" transform="translate(7.938 2.119)">
                  <path id="Path_5394" data-name="Path 5394" d="M751.408,592.776a.338.338,0,0,1,.172.473.435.435,0,0,1-.385.27.318.318,0,0,1-.1-.016.339.339,0,0,1-.172-.474.431.431,0,0,1,.384-.269A.32.32,0,0,1,751.408,592.776Zm-.032.4a.127.127,0,0,0-.064-.179.147.147,0,0,0-.038-.006.164.164,0,0,0-.146.1.128.128,0,0,0,.065.178.123.123,0,0,0,.039.007.163.163,0,0,0,.145-.1Z" transform="translate(-750.889 -592.76)" fill="#303030"/>
                </g>
                <g id="Group_8828" data-name="Group 8828" transform="translate(8.163 2.354)">
                  <path id="Path_5395" data-name="Path 5395" d="M752.174,593.935a.145.145,0,0,1,.038.006.127.127,0,0,1,.064.179.163.163,0,0,1-.145.1.125.125,0,0,1-.039-.007.128.128,0,0,1-.065-.178A.164.164,0,0,1,752.174,593.935Z" transform="translate(-752.016 -593.935)" fill="#202842"/>
                </g>
                <g id="Group_8829" data-name="Group 8829" transform="translate(7.748 1.921)">
                  <path id="Path_5396" data-name="Path 5396" d="M750.731,591.795a.513.513,0,0,1,.263.717.662.662,0,0,1-.585.411.479.479,0,0,1-.15-.024.513.513,0,0,1-.264-.718.663.663,0,0,1,.585-.411A.461.461,0,0,1,750.731,591.795Zm.092.661a.338.338,0,0,0-.172-.473.32.32,0,0,0-.1-.016.431.431,0,0,0-.384.269.339.339,0,0,0,.172.474.32.32,0,0,0,.1.016.434.434,0,0,0,.385-.27Z" transform="translate(-749.943 -591.77)" fill="#555656"/>
                </g>
                <g id="Group_8830" data-name="Group 8830" transform="translate(7.235 1.551)">
                  <path id="Path_5397" data-name="Path 5397" d="M750,590.445a.754.754,0,0,1,.386,1.055.969.969,0,0,1-.858.6.689.689,0,0,1-.22-.035l-1.466-.486a.755.755,0,0,1-.386-1.055.967.967,0,0,1,.858-.6.717.717,0,0,1,.222.036Zm-1.057.589a.513.513,0,0,0-.263-.717.463.463,0,0,0-.15-.025.663.663,0,0,0-.585.411.513.513,0,0,0,.264.718.478.478,0,0,0,.15.024.662.662,0,0,0,.585-.411Zm.893.3a.159.159,0,0,0-.135-.243.218.218,0,0,0-.193.136.16.16,0,0,0,.136.243.215.215,0,0,0,.191-.136Zm-.567-.188a.059.059,0,0,0-.029-.083l-.018,0a.075.075,0,0,0-.067.048.058.058,0,0,0,.03.082.053.053,0,0,0,.018,0,.075.075,0,0,0,.066-.047Z" transform="translate(-747.375 -589.922)" fill="#dfdfdf"/>
                </g>
                <path id="Path_5398" data-name="Path 5398" d="M725.518,584.517l-.039-.025a.58.58,0,0,0-.061-.033l-.016-.009-.044-.016-6.81-2.238a.6.6,0,0,0-.185-.03.709.709,0,0,0-.206.031.861.861,0,0,0-.127.05.926.926,0,0,0-.1.058,1.054,1.054,0,0,0-.089.067.99.99,0,0,0-.083.079,1.04,1.04,0,0,0-.08.1,1.067,1.067,0,0,0-.082.128q-.025.046-.045.094l-6.268,14.772a.769.769,0,0,0,.166.925l.667.5a.771.771,0,0,1-.165-.925l6.268-14.772a.917.917,0,0,1,.045-.093.987.987,0,0,1,.082-.129,1.023,1.023,0,0,1,.08-.1c.026-.027.054-.054.083-.079a1.052,1.052,0,0,1,.09-.067.823.823,0,0,1,.1-.057.857.857,0,0,1,.126-.05.7.7,0,0,1,.207-.031.612.612,0,0,1,.184.03l6.81,2.238a.524.524,0,0,1,.059.025.489.489,0,0,1,.064.035c.012.008.025.015.037.023Z" transform="translate(-711.202 -582.166)" fill="#ea4a42"/>
                <path id="Path_5399" data-name="Path 5399" d="M728.7,586.94a.715.715,0,0,1,.327,1.007l-6.268,14.772a.938.938,0,0,1-.812.6.563.563,0,0,1-.184-.03l-6.814-2.237a.715.715,0,0,1-.325-1.008l6.268-14.772a.939.939,0,0,1,.813-.6.611.611,0,0,1,.184.03Zm-4.582.36a.754.754,0,0,0-.386-1.055l-1.464-.486a.717.717,0,0,0-.222-.036.967.967,0,0,0-.858.6.755.755,0,0,0,.386,1.055l1.466.486a.691.691,0,0,0,.22.035.968.968,0,0,0,.858-.6Z" transform="translate(-713.874 -584.171)" fill="#ff5747"/>
              </g>
              <path id="Path_5400" data-name="Path 5400" d="M703.368,651.044c-.053,0-.106,0-.159,0a5.989,5.989,0,0,1-4.34-2.072,15.845,15.845,0,0,1-2.615-3.883,57.761,57.761,0,0,1-3.67-10.2l5.4-2.168c2.568,9.467,4.608,11.712,5.193,12.186a6.535,6.535,0,0,0,1.352-1.982,24.415,24.415,0,0,0,1.839-5.631c.984-4.686.955-9.543-.07-12.724a4.2,4.2,0,0,0-1.711-.247,17.987,17.987,0,0,0-2.822.3c-.257.043-.46.077-.64.1l-.661-6.01c.052-.007.226-.036.365-.059a20.02,20.02,0,0,1,4.821-.339,8.373,8.373,0,0,1,3.27.873,5.693,5.693,0,0,1,2.8,3.273,30.47,30.47,0,0,1,.777,13.422c-.662,4.753-2.088,9.023-3.911,11.716C707.54,649.136,705.8,650.965,703.368,651.044Z" transform="translate(-692.583 -611.051)" fill="#f2c5ad"/>
            </g>
          </g>
        </g>
        <g id="Group_8835" data-name="Group 8835" transform="translate(15.061 83.791)">
          <g id="Ticket">
            <path id="Path_5401" data-name="Path 5401" d="M575.4,801.774a.4.4,0,0,1,.1.561l-11.278,15.881a.4.4,0,0,1-.561.1l-8.006-5.686a.4.4,0,0,1-.095-.56l11.278-15.882a.4.4,0,0,1,.561-.094Z" transform="translate(-555.485 -796.014)" fill="#fff"/>
            <path id="Path_5402" data-name="Path 5402" d="M590.889,837.463l11.743-16.537,1.1.778a.4.4,0,0,1,.1.56l-11.278,15.881a.4.4,0,0,1-.561.095Z" transform="translate(-583.808 -815.944)" fill="#ff5747"/>
            <path id="Path_5403" data-name="Path 5403" d="M567.4,796.09l1.049.745L556.7,813.371l-1.049-.745a.4.4,0,0,1-.095-.561l11.277-15.881A.4.4,0,0,1,567.4,796.09Z" transform="translate(-555.486 -796.015)" fill="#ff5747"/>
            <path id="Path_5404" data-name="Path 5404" d="M621.029,815.517a3.745,3.745,0,0,1-.739.387c-.059-.056.418-.71.418-.71s-.126-.3-.275-.7c-.269.151-1.321.733-1.389.642-.1-.133.773-.866,1.189-1.205-.217-.653-.387-1.327-.188-1.392l.01,0,.009,0c.2-.066.464.577.679,1.23.536.024,1.672.094,1.673.259a5.66,5.66,0,0,1-1.5.312c.119.411.2.729.2.729s.774.24.759.321a3.752,3.752,0,0,1-.824.13v0l-.012,0-.011.006Z" transform="translate(-606.327 -809.222)" fill="#092a44"/>
            <rect id="Rectangle_17273" data-name="Rectangle 17273" width="0.643" height="0.644" transform="matrix(0.579, -0.815, 0.815, 0.579, 14.425, 9.627)" fill="#c7c7c7"/>
            <rect id="Rectangle_17274" data-name="Rectangle 17274" width="0.643" height="0.644" transform="translate(13.452 8.935) rotate(-54.64)" fill="#c7c7c7"/>
            <rect id="Rectangle_17275" data-name="Rectangle 17275" width="0.643" height="0.644" transform="translate(12.478 8.244) rotate(-54.635)" fill="#c7c7c7"/>
            <rect id="Rectangle_17276" data-name="Rectangle 17276" width="0.643" height="0.644" transform="translate(11.504 7.552) rotate(-54.615)" fill="#c7c7c7"/>
            <rect id="Rectangle_17277" data-name="Rectangle 17277" width="0.643" height="0.644" transform="translate(10.53 6.861) rotate(-54.645)" fill="#c7c7c7"/>
            <rect id="Rectangle_17278" data-name="Rectangle 17278" width="0.643" height="0.644" transform="matrix(0.579, -0.815, 0.815, 0.579, 9.557, 6.169)" fill="#c7c7c7"/>
            <rect id="Rectangle_17279" data-name="Rectangle 17279" width="4.757" height="0.402" transform="translate(9.183 14.601) rotate(-54.62)" fill="#c7c7c7"/>
            <rect id="Rectangle_17280" data-name="Rectangle 17280" width="4.757" height="0.402" transform="translate(8.405 14.049) rotate(-54.621)" fill="#c7c7c7"/>
            <rect id="Rectangle_17281" data-name="Rectangle 17281" width="4.757" height="0.402" transform="matrix(0.579, -0.815, 0.815, 0.579, 7.63, 13.498)" fill="#c7c7c7"/>
            <rect id="Rectangle_17282" data-name="Rectangle 17282" width="4.757" height="0.402" transform="matrix(0.579, -0.815, 0.815, 0.579, 6.064, 18.993)" fill="#c7c7c7"/>
            <rect id="Rectangle_17283" data-name="Rectangle 17283" width="4.757" height="0.402" transform="matrix(0.579, -0.815, 0.815, 0.579, 5.287, 18.441)" fill="#c7c7c7"/>
            <rect id="Rectangle_17284" data-name="Rectangle 17284" width="4.757" height="0.402" transform="translate(4.511 17.89) rotate(-54.621)" fill="#c7c7c7"/>
            <rect id="Rectangle_17285" data-name="Rectangle 17285" width="10.144" height="0.402" transform="translate(2.916 16.757) rotate(-54.619)" fill="#092a44"/>
          </g>
          <g id="Group_8834" data-name="Group 8834" transform="translate(0.598 4.49)">
            <path id="Path_5405" data-name="Path 5405" d="M567.754,834.722a.15.15,0,0,1-.195.086l-8.988-3.483a.151.151,0,0,1-.086-.195l4.871-12.568a.15.15,0,0,1,.195-.086l8.988,3.483a.15.15,0,0,1,.086.194Z" transform="translate(-558.475 -818.466)" fill="#2670b7"/>
            <g id="Group_8832" data-name="Group 8832" transform="translate(3.941 2.962)">
              <path id="Path_5406" data-name="Path 5406" d="M591.116,836.821a4.653,4.653,0,0,1-2.263-1.6l.2-.114a4.508,4.508,0,0,0,2.149,1.505,4.624,4.624,0,0,0,2.54.354l.057.218A4.842,4.842,0,0,1,591.116,836.821Z" transform="translate(-586.718 -834.74)" fill="#fff"/>
              <path id="Path_5407" data-name="Path 5407" d="M579.971,858.163l-.073-.214a4.552,4.552,0,0,1,2.788.33h0a4.754,4.754,0,0,1,2.243,1.569l-.192.118a4.534,4.534,0,0,0-2.132-1.476h0A4.4,4.4,0,0,0,579.971,858.163Z" transform="translate(-579.554 -852.931)" fill="#fff"/>
              <rect id="Rectangle_17286" data-name="Rectangle 17286" width="7.203" height="0.226" transform="translate(2.343 6.986) rotate(-68.816)" fill="#fff"/>
              <rect id="Rectangle_17287" data-name="Rectangle 17287" width="0.226" height="7.266" transform="translate(0.299 2.52) rotate(-68.814)" fill="#fff"/>
              <path id="Path_5408" data-name="Path 5408" d="M587.281,841.424c-.412-.16-1.11-2.274-.385-4.146s2.667-2.964,3.079-2.8,1.11,2.274.385,4.146S587.693,841.584,587.281,841.424Zm2.612-6.74a4.572,4.572,0,1,0,.256,3.854A4.51,4.51,0,0,0,589.893,834.685Z" transform="translate(-584.901 -834.222)" fill="#fff"/>
              <path id="Path_5409" data-name="Path 5409" d="M580.56,840.478a3.727,3.727,0,1,1,4.822-2.128A3.731,3.731,0,0,1,580.56,840.478Zm2.612-6.74a3.5,3.5,0,1,0,2,4.53A3.506,3.506,0,0,0,583.172,833.739Z" transform="translate(-578.18 -833.276)" fill="#fff"/>
            </g>
            <g id="Group_8833" data-name="Group 8833" transform="translate(1.683 9.8)">
              <path id="Path_5410" data-name="Path 5410" d="M567.2,869.012l-.309-.122.564-1.423.177.069a.584.584,0,0,1,.079.025.694.694,0,0,1,.325.258.337.337,0,0,1,.041.3c-.045.116-.191.353-.616.236Zm.477-1.2-.128.326c.244.061.287-.052.306-.1a.106.106,0,0,0-.02-.088A.456.456,0,0,0,567.676,867.808Z" transform="translate(-566.89 -867.467)" fill="#fff"/>
              <path id="Path_5411" data-name="Path 5411" d="M571.719,870.965l-.351-.136-.206.3-.252-.1.935-1.291.368.143-.226,1.55-.32-.12C571.677,871.257,571.707,871.049,571.719,870.965Zm.053-.34.091-.507-.3.428Z" transform="translate(-570.106 -869.281)" fill="#fff"/>
              <path id="Path_5412" data-name="Path 5412" d="M578.044,873.039a.478.478,0,0,1-.646.249.483.483,0,0,1-.277-.634l.008-.022.248.071a.258.258,0,0,0,.136.271l0,0c.1.032.254.094.309-.048s-.445-.425-.425-.743a.463.463,0,0,1,.038-.141.4.4,0,0,1,.556-.247.5.5,0,0,1,.306.349.264.264,0,0,1,0,.083c-.09,0-.154,0-.249,0a.279.279,0,0,0-.175-.143.135.135,0,0,0-.154.04.242.242,0,0,0,.069.308C577.935,872.607,578.143,872.783,578.044,873.039Z" transform="translate(-575.046 -870.9)" fill="#fff"/>
              <path id="Path_5413" data-name="Path 5413" d="M582.883,874.914a.479.479,0,0,1-.646.249.484.484,0,0,1-.276-.634l.008-.021.248.071a.257.257,0,0,0,.135.27l0,0c.1.032.253.095.309-.048s-.445-.425-.425-.743a.441.441,0,0,1,.038-.141.4.4,0,0,1,.555-.247.5.5,0,0,1,.306.349.255.255,0,0,1,0,.083c-.089,0-.154,0-.249,0a.278.278,0,0,0-.175-.143.137.137,0,0,0-.155.039.243.243,0,0,0,.069.309C582.775,874.482,582.983,874.658,582.883,874.914Z" transform="translate(-578.918 -872.4)" fill="#fff"/>
              <path id="Path_5414" data-name="Path 5414" d="M586.638,876.546l-.309-.122.564-1.423.176.068a.544.544,0,0,1,.08.025.7.7,0,0,1,.325.258.337.337,0,0,1,.04.3c-.045.115-.191.353-.616.236Zm.477-1.2-.128.326c.244.061.288-.053.306-.1a.1.1,0,0,0-.02-.088A.455.455,0,0,0,587.115,875.343Z" transform="translate(-582.441 -873.495)" fill="#fff"/>
              <path id="Path_5415" data-name="Path 5415" d="M592.1,878.037a1.071,1.071,0,0,1-.132.218.575.575,0,0,1-.226.188.386.386,0,0,1-.176.031.446.446,0,0,1-.09-.018.063.063,0,0,1-.021-.006l-.011,0-.007,0-.017-.009-.019-.009a.385.385,0,0,1-.132-.1.4.4,0,0,1-.081-.149.6.6,0,0,1-.005-.286,1.61,1.61,0,0,1,.064-.241c.027-.075.055-.148.083-.221s.058-.145.091-.218a1.472,1.472,0,0,1,.117-.22.653.653,0,0,1,.088-.109.376.376,0,0,1,.142-.094.4.4,0,0,1,.257.009l.017,0,.016.006.034.015a.517.517,0,0,1,.135.091.42.42,0,0,1,.09.149.613.613,0,0,1,.019.287,2.091,2.091,0,0,1-.14.468A2.378,2.378,0,0,1,592.1,878.037Zm-.138-.312a1.654,1.654,0,0,0,.1-.409.357.357,0,0,0-.013-.163.124.124,0,0,0-.081-.079l-.018-.007-.022-.008a.264.264,0,0,0-.037-.012.071.071,0,0,0-.039,0,.121.121,0,0,0-.047.027.335.335,0,0,0-.06.064,1.629,1.629,0,0,0-.2.376,1.465,1.465,0,0,0-.111.409.377.377,0,0,0,.018.167.149.149,0,0,0,.077.08l.007,0,.009,0,.008,0,.007,0a.067.067,0,0,0,.021,0,.108.108,0,0,0,.045-.008.379.379,0,0,0,.124-.1,1.3,1.3,0,0,0,.211-.356Z" transform="translate(-586.309 -874.906)" fill="#fff"/>
              <path id="Path_5416" data-name="Path 5416" d="M595.491,879.979l.567-1.43.176.07a.7.7,0,0,1,.406.284.333.333,0,0,1,.042.3.421.421,0,0,1-.484.264l.128.771-.234.037-.107-.638-.182.46Zm.947-.946a.428.428,0,0,0-.157-.14l-.13.329c.244.061.288-.054.307-.1A.1.1,0,0,0,596.438,879.032Z" transform="translate(-589.771 -876.333)" fill="#fff"/>
              <path id="Path_5417" data-name="Path 5417" d="M602,880.761l-.245-.1-.442,1.139-.274-.106.441-1.139-.259-.1.117-.3.778.3Z" transform="translate(-594.207 -877.619)" fill="#fff"/>
            </g>
          </g>
        </g>
        <path id="Path_5418" data-name="Path 5418" d="M499.147,733.313c-.54-.5-13.272-12.251-17.1-18.023-2.371-3.572-2.478-9.294-.328-17.492a82.28,82.28,0,0,1,2.656-8.216l5.382,2.171a76.591,76.591,0,0,0-2.444,7.581c-2.266,8.68-1.058,11.808-.433,12.749,2.86,4.31,12.662,13.706,16.2,16.963Z" transform="translate(-480.182 -627.079)" fill="#f2c5ad"/>
        <g id="Character-2" data-name="Character" transform="translate(7.064)">
          <g id="Group_8838" data-name="Group 8838">
            <g id="Group_8837" data-name="Group 8837">
              <path id="Path_5419" data-name="Path 5419" d="M673.06,487.469a4.064,4.064,0,1,1-3.815-4.308A4.068,4.068,0,0,1,673.06,487.469Z" transform="translate(-635.052 -461.935)" fill="#eabda9"/>
              <path id="Path_5420" data-name="Path 5420" d="M566.81,421.9a15.148,15.148,0,0,1-16.021,14.222h0A15.148,15.148,0,0,1,536.568,420.1l.335-5.64c.2-3.367.1-8.133,2.115-10.535,2.976-3.556,8.921-3.983,13.9-3.687h0a15.148,15.148,0,0,1,14.222,16.021Z" transform="translate(-532.334 -395.54)" fill="#f2c5ad"/>
              <path id="Path_5421" data-name="Path 5421" d="M523.626,486.289a4.064,4.064,0,1,1-3.816-4.308A4.069,4.069,0,0,1,523.626,486.289Z" transform="translate(-515.504 -460.991)" fill="#f2c5ad"/>
              <g id="Group_8836" data-name="Group 8836" transform="translate(13.464 23.539)">
                <path id="Path_5422" data-name="Path 5422" d="M586.187,497.258a1.715,1.715,0,1,1-1.132-2.221A1.764,1.764,0,0,1,586.187,497.258Z" transform="translate(-582.823 -494.927)"/>
                <path id="Path_5423" data-name="Path 5423" d="M657.107,497.042a1.715,1.715,0,1,1-1.131-2.221A1.763,1.763,0,0,1,657.107,497.042Z" transform="translate(-639.56 -494.755)"/>
                <path id="Path_5424" data-name="Path 5424" d="M600.676,533.587,611.8,533.4s-1.677,3.444-4.45,3.884A6.677,6.677,0,0,1,600.676,533.587Z" transform="translate(-597.105 -525.673)" fill="#fff"/>
              </g>
              <path id="Path_5425" data-name="Path 5425" d="M535.928,434.331a16.17,16.17,0,0,1-1.41-1.115s-1.867-4.684-.912-7.967a16.08,16.08,0,0,1,2.521-5.152l3.834,3.559C538.37,425.819,536.791,429.025,535.928,434.331Z" transform="translate(-529.769 -411.489)" fill="#ddd400"/>
              <path id="Path_5426" data-name="Path 5426" d="M669.1,428.97l3-1.083s2.8,4.134,1.293,11.18l-.355.116S672.983,432.105,669.1,428.97Z" transform="translate(-638.379 -417.722)" fill="#ddd400"/>
              <path id="Path_5427" data-name="Path 5427" d="M547.928,385.548l3.836,3.518s14.886,1.747,21.77-.888c3.327-1.273,4.223-1.992,5.174-9.479C574.023,385.5,548.149,367.113,547.928,385.548Z" transform="translate(-541.443 -377.061)" fill="#ddd400"/>
            </g>
          </g>
        </g>
      </g>
    </g>
    <text id="_-_" data-name="-%" transform="translate(1102 174)" fill="#fff" font-size="96" font-family="Avenir-Book, Avenir"><tspan x="-55" y="0">-%</tspan></text>
  </g>
</svg>
