<svg xmlns="http://www.w3.org/2000/svg" width="108" height="108" viewBox="0 0 108 108">
  <g id="ico_portal_hbd" transform="translate(-66 -1258)">
    <g id="Rectangle_17134" data-name="Rectangle 17134" transform="translate(66 1258)" fill="#fff" stroke="#fff" stroke-width="1">
      <rect width="108" height="108" stroke="none"/>
      <rect x="0.5" y="0.5" width="107" height="107" fill="none"/>
    </g>
    <g id="noun-celebrate-5305862" transform="translate(85.838 1273.833)">
      <path id="Path_2099" data-name="Path 2099" d="M273.762,41.845a.893.893,0,0,0,.3.046A1,1,0,0,0,275,41.2a3.06,3.06,0,0,1,.968-.262c.854-.148,2.152-.364,2.528-1.629s-.569-2.164-1.2-2.756a4.958,4.958,0,0,1-.672-.717,3.06,3.06,0,0,1,.968-.262c.854-.148,2.152-.364,2.528-1.617s-.569-2.164-1.2-2.757a5.132,5.132,0,0,1-.672-.694,2.81,2.81,0,0,1,.968-.251c.854-.148,2.152-.364,2.528-1.617a1,1,0,0,0-1.9-.6,2.809,2.809,0,0,1-.968.251c-.854.148-2.152.364-2.528,1.617s.569,2.164,1.2,2.757a5.007,5.007,0,0,1,.672.706,3.059,3.059,0,0,1-.968.262c-.854.148-2.152.364-2.528,1.617s.569,2.164,1.2,2.756a4.955,4.955,0,0,1,.672.717,3.06,3.06,0,0,1-.968.262c-.854.148-2.152.364-2.528,1.617a1.007,1.007,0,0,0,.66,1.252Z" transform="translate(-247.075 -25.512)" fill="#00a1ed"/>
      <path id="Path_2100" data-name="Path 2100" d="M504.9,183.069a.981.981,0,0,0-1.116-.843,3.188,3.188,0,0,1-.649-.774c-.49-.717-1.23-1.8-2.552-1.617s-1.72,1.435-1.993,2.255a4.628,4.628,0,0,1-.364.922,3.187,3.187,0,0,1-.649-.774c-.49-.717-1.253-1.8-2.552-1.617a1,1,0,0,0-.854,1.127.981.981,0,0,0,1.116.843,3.188,3.188,0,0,1,.649.774c.456.661,1.127,1.64,2.255,1.64a2.914,2.914,0,0,0,.3-.023c1.31-.182,1.72-1.435,1.993-2.255a4.628,4.628,0,0,1,.364-.922,3.188,3.188,0,0,1,.649.774c.49.717,1.253,1.8,2.552,1.617a1,1,0,0,0,.854-1.128Z" transform="translate(-438.499 -157.522)" fill="#00a1ed"/>
      <path id="Path_2101" data-name="Path 2101" d="M511.454,283.386l-1.093,1.093a1,1,0,0,0,.706,1.708.966.966,0,0,0,.706-.3l1.093-1.093a1,1,0,0,0-1.412-1.412Z" transform="translate(-452.272 -246.939)" fill="#00a1ed"/>
      <path id="Path_2102" data-name="Path 2102" d="M481.584,313.273l-1.093,1.082a1,1,0,0,0,.706,1.708.966.966,0,0,0,.706-.3L483,314.674a.995.995,0,1,0-1.413-1.4Z" transform="translate(-426.411 -272.806)" fill="#00a1ed"/>
      <path id="Path_2103" data-name="Path 2103" d="M511.768,313.336a1,1,0,1,0-1.412,1.412l1.093,1.093a1.013,1.013,0,0,0,.706.3.966.966,0,0,0,.706-.3,1,1,0,0,0,0-1.412Z" transform="translate(-452.267 -272.869)" fill="#00a1ed"/>
      <path id="Path_2104" data-name="Path 2104" d="M481.908,283.386A1,1,0,0,0,480.5,284.8l1.093,1.093a1.012,1.012,0,0,0,.706.3.966.966,0,0,0,.706-.3,1,1,0,0,0,0-1.412Z" transform="translate(-426.415 -246.939)" fill="#00a1ed"/>
      <path id="Path_2105" data-name="Path 2105" d="M453.7,76.868a1.011,1.011,0,0,0,.706-.3l1.093-1.093a1,1,0,1,0-1.412-1.412L453,75.159a1,1,0,0,0,0,1.412.992.992,0,0,0,.706.3Z" transform="translate(-402.608 -65.717)" fill="#00a1ed"/>
      <path id="Path_2106" data-name="Path 2106" d="M424.548,106.436l1.093-1.093a1,1,0,1,0-1.412-1.412l-1.093,1.093a1,1,0,0,0,.706,1.708,1.033,1.033,0,0,0,.706-.3Z" transform="translate(-376.755 -91.573)" fill="#00a1ed"/>
      <path id="Path_2107" data-name="Path 2107" d="M454.007,106.436a1.012,1.012,0,0,0,.706.3.966.966,0,0,0,.706-.3,1,1,0,0,0,0-1.412l-1.093-1.093a1,1,0,0,0-1.412,1.412Z" transform="translate(-402.536 -91.573)" fill="#00a1ed"/>
      <path id="Path_2108" data-name="Path 2108" d="M423.136,75.565l1.093,1.093a1.012,1.012,0,0,0,.706.3.966.966,0,0,0,.706-.3,1,1,0,0,0,0-1.412l-1.093-1.093a1,1,0,0,0-1.413,1.412Z" transform="translate(-376.755 -65.792)" fill="#00a1ed"/>
      <path id="Path_2109" data-name="Path 2109" d="M404.127,148.828a.98.98,0,0,0-.239-1.025,1.027,1.027,0,0,0-1.025-.239l-2.688.911-2.267-1.7a1,1,0,0,0-1.595.809l.034,2.836-2.312,1.64a1,1,0,0,0,.273,1.765l2.711.843.843,2.711a.985.985,0,0,0,.8.683.742.742,0,0,0,.159.012.993.993,0,0,0,.809-.422l1.64-2.312,2.837.034a.951.951,0,0,0,.9-.547,1,1,0,0,0-.091-1.048l-1.7-2.267Zm-3.359,4.511a1.122,1.122,0,0,0-.832.422l-.774,1.093-.4-1.276a1.009,1.009,0,0,0-.661-.661l-1.276-.4,1.093-.774a1.03,1.03,0,0,0,.422-.82l-.012-1.344,1.071.8a1,1,0,0,0,.911.148l1.264-.433-.433,1.264a1.006,1.006,0,0,0,.148.911l.8,1.071Z" transform="translate(-351.448 -128.748)" fill="#00a1ed"/>
      <path id="Path_2110" data-name="Path 2110" d="M141.473,100.515a18.7,18.7,0,0,0-16.811,4.636c-1.332-1.526-2.768-3.064-4.294-4.59q-1.691-1.691-3.383-3.223c-.456.49-.934.945-1.435,1.39q1.708,1.538,3.417,3.246c1.537,1.537,2.984,3.086,4.316,4.613a18.558,18.558,0,0,0-3.7,6.765c-1.925-1.595-4.021-3.485-6.264-5.729s-4.135-4.34-5.729-6.264a18.715,18.715,0,0,0,12.836-21.914,1,1,0,0,0-1.947.422,16.691,16.691,0,0,1-4.2,15.092,57.146,57.146,0,0,0-6.162-4.567c-4.226-2.665-6.948-3.3-8.314-1.936a2.362,2.362,0,0,0-.649,1.435l-19.59,50.182a1.007,1.007,0,0,0,.934,1.367,1.03,1.03,0,0,0,.364-.068l50.171-19.579a2.362,2.362,0,0,0,1.435-.649c1.367-1.367.729-4.077-1.936-8.314A54.079,54.079,0,0,0,127,107.942a18.951,18.951,0,0,0-1.367,1.481,52.087,52.087,0,0,1,3.212,4.476c2.54,4.032,2.449,5.6,2.221,5.843a.477.477,0,0,1-.217.1,1.168,1.168,0,0,0-.342.034c-1.332-.012-4.658-1.606-9.237-5.16a16.714,16.714,0,0,1,19.783-12.255,1,1,0,0,0,.423-1.947Zm-13.975,20.5-6.572,2.563A38.754,38.754,0,0,1,97.349,100l2.563-6.583c2.13,4.9,8.052,11.686,11.97,15.615s10.718,9.852,15.615,11.982Zm-20.809,8.121a47.576,47.576,0,0,1-14.9-14.9l4.476-11.469a40.82,40.82,0,0,0,21.9,21.891Zm-12.54,4.9a53.253,53.253,0,0,1-7.255-7.255L90.9,116.518a49.55,49.55,0,0,0,13.519,13.508Zm7.517-44.26c.74,0,2.381.433,5.376,2.323a57.014,57.014,0,0,1,5.74,4.248,16.633,16.633,0,0,1-6.572,3.326c-3.554-4.579-5.137-7.9-5.16-9.248a.874.874,0,0,0,.034-.342.642.642,0,0,1,.1-.217,1,1,0,0,1,.479-.091ZM86.074,128.887a55.677,55.677,0,0,0,5.968,5.968l-9.795,3.827Z" transform="translate(-79.489 -69.946)" fill="#152049"/>
      <path id="Path_2111" data-name="Path 2111" d="M378.768,20.534a3.394,3.394,0,1,0-2.4-.991,3.4,3.4,0,0,0,2.4.991Zm-.991-4.4a1.407,1.407,0,0,1,.991-.41,1.389,1.389,0,0,1,.991.41,1.409,1.409,0,1,1-1.982,0Z" transform="translate(-335.656 -13.745)" fill="#00a1ed"/>
      <path id="Path_2112" data-name="Path 2112" d="M575.569,267.076a3.475,3.475,0,0,0-4.806,0,3.395,3.395,0,1,0,5.786,2.4,3.279,3.279,0,0,0-.98-2.4Zm-1.413,3.394a1.4,1.4,0,1,1,.411-.991,1.308,1.308,0,0,1-.411.991Z" transform="translate(-503.949 -232.234)" fill="#00a1ed"/>
    </g>
  </g>
</svg>
